<!DOCTYPE svg PUBLIC "-//W3C//DTD SVG 20010904//EN" "http://www.w3.org/TR/2001/REC-SVG-20010904/DTD/svg10.dtd">
<svg version="1.0" xmlns="http://www.w3.org/2000/svg" width="296px" height="304px" viewBox="0 0 2960 3040" preserveAspectRatio="xMidYMid meet">
<g id="layer101" fill="#00a2e8" stroke="none">
 <path d="M850 2685 l0 -155 -182 -2 -183 -3 -3 -137 -3 -138 -154 0 -155 0 0 -40 0 -40 155 0 155 0 0 -110 0 -110 -155 0 -155 0 0 -40 0 -40 155 0 155 0 0 -110 0 -110 -155 0 -155 0 0 -40 0 -40 155 0 155 0 0 -115 0 -115 -155 0 -155 0 0 -40 0 -40 155 0 155 0 0 -120 0 -120 -155 0 -155 0 0 -40 0 -40 155 0 155 0 0 -210 0 -210 130 0 130 0 0 -155 0 -155 40 0 40 0 0 155 0 155 110 0 110 0 0 -155 0 -155 40 0 40 0 0 155 0 155 110 0 110 0 0 -155 0 -155 40 0 40 0 0 155 0 155 110 0 110 0 0 -155 0 -155 40 0 40 0 0 155 0 155 120 0 120 0 0 -155 0 -155 40 0 40 0 0 155 0 155 183 2 182 3 3 138 3 137 154 0 155 0 0 40 0 40 -155 0 -155 0 0 110 0 110 155 0 155 0 0 40 0 40 -155 0 -155 0 0 110 0 110 155 0 155 0 0 40 0 40 -155 0 -155 0 0 115 0 115 155 0 155 0 0 40 0 40 -155 0 -155 0 0 120 0 120 155 0 155 0 0 40 0 40 -155 0 -155 0 0 210 0 210 -130 0 -130 0 0 155 0 155 -40 0 -40 0 0 -155 0 -155 -110 0 -110 0 0 155 0 155 -40 0 -40 0 0 -155 0 -155 -110 0 -110 0 0 155 0 155 -40 0 -40 0 0 -155 0 -155 -110 0 -110 0 0 155 0 155 -40 0 -40 0 0 -155 0 -155 -120 0 -120 0 0 155 0 155 -40 0 -40 0 0 -155z m1480 -1160 l0 -925 -885 0 -885 0 0 925 0 925 885 0 885 0 0 -925z"/>
 <path d="M673 2323 c-13 -8 -23 -26 -23 -38 0 -24 37 -55 65 -55 28 0 65 31 65 55 0 25 -38 55 -67 54 -10 0 -28 -7 -40 -16z"/>
 <path d="M2087 2302 c-33 -36 -8 -92 40 -92 25 0 53 30 53 57 0 46 -62 69 -93 35z"/>
 <path d="M883 2124 c-24 -14 -54 -44 -68 -67 l-24 -43 -1 -497 c-1 -493 -1 -498 21 -543 13 -28 37 -56 62 -72 l41 -27 516 0 516 0 36 24 c19 13 46 40 59 59 l24 36 3 510 3 511 -30 46 c-19 31 -43 53 -73 68 -44 21 -53 21 -544 21 l-499 0 -42 -26z"/>
 <path d="M667 802 c-33 -36 -8 -92 40 -92 25 0 53 30 53 57 0 46 -62 69 -93 35z"/>
 <path d="M2127 782 c-33 -36 -8 -92 40 -92 25 0 53 30 53 57 0 46 -62 69 -93 35z"/>
 </g>
<g id="layer102" fill="#25c5f8" stroke="none">
 <path d="M953 2069 c-47 -14 -80 -60 -88 -121 -3 -29 -5 -247 -3 -483 3 -473 2 -461 65 -502 25 -17 65 -18 503 -18 524 0 505 -2 547 62 17 25 18 65 18 503 0 438 -1 478 -18 503 -42 64 -25 62 -532 64 -264 1 -473 -2 -492 -8z m368 -519 c10 -6 19 -17 19 -25 0 -20 -6 -19 -31 6 -31 31 -49 10 -49 -56 0 -67 22 -92 50 -57 21 26 30 28 30 7 0 -16 -30 -35 -55 -35 -31 0 -45 27 -45 85 0 77 28 103 81 75z m69 -25 c0 -31 3 -35 28 -35 40 0 55 -14 55 -50 0 -38 -15 -50 -65 -50 l-38 0 0 85 c0 50 4 85 10 85 6 0 10 -16 10 -35z m201 25 c16 -9 19 -22 19 -85 0 -43 -4 -75 -10 -75 -6 0 -10 31 -10 74 0 64 -2 74 -19 79 -31 8 -41 -13 -41 -85 0 -39 -4 -68 -10 -68 -13 0 -13 126 0 151 12 21 41 25 71 9z"/>
 <path d="M1390 1440 c0 -32 3 -36 25 -35 30 2 38 9 40 36 2 23 -10 32 -42 34 -20 1 -23 -4 -23 -35z"/>
 </g>
<g id="layer103" fill="#76e1fb" stroke="none">
 <path d="M953 2069 c-47 -14 -80 -60 -88 -121 -3 -29 -5 -247 -3 -483 3 -473 2 -461 65 -502 25 -17 65 -18 503 -18 524 0 505 -2 547 62 17 25 18 65 18 503 0 438 -1 478 -18 503 -42 64 -25 62 -532 64 -264 1 -473 -2 -492 -8z m381 -531 c5 -9 7 -21 2 -25 -4 -4 -12 0 -17 10 -12 21 -45 22 -53 1 -8 -20 -8 -78 0 -98 8 -21 41 -20 53 1 5 10 13 14 17 10 27 -26 -52 -61 -82 -36 -18 15 -19 130 -2 147 17 17 69 11 82 -10z m56 -13 c0 -33 2 -35 35 -35 44 0 65 -34 47 -75 -10 -21 -18 -25 -57 -25 l-45 0 0 85 c0 50 4 85 10 85 6 0 10 -16 10 -35z m208 23 c14 -14 17 -158 2 -158 -5 0 -10 33 -12 73 -3 69 -4 72 -28 72 -24 0 -25 -3 -28 -72 -4 -95 -22 -95 -22 0 0 80 9 97 50 97 14 0 31 -5 38 -12z"/>
 <path d="M1390 1440 c0 -27 3 -30 30 -30 27 0 30 3 30 30 0 27 -3 30 -30 30 -27 0 -30 -3 -30 -30z"/>
 </g>
<g id="layer104" fill="#ebfbfe" stroke="none">
 <path d="M953 2069 c-47 -14 -80 -60 -88 -121 -3 -29 -5 -247 -3 -483 3 -473 2 -461 65 -502 25 -17 65 -18 503 -18 524 0 505 -2 547 62 17 25 18 65 18 503 0 438 -1 478 -18 503 -42 64 -25 62 -532 64 -264 1 -473 -2 -492 -8z m381 -525 c9 -8 16 -20 16 -25 0 -15 -28 -10 -38 8 -6 10 -16 14 -26 10 -23 -9 -23 -115 0 -124 10 -4 20 0 26 10 10 18 38 23 38 8 0 -19 -32 -41 -59 -41 -40 0 -51 17 -51 85 0 34 5 66 12 73 17 17 64 15 82 -4z m66 -19 c0 -32 3 -35 28 -35 35 0 52 -16 52 -50 0 -37 -18 -50 -67 -50 l-43 0 0 85 c0 69 3 85 15 85 10 0 15 -11 15 -35z m210 16 c5 -11 10 -49 10 -85 0 -51 -3 -66 -15 -66 -11 0 -15 17 -17 73 -3 66 -5 72 -25 75 -22 3 -23 0 -23 -72 0 -61 -3 -76 -15 -76 -12 0 -15 15 -15 73 0 43 5 78 12 85 20 20 76 15 88 -7z"/>
 <path d="M1400 1440 c0 -27 3 -31 23 -28 16 2 22 10 22 28 0 18 -6 26 -22 28 -20 3 -23 -1 -23 -28z"/>
 </g>

</svg>