<svg id="svg" version="1.1" width="400" height="292.0110192837466" viewBox="0 0 400 292.0110192837466" xmlns="http://www.w3.org/2000/svg" xmlns:xlink="http://www.w3.org/1999/xlink" ><g id="svgg"><path id="path0" d="M77.631 40.217 C 77.520 40.328,77.429 54.794,77.429 72.364 L 77.429 104.310 82.105 104.310 L 86.781 104.310 86.707 72.243 L 86.633 40.175 82.233 40.095 C 79.813 40.051,77.742 40.106,77.631 40.217 M115.121 94.229 L 115.121 148.430 119.649 148.430 L 124.178 148.430 124.178 94.229 L 124.178 40.029 119.649 40.029 L 115.121 40.029 115.121 94.229 M152.520 94.229 L 152.520 148.430 157.049 148.430 L 161.578 148.430 161.578 94.229 L 161.578 40.029 157.049 40.029 L 152.520 40.029 152.520 94.229 M249.339 43.974 C 249.237 44.240,248.795 44.412,248.213 44.412 C 247.502 44.412,247.217 44.562,247.103 44.996 C 246.999 45.393,246.705 45.581,246.186 45.581 C 245.245 45.581,240.760 49.936,240.760 50.849 C 240.760 51.169,240.497 51.655,240.175 51.930 C 239.854 52.206,239.591 52.654,239.591 52.926 C 239.591 53.736,239.264 54.346,238.829 54.346 C 238.063 54.346,238.239 137.072,239.007 137.551 C 239.464 137.837,239.591 138.232,239.591 139.374 C 239.591 140.476,239.698 140.833,240.029 140.833 C 240.270 140.833,240.467 141.021,240.467 141.251 C 240.467 141.482,240.730 141.753,241.052 141.855 C 241.373 141.957,241.636 142.220,241.636 142.440 C 241.636 142.659,241.899 142.922,242.221 143.024 C 242.542 143.126,242.805 143.398,242.805 143.628 C 242.805 143.858,242.993 144.047,243.224 144.047 C 243.454 144.047,243.726 144.310,243.828 144.631 C 243.930 144.953,244.193 145.215,244.412 145.215 C 244.631 145.215,244.894 145.478,244.996 145.800 C 245.127 146.211,245.438 146.384,246.048 146.384 C 246.548 146.384,246.985 146.569,247.082 146.822 C 247.178 147.072,247.613 147.261,248.093 147.261 C 248.619 147.261,249.073 147.480,249.301 147.845 C 249.780 148.613,332.505 148.789,332.505 148.022 C 332.505 147.582,333.118 147.261,333.959 147.261 C 334.250 147.261,334.564 147.064,334.656 146.822 C 334.749 146.581,335.156 146.384,335.561 146.384 C 337.010 146.384,342.440 140.525,342.440 138.961 C 342.440 138.093,342.581 137.627,342.878 137.513 C 343.545 137.257,343.545 54.346,342.878 54.346 C 342.574 54.346,342.440 54.040,342.440 53.343 C 342.440 52.597,342.290 52.293,341.855 52.155 C 341.426 52.019,341.271 51.713,341.271 51.001 C 341.271 50.277,341.123 49.993,340.687 49.879 C 340.365 49.795,340.102 49.516,340.102 49.260 C 340.102 49.004,339.967 48.795,339.802 48.795 C 339.412 48.795,336.888 46.271,336.888 45.881 C 336.888 45.716,336.437 45.581,335.885 45.581 C 335.139 45.581,334.835 45.431,334.697 44.996 C 334.544 44.515,334.255 44.412,333.061 44.412 C 332.041 44.412,331.561 44.282,331.442 43.974 C 331.187 43.307,249.594 43.307,249.339 43.974 M282.191 64.923 C 282.426 65.158,282.542 66.462,282.542 68.868 L 282.542 72.462 284.879 72.462 L 287.217 72.462 287.217 68.868 C 287.217 64.489,287.153 64.573,290.479 64.573 C 293.661 64.573,293.645 64.550,293.645 69.095 L 293.645 72.486 295.909 72.401 L 298.174 72.316 298.256 68.675 C 298.353 64.423,298.231 64.582,301.388 64.582 C 304.544 64.582,304.423 64.423,304.519 68.675 L 304.602 72.316 310.007 72.462 L 315.413 72.608 315.496 75.749 L 315.579 78.890 319.002 78.894 C 323.386 78.900,323.196 78.744,323.094 82.274 L 323.009 85.172 319.284 85.253 L 315.559 85.335 315.559 87.655 L 315.559 89.975 319.284 90.057 L 323.009 90.139 323.094 93.036 C 323.196 96.568,323.387 96.411,318.992 96.416 L 315.559 96.421 315.559 98.749 L 315.559 101.078 319.284 101.160 L 323.009 101.242 323.093 104.237 L 323.176 107.232 319.367 107.232 L 315.559 107.232 315.559 111.458 C 315.559 116.584,315.861 116.289,310.611 116.289 L 306.793 116.289 306.793 119.737 C 306.793 123.944,306.839 123.886,303.579 123.886 C 300.320 123.886,300.365 123.944,300.365 119.737 L 300.365 116.289 298.036 116.289 L 295.708 116.289 295.626 120.015 L 295.544 123.740 292.773 123.825 C 289.236 123.933,289.262 123.965,289.262 119.594 L 289.262 116.289 286.933 116.289 L 284.605 116.289 284.523 120.015 L 284.441 123.740 281.519 123.740 L 278.598 123.740 278.516 120.015 L 278.434 116.289 274.522 116.289 C 269.308 116.289,269.686 116.566,269.686 112.752 L 269.686 109.569 266.092 109.569 C 261.713 109.569,261.797 109.633,261.797 106.307 C 261.797 103.125,261.774 103.141,266.319 103.141 L 269.710 103.141 269.625 100.877 L 269.540 98.612 265.818 98.530 C 261.478 98.435,261.714 98.656,261.856 94.813 L 261.943 92.476 265.741 92.330 L 269.540 92.184 269.540 89.847 L 269.540 87.509 265.741 87.363 L 261.943 87.217 261.856 84.880 C 261.714 81.037,261.478 81.258,265.818 81.163 L 269.540 81.081 269.686 76.844 L 269.832 72.608 272.973 72.525 L 276.114 72.442 276.114 68.858 C 276.114 64.497,276.057 64.573,279.328 64.573 C 280.893 64.573,281.973 64.705,282.191 64.923 M196.640 171.513 L 196.640 173.851 271.658 173.777 L 346.676 173.703 346.762 171.439 L 346.847 169.175 271.743 169.175 L 196.640 169.175 196.640 171.513 M119.211 192.818 C 119.211 193.979,119.536 194.302,120.703 194.302 C 121.939 194.302,122.464 192.851,121.379 192.434 C 120.346 192.038,119.211 192.239,119.211 192.818 M145.433 192.972 C 145.548 193.575,145.761 193.701,146.781 193.776 C 147.911 193.858,147.997 193.927,148.083 194.814 C 148.242 196.463,150.475 196.258,150.475 194.595 L 150.475 193.426 149.306 193.426 C 148.502 193.426,148.137 193.299,148.137 193.019 C 148.137 192.514,147.503 192.257,146.255 192.257 C 145.396 192.257,145.311 192.331,145.433 192.972 M196.640 195.763 L 196.640 198.101 272.169 198.101 L 347.699 198.101 347.699 195.763 L 347.699 193.426 272.169 193.426 L 196.640 193.426 196.640 195.763 M91.858 198.230 C 91.495 199.176,91.877 199.706,92.990 199.798 C 94.065 199.888,94.083 199.872,94.083 198.849 C 94.083 197.719,92.250 197.209,91.858 198.230 M104.288 197.882 C 104.000 198.851,104.081 199.270,104.555 199.270 C 105.272 199.270,105.444 199.053,105.267 198.376 C 105.150 197.930,104.388 197.545,104.288 197.882 M150.326 198.758 C 150.229 199.280,150.190 200.760,150.239 202.045 L 150.329 204.383 151.424 204.473 L 152.520 204.564 152.520 201.186 L 152.520 197.809 151.511 197.809 C 150.603 197.809,150.484 197.904,150.326 198.758 M135.406 199.074 C 135.324 199.287,135.295 200.635,135.342 202.068 L 135.427 204.675 138.553 204.758 C 141.408 204.833,141.705 204.791,141.986 204.266 C 142.155 203.950,142.655 203.650,143.097 203.599 C 143.874 203.509,143.901 203.448,143.901 201.753 C 143.901 200.058,143.874 199.997,143.097 199.908 C 142.655 199.857,142.157 199.561,141.991 199.250 C 141.608 198.535,135.674 198.376,135.406 199.074 M110.566 202.337 C 110.289 203.439,110.657 204.529,111.304 204.529 C 111.933 204.529,112.367 203.181,112.055 202.198 C 111.785 201.349,110.790 201.442,110.566 202.337 M94.083 204.091 C 94.083 204.748,94.200 204.821,95.252 204.821 C 96.304 204.821,96.421 204.748,96.421 204.091 C 96.421 203.433,96.304 203.360,95.252 203.360 C 94.200 203.360,94.083 203.433,94.083 204.091 M108.400 206.574 L 108.400 207.743 109.569 207.743 L 110.738 207.743 110.738 206.574 L 110.738 205.405 109.569 205.405 L 108.400 205.405 108.400 206.574 M99.715 207.451 C 99.678 207.944,99.851 208.035,100.822 208.035 C 101.777 208.035,101.972 207.936,101.972 207.451 C 101.972 206.969,101.777 206.866,100.866 206.866 C 99.969 206.866,99.751 206.977,99.715 207.451 M152.464 210.446 C 152.367 210.744,152.389 217.159,152.492 218.481 C 152.509 218.707,152.964 218.846,153.689 218.846 L 154.858 218.846 154.858 214.463 L 154.858 210.080 153.720 210.080 C 153.068 210.080,152.532 210.236,152.464 210.446 M106.355 212.126 C 106.355 213.267,106.379 213.294,107.378 213.294 C 108.376 213.294,108.400 213.267,108.400 212.126 C 108.400 210.985,108.376 210.957,107.378 210.957 C 106.379 210.957,106.355 210.985,106.355 212.126 M135.281 214.463 L 135.281 217.969 139.664 217.969 L 144.047 217.969 144.047 217.129 C 144.047 216.666,144.244 216.124,144.485 215.924 C 144.732 215.719,144.923 215.082,144.923 214.463 C 144.923 213.844,144.732 213.207,144.485 213.002 C 144.244 212.802,144.047 212.260,144.047 211.798 L 144.047 210.957 139.664 210.957 L 135.281 210.957 135.281 214.463 M105.014 216.654 C 104.732 217.777,105.104 218.846,105.776 218.846 C 106.276 218.846,106.355 218.646,106.355 217.385 C 106.355 215.718,105.382 215.188,105.014 216.654 M196.640 218.846 L 196.640 221.183 272.169 221.183 L 347.699 221.183 347.699 218.846 L 347.699 216.508 272.169 216.508 L 196.640 216.508 196.640 218.846 M90.869 219.284 C 90.869 219.942,90.986 220.015,92.038 220.015 C 93.090 220.015,93.207 219.942,93.207 219.284 C 93.207 218.627,93.090 218.554,92.038 218.554 C 90.986 218.554,90.869 218.627,90.869 219.284 M102.849 220.891 L 102.849 222.060 104.018 222.060 L 105.186 222.060 105.186 220.891 L 105.186 219.722 104.018 219.722 L 102.849 219.722 102.849 220.891 M119.503 222.498 C 119.503 223.156,119.620 223.229,120.672 223.229 C 121.724 223.229,121.841 223.156,121.841 222.498 C 121.841 221.841,121.724 221.768,120.672 221.768 C 119.620 221.768,119.503 221.841,119.503 222.498 M145.508 222.644 C 145.508 223.142,145.702 223.229,146.822 223.229 C 147.943 223.229,148.137 223.142,148.137 222.644 C 148.137 222.146,147.943 222.060,146.822 222.060 C 145.702 222.060,145.508 222.146,145.508 222.644 M196.640 240.906 L 196.640 243.389 272.169 243.389 L 347.699 243.389 347.699 240.906 L 347.699 238.422 272.169 238.422 L 196.640 238.422 196.640 240.906 " stroke="none" fill="#ccf4fb" fill-rule="evenodd"></path><path id="path1" d="M77.271 40.102 C 77.195 40.303,77.166 54.865,77.207 72.462 L 77.283 104.456 82.104 104.456 L 86.925 104.456 87.005 72.754 C 87.049 55.318,87.014 40.756,86.926 40.394 C 86.737 39.610,77.565 39.332,77.271 40.102 M115.030 39.925 C 114.919 40.036,114.828 64.564,114.828 94.431 L 114.828 148.736 119.576 148.656 L 124.324 148.576 124.324 94.229 L 124.324 39.883 119.778 39.803 C 117.278 39.759,115.141 39.814,115.030 39.925 M152.430 39.925 C 152.319 40.036,152.228 64.564,152.228 94.431 L 152.228 148.736 156.976 148.656 L 161.724 148.576 161.724 94.229 L 161.724 39.883 157.178 39.803 C 154.677 39.759,152.541 39.814,152.430 39.925 M86.707 72.243 L 86.781 104.310 82.105 104.310 L 77.429 104.310 77.429 72.364 C 77.429 54.794,77.520 40.328,77.631 40.217 C 77.742 40.106,79.813 40.051,82.233 40.095 L 86.633 40.175 86.707 72.243 M124.178 94.229 L 124.178 148.430 119.649 148.430 L 115.121 148.430 115.121 94.229 L 115.121 40.029 119.649 40.029 L 124.178 40.029 124.178 94.229 M161.578 94.229 L 161.578 148.430 157.049 148.430 L 152.520 148.430 152.520 94.229 L 152.520 40.029 157.049 40.029 L 161.578 40.029 161.578 94.229 M249.165 43.535 C 248.945 43.887,248.484 44.120,248.004 44.120 C 247.507 44.120,247.091 44.339,246.896 44.704 C 246.717 45.038,246.284 45.289,245.886 45.289 C 244.924 45.289,240.175 50.077,240.175 51.047 C 240.175 51.425,239.978 51.811,239.737 51.903 C 239.496 51.996,239.299 52.387,239.299 52.773 C 239.299 53.159,239.036 53.701,238.714 53.976 C 238.135 54.472,238.130 54.838,238.130 95.977 C 238.130 137.162,238.134 137.481,238.714 137.843 C 239.144 138.112,239.299 138.524,239.299 139.406 C 239.299 140.817,244.616 146.676,245.896 146.676 C 246.246 146.676,246.695 146.874,246.896 147.115 C 247.096 147.356,247.571 147.553,247.951 147.553 C 248.332 147.553,248.808 147.816,249.009 148.137 C 249.371 148.717,249.690 148.722,290.875 148.722 C 332.014 148.722,332.380 148.717,332.876 148.137 C 333.151 147.816,333.692 147.553,334.078 147.553 C 334.465 147.553,334.856 147.356,334.949 147.115 C 335.041 146.874,335.419 146.676,335.788 146.676 C 337.124 146.676,342.732 140.621,342.732 139.179 C 342.732 138.377,342.879 137.917,343.170 137.805 C 343.557 137.657,343.608 132.744,343.608 96.027 C 343.608 59.398,343.556 54.374,343.170 54.054 C 342.929 53.854,342.732 53.379,342.732 52.998 C 342.732 52.617,342.469 52.142,342.148 51.941 C 341.826 51.740,341.563 51.275,341.563 50.906 C 341.563 49.974,336.882 45.289,335.951 45.289 C 335.580 45.289,335.111 45.026,334.911 44.704 C 334.637 44.266,334.229 44.120,333.279 44.120 C 332.383 44.120,331.857 43.949,331.483 43.535 C 330.959 42.956,330.583 42.951,290.242 42.951 C 249.847 42.951,249.527 42.956,249.165 43.535 M331.442 43.974 C 331.561 44.282,332.041 44.412,333.061 44.412 C 334.255 44.412,334.544 44.515,334.697 44.996 C 334.835 45.431,335.139 45.581,335.885 45.581 C 336.437 45.581,336.888 45.716,336.888 45.881 C 336.888 46.271,339.412 48.795,339.802 48.795 C 339.967 48.795,340.102 49.004,340.102 49.260 C 340.102 49.516,340.365 49.795,340.687 49.879 C 341.123 49.993,341.271 50.277,341.271 51.001 C 341.271 51.713,341.426 52.019,341.855 52.155 C 342.290 52.293,342.440 52.597,342.440 53.343 C 342.440 54.040,342.574 54.346,342.878 54.346 C 343.545 54.346,343.545 137.257,342.878 137.513 C 342.581 137.627,342.440 138.093,342.440 138.961 C 342.440 140.525,337.010 146.384,335.561 146.384 C 335.156 146.384,334.749 146.581,334.656 146.822 C 334.564 147.064,334.250 147.261,333.959 147.261 C 333.118 147.261,332.505 147.582,332.505 148.022 C 332.505 148.789,249.780 148.613,249.301 147.845 C 249.073 147.480,248.619 147.261,248.093 147.261 C 247.613 147.261,247.178 147.072,247.082 146.822 C 246.985 146.569,246.548 146.384,246.048 146.384 C 245.438 146.384,245.127 146.211,244.996 145.800 C 244.894 145.478,244.631 145.215,244.412 145.215 C 244.193 145.215,243.930 144.953,243.828 144.631 C 243.726 144.310,243.454 144.047,243.224 144.047 C 242.993 144.047,242.805 143.858,242.805 143.628 C 242.805 143.398,242.542 143.126,242.221 143.024 C 241.899 142.922,241.636 142.659,241.636 142.440 C 241.636 142.220,241.373 141.957,241.052 141.855 C 240.730 141.753,240.467 141.482,240.467 141.251 C 240.467 141.021,240.270 140.833,240.029 140.833 C 239.698 140.833,239.591 140.476,239.591 139.374 C 239.591 138.232,239.464 137.837,239.007 137.551 C 238.239 137.072,238.063 54.346,238.829 54.346 C 239.264 54.346,239.591 53.736,239.591 52.926 C 239.591 52.654,239.854 52.206,240.175 51.930 C 240.497 51.655,240.760 51.169,240.760 50.849 C 240.760 49.936,245.245 45.581,246.186 45.581 C 246.705 45.581,246.999 45.393,247.103 44.996 C 247.217 44.562,247.502 44.412,248.213 44.412 C 248.795 44.412,249.237 44.240,249.339 43.974 C 249.594 43.307,331.187 43.307,331.442 43.974 M276.465 64.923 C 276.230 65.158,276.114 66.460,276.114 68.858 L 276.114 72.442 272.973 72.525 L 269.832 72.608 269.686 76.844 L 269.540 81.081 265.818 81.163 C 261.478 81.258,261.714 81.037,261.856 84.880 L 261.943 87.217 265.741 87.363 L 269.540 87.509 269.540 89.847 L 269.540 92.184 265.741 92.330 L 261.943 92.476 261.856 94.813 C 261.714 98.656,261.478 98.435,265.818 98.530 L 269.540 98.612 269.625 100.877 L 269.710 103.141 266.319 103.141 C 261.774 103.141,261.797 103.125,261.797 106.307 C 261.797 109.633,261.713 109.569,266.092 109.569 L 269.686 109.569 269.686 112.752 C 269.686 116.566,269.308 116.289,274.522 116.289 L 278.434 116.289 278.516 120.015 L 278.598 123.740 281.519 123.740 L 284.441 123.740 284.523 120.015 L 284.605 116.289 286.933 116.289 L 289.262 116.289 289.262 119.594 C 289.262 123.965,289.236 123.933,292.773 123.825 L 295.544 123.740 295.626 120.015 L 295.708 116.289 298.036 116.289 L 300.365 116.289 300.365 119.737 C 300.365 123.944,300.320 123.886,303.579 123.886 C 306.839 123.886,306.793 123.944,306.793 119.737 L 306.793 116.289 310.611 116.289 C 315.861 116.289,315.559 116.584,315.559 111.458 L 315.559 107.232 319.367 107.232 L 323.176 107.232 323.093 104.237 L 323.009 101.242 319.284 101.160 L 315.559 101.078 315.559 98.749 L 315.559 96.421 318.992 96.416 C 323.387 96.411,323.196 96.568,323.094 93.036 L 323.009 90.139 319.284 90.057 L 315.559 89.975 315.559 87.655 L 315.559 85.335 319.284 85.253 L 323.009 85.172 323.094 82.274 C 323.196 78.744,323.386 78.900,319.002 78.894 L 315.579 78.890 315.496 75.749 L 315.413 72.608 310.007 72.462 L 304.602 72.316 304.519 68.675 C 304.423 64.423,304.544 64.582,301.388 64.582 C 298.231 64.582,298.353 64.423,298.256 68.675 L 298.174 72.316 295.909 72.401 L 293.645 72.486 293.645 69.095 C 293.645 64.550,293.661 64.573,290.479 64.573 C 287.153 64.573,287.217 64.489,287.217 68.868 L 287.217 72.462 284.879 72.462 L 282.542 72.462 282.542 68.868 C 282.542 64.496,282.599 64.573,279.328 64.573 C 277.763 64.573,276.683 64.705,276.465 64.923 M281.912 65.248 C 282.091 65.464,282.267 67.161,282.313 69.120 L 282.396 72.608 284.879 72.608 L 287.363 72.608 287.446 69.120 C 287.549 64.793,287.529 64.819,290.549 64.927 L 292.915 65.011 292.997 68.499 C 293.100 72.826,293.080 72.799,296.100 72.692 L 298.466 72.608 298.549 68.967 C 298.644 64.755,298.562 64.874,301.388 64.874 C 304.214 64.874,304.132 64.755,304.227 68.967 L 304.310 72.608 309.715 72.754 L 315.121 72.900 315.203 76.041 L 315.286 79.182 318.710 79.186 C 323.059 79.192,322.907 79.077,322.802 82.275 L 322.717 84.879 319.065 85.026 L 315.413 85.172 315.413 87.655 L 315.413 90.139 319.065 90.285 L 322.717 90.431 322.802 93.036 C 322.907 96.235,323.062 96.118,318.688 96.124 L 315.244 96.129 315.328 98.685 L 315.413 101.242 319.065 101.388 L 322.717 101.534 322.717 104.164 L 322.717 106.793 319.065 106.939 L 315.413 107.085 315.331 111.156 C 315.228 116.309,315.535 115.997,310.556 115.997 L 306.501 115.997 306.501 119.445 C 306.501 123.603,306.507 123.594,303.579 123.594 C 300.651 123.594,300.657 123.603,300.657 119.445 L 300.657 115.997 298.036 115.997 L 295.416 115.997 295.334 119.722 L 295.252 123.448 292.622 123.448 L 289.993 123.448 289.847 119.795 L 289.701 116.143 287.071 116.143 L 284.441 116.143 284.295 119.795 L 284.149 123.448 281.519 123.448 L 278.890 123.448 278.744 119.795 L 278.598 116.143 274.945 116.072 C 269.574 115.966,270.013 116.273,269.915 112.561 L 269.832 109.423 266.344 109.340 C 262.083 109.239,262.089 109.243,262.089 106.355 C 262.089 103.467,262.083 103.471,266.344 103.370 L 269.832 103.287 269.832 100.804 L 269.832 98.320 266.110 98.238 C 261.797 98.143,261.996 98.316,262.147 94.808 L 262.235 92.768 265.723 92.686 C 269.954 92.585,269.978 92.569,269.978 89.847 C 269.978 87.124,269.954 87.108,265.723 87.008 L 262.235 86.925 262.147 84.886 C 261.996 81.377,261.797 81.550,266.110 81.455 L 269.832 81.373 269.978 77.137 L 270.124 72.900 273.192 72.754 L 276.260 72.608 276.343 69.120 C 276.444 64.859,276.440 64.865,279.328 64.865 C 280.842 64.865,281.700 64.992,281.912 65.248 M275.822 94.227 L 275.822 109.861 292.625 109.861 L 309.428 109.861 309.352 94.302 L 309.277 78.744 292.549 78.668 L 275.822 78.593 275.822 94.227 M196.409 171.438 L 196.494 173.996 271.731 173.996 L 346.969 173.996 346.969 171.512 L 346.969 169.028 271.647 168.955 L 196.325 168.881 196.409 171.438 M346.762 171.439 L 346.676 173.703 271.658 173.777 L 196.640 173.851 196.640 171.513 L 196.640 169.175 271.743 169.175 L 346.847 169.175 346.762 171.439 M119.063 193.572 C 119.141 194.215,119.226 201.183,119.252 209.058 C 119.278 216.932,119.353 223.013,119.420 222.571 C 119.529 221.851,119.662 221.768,120.691 221.768 L 121.841 221.768 121.841 208.035 L 121.841 194.302 120.680 194.302 C 119.627 194.302,119.492 194.214,119.221 193.353 C 118.924 192.410,118.922 192.412,119.063 193.572 M144.923 193.128 C 144.923 193.682,145.234 193.837,146.822 194.075 C 147.191 194.130,147.444 194.431,147.508 194.890 C 147.681 196.136,150.475 197.234,150.475 196.056 C 150.475 195.895,149.957 195.763,149.325 195.763 C 148.240 195.763,148.169 195.709,148.083 194.814 C 147.997 193.922,147.915 193.859,146.749 193.774 C 145.746 193.702,145.508 193.576,145.508 193.117 C 145.508 192.805,145.376 192.549,145.215 192.549 C 145.055 192.549,144.923 192.810,144.923 193.128 M89.476 194.449 L 89.554 196.202 90.796 196.291 L 92.038 196.381 92.038 194.951 L 92.038 193.521 90.964 193.480 C 90.373 193.458,89.779 193.272,89.644 193.068 C 89.500 192.851,89.430 193.426,89.476 194.449 M196.409 195.690 L 196.494 198.247 272.243 198.320 L 347.991 198.394 347.991 195.764 L 347.991 193.134 272.158 193.134 L 196.325 193.134 196.409 195.690 M347.699 195.763 L 347.699 198.101 272.169 198.101 L 196.640 198.101 196.640 195.763 L 196.640 193.426 272.169 193.426 L 347.699 193.426 347.699 195.763 M91.602 198.097 C 91.504 198.256,91.513 199.176,91.623 200.142 L 91.821 201.899 92.952 201.899 C 94.686 201.899,94.718 199.942,92.988 199.798 C 91.964 199.714,91.892 199.645,91.895 198.758 C 91.898 197.726,91.870 197.663,91.602 198.097 M150.085 198.296 C 149.816 198.565,149.839 204.170,150.110 204.337 C 150.230 204.411,150.329 203.038,150.329 201.286 C 150.329 199.534,150.318 198.100,150.304 198.101 C 150.291 198.101,150.192 198.188,150.085 198.296 M134.697 198.651 L 133.674 198.831 133.591 201.785 L 133.509 204.739 134.874 204.926 C 135.625 205.029,137.240 205.088,138.463 205.058 L 140.687 205.003 138.057 204.839 L 135.427 204.675 135.427 201.753 L 135.427 198.831 138.553 198.748 C 141.381 198.674,141.707 198.719,141.978 199.225 C 142.143 199.533,142.669 199.843,143.147 199.913 C 143.625 199.983,143.949 199.933,143.868 199.801 C 143.787 199.669,143.431 199.562,143.077 199.562 C 142.724 199.562,142.270 199.299,142.069 198.977 C 141.689 198.369,137.373 198.178,134.697 198.651 M110.644 199.770 C 110.278 200.361,110.096 204.167,110.423 204.369 C 110.662 204.516,110.705 204.356,110.572 203.823 C 110.286 202.684,110.650 201.607,111.322 201.607 C 111.977 201.607,112.350 202.643,112.077 203.704 C 111.913 204.347,111.920 204.351,112.218 203.778 C 113.047 202.186,111.533 198.331,110.644 199.770 M84.146 211.322 C 84.144 216.665,84.060 221.539,83.958 222.152 L 83.774 223.266 85.057 223.174 L 86.340 223.083 86.418 215.917 L 86.496 208.751 87.660 208.862 C 88.684 208.960,88.824 208.899,88.824 208.358 C 88.824 207.832,88.649 207.743,87.615 207.743 L 86.406 207.743 86.601 205.838 C 86.761 204.274,86.716 203.902,86.349 203.761 C 86.103 203.667,85.902 203.301,85.902 202.949 C 85.902 202.172,85.386 201.607,84.675 201.607 C 84.179 201.607,84.149 202.163,84.146 211.322 M143.097 203.569 C 142.642 203.638,142.160 203.968,141.985 204.329 C 141.705 204.908,141.715 204.920,142.091 204.456 C 142.318 204.175,142.778 203.944,143.112 203.944 C 143.446 203.944,143.801 203.813,143.901 203.652 C 144.000 203.492,144.041 203.380,143.991 203.404 C 143.941 203.428,143.539 203.502,143.097 203.569 M93.834 204.091 C 93.709 206.092,94.115 206.866,95.290 206.866 C 96.387 206.866,96.421 206.836,96.421 205.844 C 96.421 204.848,96.390 204.821,95.272 204.821 C 94.314 204.821,94.103 204.712,93.997 204.164 C 93.888 203.596,93.866 203.586,93.834 204.091 M108.224 205.231 C 108.138 205.457,108.121 206.082,108.187 206.619 L 108.307 207.597 108.354 206.501 C 108.399 205.425,108.422 205.405,109.569 205.405 C 110.212 205.405,110.738 205.274,110.738 205.113 C 110.738 204.648,108.406 204.758,108.224 205.231 M147.898 207.524 C 147.967 208.010,148.219 208.207,148.867 208.281 C 149.841 208.391,150.171 208.748,150.178 209.696 C 150.181 210.173,150.385 210.357,150.986 210.426 C 152.003 210.543,152.409 212.868,152.032 216.418 C 151.798 218.621,151.762 218.703,150.986 218.792 C 150.517 218.846,150.183 219.063,150.183 219.313 C 150.183 219.863,150.873 220.125,151.747 219.905 L 152.434 219.733 152.404 213.811 L 152.374 207.889 151.408 207.796 C 150.876 207.745,150.369 207.515,150.281 207.285 C 149.983 206.510,147.785 206.730,147.898 207.524 M101.972 207.531 C 101.972 207.872,101.631 208.032,100.730 208.113 L 99.489 208.225 100.740 208.276 C 101.926 208.325,102.683 207.772,102.154 207.243 C 102.054 207.143,101.972 207.273,101.972 207.531 M96.323 207.938 C 95.679 208.582,96.140 210.665,96.932 210.687 C 97.374 210.699,97.966 210.753,98.247 210.807 C 98.927 210.937,98.968 208.871,98.299 208.202 C 97.833 207.736,96.679 207.582,96.323 207.938 M106.266 208.822 C 105.915 209.397,105.724 212.939,106.033 213.130 C 106.247 213.262,106.355 212.933,106.355 212.143 C 106.355 210.978,106.374 210.957,107.395 210.957 C 108.915 210.957,108.856 208.824,107.332 208.676 C 106.825 208.627,106.345 208.693,106.266 208.822 M133.729 210.853 C 133.619 210.964,133.528 212.601,133.528 214.491 L 133.528 217.927 135.062 218.111 C 135.906 218.212,138.305 218.255,140.394 218.205 L 144.193 218.115 144.283 217.333 C 144.333 216.903,144.563 216.394,144.795 216.202 C 145.053 215.987,145.215 215.316,145.215 214.463 C 145.215 213.610,145.053 212.939,144.795 212.724 C 144.563 212.532,144.333 212.023,144.283 211.593 L 144.193 210.811 139.062 210.731 C 136.240 210.687,133.840 210.742,133.729 210.853 M144.047 211.798 C 144.047 212.260,144.244 212.802,144.485 213.002 C 144.732 213.207,144.923 213.844,144.923 214.463 C 144.923 215.082,144.732 215.719,144.485 215.924 C 144.244 216.124,144.047 216.666,144.047 217.129 L 144.047 217.969 139.664 217.969 L 135.281 217.969 135.281 214.463 L 135.281 210.957 139.664 210.957 L 144.047 210.957 144.047 211.798 M89.028 213.188 C 88.475 213.740,88.863 214.346,89.811 214.410 C 90.587 214.462,90.831 214.350,90.952 213.885 C 91.066 213.452,90.965 213.294,90.574 213.294 C 90.280 213.294,89.859 213.225,89.636 213.139 C 89.414 213.054,89.140 213.076,89.028 213.188 M105.092 213.995 C 104.708 214.997,104.544 218.483,104.872 218.686 C 105.110 218.833,105.154 218.673,105.020 218.140 C 104.733 216.996,105.099 215.924,105.776 215.924 C 106.257 215.924,106.355 215.725,106.355 214.755 C 106.355 213.553,105.467 213.018,105.092 213.995 M196.348 218.846 L 196.348 221.476 272.169 221.476 L 347.991 221.476 347.991 218.846 L 347.991 216.216 272.169 216.216 L 196.348 216.216 196.348 218.846 M347.699 218.846 L 347.699 221.183 272.169 221.183 L 196.640 221.183 196.640 218.846 L 196.640 216.508 272.169 216.508 L 347.699 216.508 347.699 218.846 M91.161 218.262 C 90.840 218.469,91.056 218.546,91.965 218.549 C 92.927 218.553,93.207 218.663,93.207 219.041 C 93.207 219.308,93.284 219.450,93.379 219.355 C 94.223 218.511,92.267 217.547,91.161 218.262 M102.673 219.549 C 102.586 219.774,102.569 220.399,102.635 220.936 L 102.755 221.914 102.802 220.818 C 102.848 219.742,102.870 219.722,104.018 219.722 C 104.660 219.722,105.186 219.591,105.186 219.430 C 105.186 218.965,102.855 219.075,102.673 219.549 M145.289 221.961 C 144.856 222.136,144.793 223.229,145.215 223.229 C 145.376 223.229,145.508 222.973,145.508 222.660 C 145.508 222.192,145.753 222.073,146.896 221.982 L 148.283 221.873 146.969 221.843 C 146.245 221.827,145.489 221.880,145.289 221.961 M196.472 238.521 C 196.389 238.736,196.360 239.952,196.408 241.224 L 196.494 243.535 272.169 243.535 L 347.845 243.535 347.845 240.906 L 347.845 238.276 272.234 238.203 C 209.246 238.141,196.597 238.194,196.472 238.521 M347.699 240.906 L 347.699 243.389 272.169 243.389 L 196.640 243.389 196.640 240.906 L 196.640 238.422 272.169 238.422 L 347.699 238.422 347.699 240.906 " stroke="none" fill="#8ddefb" fill-rule="evenodd"></path><path id="path2" d="M22.498 142.732 L 22.498 266.180 200.000 266.180 L 377.502 266.180 377.502 142.732 L 377.502 19.284 200.000 19.284 L 22.498 19.284 22.498 142.732 M370.782 142.878 L 370.782 259.752 200.000 259.752 L 29.218 259.752 29.218 142.878 L 29.218 26.004 200.000 26.004 L 370.782 26.004 370.782 142.878 M36.900 34.186 C 36.816 34.507,36.565 34.770,36.343 34.770 C 36.048 34.770,35.939 35.203,35.939 36.377 C 35.939 37.789,35.868 37.984,35.354 37.984 C 34.965 37.984,34.770 38.179,34.770 38.568 C 34.770 39.044,34.575 39.153,33.720 39.153 C 32.916 39.153,32.634 39.289,32.517 39.737 C 32.433 40.058,32.182 40.321,31.960 40.321 C 31.510 40.321,31.519 40.277,31.519 42.513 C 31.519 44.749,31.510 44.704,31.960 44.704 C 32.182 44.704,32.433 44.967,32.517 45.289 C 32.634 45.736,32.916 45.873,33.720 45.873 C 34.458 45.873,34.770 46.003,34.770 46.311 C 34.770 46.555,35.030 46.749,35.354 46.749 C 35.937 46.749,35.939 46.944,35.939 141.125 C 35.939 224.819,35.988 235.500,36.377 235.500 C 36.618 235.500,36.815 235.698,36.815 235.939 C 36.815 236.255,37.140 236.377,37.984 236.377 C 38.958 236.377,39.153 236.474,39.153 236.961 C 39.153 237.437,38.958 237.546,38.103 237.546 C 37.298 237.546,37.017 237.682,36.900 238.130 C 36.816 238.451,36.565 238.714,36.343 238.714 C 36.035 238.714,35.939 239.235,35.939 240.906 C 35.939 242.577,36.035 243.097,36.343 243.097 C 36.565 243.097,36.816 243.360,36.900 243.682 C 37.017 244.129,37.298 244.266,38.103 244.266 L 39.153 244.266 39.153 246.457 C 39.153 248.454,39.205 248.649,39.737 248.649 C 40.127 248.649,40.321 248.843,40.321 249.233 C 40.321 250.123,44.387 250.123,44.620 249.233 C 44.704 248.912,44.954 248.649,45.177 248.649 C 45.634 248.649,45.643 248.595,45.584 246.092 L 45.540 244.266 46.729 244.266 C 47.723 244.266,47.918 244.170,47.918 243.682 C 47.918 243.292,48.113 243.097,48.503 243.097 C 49.035 243.097,49.087 242.902,49.087 240.906 C 49.087 238.909,49.035 238.714,48.503 238.714 C 48.113 238.714,47.918 238.520,47.918 238.130 C 47.918 237.641,47.723 237.546,46.729 237.546 L 45.540 237.546 45.584 235.720 C 45.643 233.202,45.636 233.163,45.142 233.163 C 44.899 233.163,44.704 232.903,44.704 232.579 C 44.704 232.092,44.509 231.994,43.536 231.994 L 42.369 231.994 42.295 141.052 C 42.213 40.325,42.167 46.749,42.966 46.749 C 43.279 46.749,43.535 46.552,43.535 46.311 C 43.535 46.005,43.844 45.873,44.558 45.873 C 45.487 45.873,45.731 45.654,45.615 44.923 C 45.596 44.803,45.844 44.704,46.165 44.704 C 46.698 44.704,46.749 44.509,46.749 42.513 C 46.749 40.516,46.698 40.321,46.165 40.321 C 45.844 40.321,45.596 40.223,45.615 40.102 C 45.731 39.371,45.487 39.153,44.558 39.153 C 43.730 39.153,43.535 39.041,43.535 38.568 C 43.535 38.179,43.341 37.984,42.951 37.984 C 42.438 37.984,42.367 37.789,42.367 36.377 C 42.367 34.965,42.296 34.770,41.782 34.770 C 41.393 34.770,41.198 34.575,41.198 34.186 C 41.198 33.656,41.003 33.601,39.125 33.601 C 37.298 33.601,37.035 33.670,36.900 34.186 M71.001 72.169 L 71.001 110.745 82.031 110.668 L 93.061 110.592 93.061 72.169 L 93.061 33.747 82.031 33.671 L 71.001 33.594 71.001 72.169 M108.692 33.893 C 108.691 34.054,108.691 61.205,108.691 94.229 C 108.691 127.253,108.691 154.405,108.692 154.565 C 108.692 154.755,112.540 154.858,119.649 154.858 L 130.606 154.858 130.606 94.229 L 130.606 33.601 119.649 33.601 C 112.540 33.601,108.692 33.704,108.692 33.893 M146.092 94.229 L 146.092 154.858 157.049 154.858 L 168.006 154.858 168.006 94.229 L 168.006 33.601 157.049 33.601 L 146.092 33.601 146.092 94.229 M247.565 37.400 C 247.435 37.894,247.166 37.984,245.811 37.984 C 244.457 37.984,244.188 38.074,244.058 38.568 C 243.944 39.007,243.660 39.153,242.917 39.153 C 242.123 39.153,241.928 39.268,241.928 39.737 C 241.928 40.127,241.734 40.321,241.344 40.321 C 240.954 40.321,240.760 40.516,240.760 40.906 C 240.760 41.295,240.565 41.490,240.175 41.490 C 239.851 41.490,239.591 41.685,239.591 41.928 C 239.591 42.235,239.283 42.367,238.568 42.367 C 237.570 42.367,237.546 42.395,237.546 43.535 C 237.546 44.509,237.448 44.704,236.961 44.704 C 236.572 44.704,236.377 44.899,236.377 45.289 C 236.377 45.678,236.182 45.873,235.793 45.873 C 235.471 45.873,235.208 46.055,235.208 46.277 C 235.208 46.499,234.945 46.750,234.624 46.834 C 234.176 46.951,234.039 47.233,234.039 48.037 C 234.039 48.775,233.909 49.087,233.601 49.087 C 233.265 49.087,233.163 49.460,233.163 50.694 C 233.163 52.106,233.092 52.301,232.579 52.301 C 231.997 52.301,231.994 52.496,231.994 95.836 C 231.994 139.177,231.997 139.372,232.579 139.372 C 233.098 139.372,233.163 139.567,233.163 141.125 C 233.163 142.488,233.260 142.878,233.601 142.878 C 233.896 142.878,234.039 143.173,234.039 143.782 C 234.039 144.440,234.198 144.727,234.624 144.839 C 234.947 144.923,235.208 145.237,235.208 145.542 C 235.208 145.897,235.415 146.092,235.793 146.092 C 236.263 146.092,236.377 146.287,236.377 147.095 C 236.377 147.841,236.526 148.145,236.961 148.283 C 237.283 148.385,237.546 148.657,237.546 148.887 C 237.546 149.171,237.875 149.306,238.568 149.306 C 239.309 149.306,239.591 149.434,239.591 149.772 C 239.591 150.028,239.854 150.306,240.175 150.390 C 240.499 150.475,240.760 150.789,240.760 151.093 C 240.760 151.449,240.967 151.644,241.344 151.644 C 241.734 151.644,241.928 151.838,241.928 152.228 C 241.928 152.697,242.123 152.812,242.920 152.812 C 243.531 152.812,243.976 152.980,244.079 153.251 C 244.201 153.567,244.697 153.689,245.864 153.689 C 247.285 153.689,247.480 153.759,247.480 154.273 C 247.480 154.855,247.675 154.858,290.431 154.858 C 333.187 154.858,333.382 154.855,333.382 154.273 C 333.382 153.741,333.577 153.689,335.573 153.689 C 337.327 153.689,337.765 153.601,337.765 153.251 C 337.765 153.007,338.025 152.812,338.349 152.812 C 338.739 152.812,338.934 152.617,338.934 152.228 C 338.934 151.755,339.128 151.644,339.956 151.644 C 340.784 151.644,340.979 151.532,340.979 151.059 C 340.979 150.670,341.174 150.475,341.563 150.475 C 341.953 150.475,342.148 150.280,342.148 149.890 C 342.148 149.403,342.342 149.306,343.316 149.306 C 343.959 149.306,344.469 149.207,344.450 149.087 C 344.307 148.178,344.544 147.261,344.923 147.261 C 345.167 147.261,345.362 147.001,345.362 146.676 C 345.362 146.287,345.556 146.092,345.946 146.092 C 346.336 146.092,346.530 145.897,346.530 145.508 C 346.530 145.118,346.725 144.923,347.115 144.923 C 347.584 144.923,347.699 144.729,347.699 143.935 C 347.699 143.192,347.844 142.908,348.283 142.793 C 348.780 142.664,348.868 142.395,348.868 141.006 C 348.868 139.748,348.969 139.372,349.306 139.372 C 349.694 139.372,349.744 134.340,349.744 95.836 C 349.744 57.333,349.694 52.301,349.306 52.301 C 348.974 52.301,348.868 51.941,348.868 50.813 C 348.868 49.570,348.771 49.299,348.283 49.172 C 347.826 49.052,347.699 48.773,347.699 47.884 C 347.699 46.944,347.599 46.749,347.115 46.749 C 346.790 46.749,346.530 46.555,346.530 46.311 C 346.530 46.068,346.271 45.873,345.946 45.873 C 345.556 45.873,345.362 45.678,345.362 45.289 C 345.362 44.967,345.173 44.704,344.943 44.704 C 344.713 44.704,344.441 44.441,344.339 44.120 C 344.237 43.798,343.965 43.535,343.735 43.535 C 343.505 43.535,343.316 43.326,343.316 43.070 C 343.316 42.814,343.053 42.535,342.732 42.451 C 342.411 42.367,342.148 42.117,342.148 41.894 C 342.148 41.672,341.885 41.490,341.563 41.490 C 341.174 41.490,340.979 41.295,340.979 40.906 C 340.979 40.433,340.784 40.321,339.956 40.321 C 339.128 40.321,338.934 40.210,338.934 39.737 C 338.934 39.250,338.739 39.153,337.765 39.153 C 336.791 39.153,336.596 39.055,336.596 38.568 C 336.596 38.055,336.401 37.984,334.989 37.984 C 333.577 37.984,333.382 37.913,333.382 37.400 C 333.382 36.818,333.187 36.815,290.550 36.815 C 247.963 36.815,247.717 36.819,247.565 37.400 M87.291 72.151 C 87.350 98.007,87.290 104.760,86.999 104.945 C 86.573 105.215,77.993 105.272,77.307 105.009 C 76.820 104.822,76.562 40.117,77.046 39.633 C 77.157 39.522,79.490 39.467,82.232 39.511 L 87.217 39.591 87.291 72.151 M124.763 94.198 C 124.763 143.856,124.720 148.968,124.300 149.129 C 123.397 149.476,114.964 149.325,114.595 148.955 C 114.212 148.573,114.057 40.021,114.439 39.640 C 114.546 39.533,116.913 39.445,119.698 39.445 L 124.763 39.445 124.763 94.198 M162.277 39.907 C 162.647 40.870,162.476 148.584,162.104 148.955 C 161.612 149.447,152.486 149.447,151.994 148.955 C 151.611 148.573,151.457 40.021,151.838 39.640 C 152.303 39.175,162.092 39.426,162.277 39.907 M331.921 43.243 C 332.168 43.704,332.533 43.828,333.653 43.828 C 334.645 43.828,335.123 43.960,335.241 44.266 C 335.333 44.507,335.665 44.704,335.979 44.704 C 336.846 44.704,337.473 45.016,337.473 45.446 C 337.473 45.659,337.736 45.917,338.057 46.019 C 338.378 46.121,338.641 46.321,338.641 46.464 C 338.641 46.801,340.051 48.210,340.388 48.210 C 340.531 48.210,340.731 48.473,340.833 48.795 C 340.935 49.116,341.207 49.379,341.437 49.379 C 341.718 49.379,341.855 49.704,341.855 50.368 C 341.855 51.111,342.001 51.394,342.440 51.509 C 342.863 51.620,343.024 51.908,343.024 52.555 C 343.024 53.150,343.220 53.554,343.608 53.762 C 344.189 54.072,344.193 54.374,344.193 95.677 C 344.193 137.449,344.179 138.203,343.431 138.203 C 343.143 138.203,343.024 138.590,343.024 139.528 C 343.024 141.080,337.654 146.969,336.238 146.969 C 335.870 146.969,335.404 147.232,335.203 147.553 C 334.970 147.926,334.522 148.137,333.964 148.137 C 333.412 148.137,333.090 148.287,333.090 148.544 C 333.090 149.293,332.336 149.306,290.702 149.306 C 249.554 149.306,249.235 149.302,248.873 148.722 C 248.653 148.370,248.192 148.137,247.712 148.137 C 247.215 148.137,246.799 147.918,246.603 147.553 C 246.420 147.211,245.992 146.969,245.569 146.969 C 244.154 146.969,238.714 141.116,238.714 139.593 C 238.714 138.660,238.566 138.251,238.130 137.979 C 237.550 137.617,237.546 137.297,237.546 96.150 C 237.546 54.516,237.559 53.762,238.307 53.762 C 238.565 53.762,238.714 53.440,238.714 52.888 C 238.714 52.330,238.926 51.882,239.299 51.649 C 239.620 51.448,239.883 50.980,239.883 50.609 C 239.883 49.614,244.850 44.704,245.856 44.704 C 246.326 44.704,246.603 44.541,246.603 44.266 C 246.603 43.963,246.908 43.828,247.592 43.828 C 248.335 43.828,248.618 43.682,248.733 43.243 C 248.885 42.662,249.132 42.659,290.247 42.659 C 331.309 42.659,331.611 42.663,331.921 43.243 M47.918 54.054 C 47.918 54.444,47.723 54.638,47.334 54.638 C 46.751 54.638,46.749 54.833,46.749 143.782 C 46.749 232.680,46.751 232.926,47.334 233.078 C 47.657 233.163,47.918 233.477,47.918 233.781 C 47.918 234.271,48.158 234.332,50.110 234.332 C 52.106 234.332,52.301 234.280,52.301 233.747 C 52.301 233.358,52.496 233.163,52.885 233.163 C 53.468 233.163,53.470 232.968,53.470 143.901 C 53.470 54.833,53.468 54.638,52.885 54.638 C 52.496 54.638,52.301 54.444,52.301 54.054 C 52.301 53.522,52.106 53.470,50.110 53.470 C 48.113 53.470,47.918 53.522,47.918 54.054 M276.926 69.175 L 276.844 72.900 273.630 73.046 L 270.416 73.192 270.336 77.470 C 270.241 82.502,270.640 82.094,265.814 82.100 L 262.673 82.104 262.673 84.432 L 262.673 86.761 266.399 86.843 L 270.124 86.925 270.124 89.847 L 270.124 92.768 266.399 92.850 L 262.673 92.932 262.673 95.398 L 262.673 97.864 266.399 97.946 L 270.124 98.028 270.124 100.950 L 270.124 103.871 266.399 103.953 L 262.673 104.035 262.673 106.364 L 262.673 108.692 266.010 108.692 C 270.568 108.692,270.270 108.446,270.270 112.222 L 270.270 115.397 274.580 115.478 L 278.890 115.559 278.971 119.284 L 279.053 123.009 281.519 123.009 L 283.985 123.009 284.067 119.284 L 284.149 115.559 287.071 115.559 L 289.993 115.559 290.074 119.284 L 290.156 123.009 292.485 123.009 L 294.814 123.009 294.814 119.776 C 294.814 115.373,294.783 115.413,298.153 115.413 C 301.424 115.413,301.242 115.161,301.242 119.673 L 301.242 123.009 303.579 123.009 L 305.917 123.009 305.917 119.673 C 305.917 115.040,305.518 115.413,310.477 115.413 L 314.682 115.413 314.687 111.395 C 314.692 106.335,314.396 106.683,318.784 106.584 L 322.425 106.501 322.425 104.164 L 322.425 101.826 318.784 101.744 C 314.531 101.647,314.693 101.771,314.687 98.598 C 314.681 95.509,314.631 95.544,318.977 95.544 L 322.571 95.544 322.571 93.207 L 322.571 90.869 318.977 90.869 C 314.606 90.869,314.682 90.927,314.682 87.655 C 314.682 84.384,314.606 84.441,318.977 84.441 L 322.571 84.441 322.571 82.104 L 322.571 79.766 318.977 79.766 C 314.538 79.766,314.682 79.891,314.682 76.062 L 314.682 73.059 309.350 72.980 L 304.018 72.900 303.936 69.175 L 303.854 65.449 301.388 65.449 L 298.922 65.449 298.840 69.175 L 298.758 72.900 295.836 72.900 L 292.915 72.900 292.833 69.175 L 292.751 65.449 290.422 65.449 L 288.093 65.449 288.089 68.882 C 288.083 73.277,288.240 73.087,284.709 72.984 L 281.812 72.900 281.730 69.175 L 281.648 65.449 279.328 65.449 L 277.008 65.449 276.926 69.175 M309.657 78.364 C 310.064 78.771,310.168 109.447,309.765 110.083 C 309.581 110.373,305.923 110.434,292.458 110.375 L 275.383 110.299 275.308 94.522 C 275.266 85.844,275.295 78.579,275.371 78.378 C 275.571 77.858,309.137 77.844,309.657 78.364 M349.829 162.162 C 349.677 162.745,349.430 162.747,273.158 162.747 C 205.337 162.747,196.640 162.796,196.640 163.185 C 196.640 163.548,196.088 163.623,193.426 163.623 L 190.212 163.623 190.212 206.136 L 190.212 248.649 194.595 248.649 C 198.783 248.649,198.977 248.675,198.977 249.233 C 198.977 249.816,199.172 249.817,276.552 249.817 C 353.932 249.817,354.127 249.816,354.127 249.233 C 354.127 248.843,354.322 248.649,354.711 248.649 C 355.293 248.649,355.296 248.454,355.296 205.698 C 355.296 162.941,355.293 162.747,354.711 162.747 C 354.322 162.747,354.127 162.552,354.127 162.162 C 354.127 161.633,353.932 161.578,352.054 161.578 C 350.228 161.578,349.964 161.647,349.829 162.162 M347.346 171.215 C 347.418 173.569,347.354 174.042,346.925 174.356 C 346.262 174.840,197.232 174.907,196.328 174.424 C 195.635 174.053,195.457 168.763,196.129 168.491 C 196.329 168.410,230.416 168.366,271.877 168.394 L 347.261 168.444 347.346 171.215 M348.868 183.638 L 348.868 186.998 272.754 186.998 L 196.640 186.998 196.640 183.638 L 196.640 180.278 272.754 180.278 L 348.868 180.278 348.868 183.638 M79.657 193.462 C 79.556 193.965,79.474 200.867,79.474 208.802 L 79.474 223.229 81.519 223.229 L 83.565 223.229 83.565 211.305 C 83.565 198.389,83.599 198.096,85.053 198.504 C 86.370 198.873,87.100 200.224,87.282 202.630 C 87.431 204.608,87.507 204.821,88.063 204.826 C 89.364 204.835,90.168 207.307,89.260 208.506 C 88.423 209.611,88.698 210.373,89.934 210.373 C 90.545 210.373,91.202 210.530,91.395 210.723 C 91.922 211.250,91.852 214.148,91.308 214.357 C 90.122 214.813,90.825 215.924,92.299 215.924 C 93.921 215.924,94.083 216.124,94.083 218.120 C 94.083 219.290,94.147 219.399,94.887 219.484 C 95.635 219.570,95.708 219.703,95.950 221.402 L 96.210 223.229 98.194 223.229 C 100.030 223.229,100.186 223.179,100.272 222.571 C 100.337 222.110,100.594 221.887,101.131 221.825 C 101.801 221.747,101.920 221.568,102.081 220.394 C 102.301 218.791,102.682 218.262,103.615 218.262 C 104.284 218.262,104.310 218.181,104.310 216.110 C 104.310 214.400,104.430 213.805,104.894 213.215 C 105.344 212.643,105.478 212.029,105.478 210.556 C 105.478 208.423,105.794 208.035,107.525 208.035 C 108.384 208.035,108.411 208.004,107.951 207.544 C 106.945 206.538,107.820 203.944,109.167 203.944 C 109.834 203.944,109.861 203.862,109.861 201.818 C 109.861 198.990,110.267 198.393,112.191 198.393 C 114.752 198.393,114.536 197.233,114.536 210.988 L 114.536 223.229 116.581 223.229 L 118.627 223.229 118.627 207.889 L 118.627 192.549 114.410 192.549 C 110.260 192.549,110.193 192.560,110.101 193.207 C 110.035 193.670,109.779 193.891,109.233 193.954 C 108.584 194.029,108.434 194.219,108.309 195.123 C 107.982 197.487,107.673 198.220,106.930 198.394 C 106.357 198.527,106.193 198.770,106.130 199.573 C 105.979 201.507,105.809 201.856,104.969 201.953 C 103.999 202.065,103.758 202.881,104.464 203.661 C 105.269 204.550,104.726 206.981,103.696 207.101 C 103.017 207.180,102.912 207.361,102.675 208.854 L 102.411 210.519 101.096 210.665 C 99.626 210.828,99.163 211.696,100.066 212.598 C 100.325 212.858,100.491 213.210,100.434 213.380 C 100.097 214.390,98.071 214.343,97.804 213.320 C 97.710 212.962,97.350 212.720,96.819 212.660 C 95.688 212.530,95.059 209.055,95.982 208.036 C 96.504 207.458,96.493 207.451,95.142 207.451 C 93.646 207.451,93.639 207.443,93.357 205.332 C 93.192 204.101,93.089 203.944,92.449 203.944 C 91.561 203.944,91.489 203.761,91.226 200.863 C 91.026 198.658,90.977 198.535,90.275 198.453 C 89.552 198.368,88.824 196.537,88.824 194.805 C 88.824 194.475,88.593 194.302,88.152 194.302 C 87.346 194.302,86.779 193.795,86.779 193.075 C 86.779 192.598,86.455 192.549,83.309 192.549 L 79.839 192.549 79.657 193.462 M129.039 193.905 C 128.937 194.650,128.853 200.943,128.853 207.889 C 128.853 214.835,128.937 221.127,129.039 221.873 L 129.225 223.229 136.599 223.229 L 143.974 223.229 144.141 222.390 C 144.320 221.497,144.930 221.194,146.567 221.187 C 147.346 221.184,147.506 221.055,147.655 220.307 C 147.800 219.584,147.974 219.430,148.645 219.430 C 149.210 219.430,149.548 219.228,149.748 218.773 C 149.926 218.367,150.343 218.080,150.840 218.023 L 151.644 217.931 151.644 214.444 C 151.644 211.024,151.631 210.957,150.986 210.952 C 150.018 210.946,149.663 210.621,149.552 209.641 C 149.467 208.892,149.315 208.752,148.503 208.674 C 147.787 208.605,147.512 208.412,147.380 207.887 C 147.260 207.409,146.964 207.164,146.430 207.102 C 145.212 206.961,145.290 205.301,146.521 205.161 C 146.997 205.107,147.564 204.811,147.779 204.503 C 147.994 204.196,148.412 203.944,148.707 203.944 C 149.451 203.944,149.598 203.389,149.598 200.592 C 149.598 198.703,149.696 198.126,150.037 197.995 C 151.097 197.588,150.524 196.640,149.218 196.640 C 147.826 196.640,147.261 196.256,147.261 195.309 C 147.261 194.749,146.995 194.634,144.850 194.265 C 142.733 193.900,142.428 193.770,142.346 193.199 C 142.253 192.550,142.250 192.549,135.739 192.549 L 129.225 192.549 129.039 193.905 M348.113 192.727 C 348.874 193.019,348.783 198.261,348.010 198.675 C 347.220 199.098,197.119 199.098,196.328 198.675 C 195.651 198.312,195.474 193.540,196.114 192.900 C 196.486 192.528,347.148 192.356,348.113 192.727 M144.016 198.804 C 144.930 199.630,144.930 203.876,144.017 204.703 C 143.251 205.396,134.136 205.739,133.369 205.103 C 132.807 204.636,132.756 198.994,133.309 198.428 C 133.954 197.767,143.231 198.093,144.016 198.804 M348.868 207.305 L 348.868 210.080 272.754 210.080 L 196.640 210.080 196.640 207.305 L 196.640 204.529 272.754 204.529 L 348.868 204.529 348.868 207.305 M145.085 210.700 C 146.541 212.159,145.836 218.011,144.136 218.572 C 142.602 219.079,133.568 218.794,133.209 218.228 C 132.898 217.737,132.864 211.242,133.170 210.762 C 133.683 209.955,144.286 209.900,145.085 210.700 M348.225 215.982 C 348.443 216.201,348.576 217.281,348.576 218.846 C 348.576 220.411,348.443 221.491,348.225 221.709 C 347.714 222.220,196.625 222.220,196.114 221.709 C 195.896 221.491,195.763 220.411,195.763 218.846 C 195.763 217.281,195.896 216.201,196.114 215.982 C 196.625 215.472,347.714 215.472,348.225 215.982 M348.868 229.218 L 348.868 231.994 272.754 231.994 L 196.640 231.994 196.640 229.218 L 196.640 226.443 272.754 226.443 L 348.868 226.443 348.868 229.218 M348.430 240.906 L 348.430 243.828 272.169 243.828 L 195.909 243.828 195.824 241.221 C 195.777 239.787,195.806 238.440,195.888 238.226 C 196.012 237.903,209.021 237.849,272.234 237.910 L 348.430 237.984 348.430 240.906 " stroke="none" fill="#04a4ec" fill-rule="evenodd"></path><path id="path3" d="M108.544 94.229 C 108.544 127.173,108.578 140.607,108.619 124.082 C 108.661 107.557,108.661 80.603,108.619 64.184 C 108.578 47.765,108.544 61.286,108.544 94.229 M77.195 39.795 C 76.686 40.304,76.686 104.035,77.195 104.543 C 77.438 104.786,78.948 104.894,82.104 104.894 C 85.259 104.894,86.770 104.786,87.012 104.543 C 87.521 104.035,87.521 40.304,87.012 39.795 C 86.770 39.553,85.259 39.445,82.104 39.445 C 78.948 39.445,77.438 39.553,77.195 39.795 M114.671 39.810 C 114.595 40.011,114.566 64.631,114.607 94.522 L 114.682 148.868 119.481 148.948 C 123.125 149.009,124.338 148.939,124.517 148.656 C 124.926 148.011,124.822 40.206,124.412 39.795 C 123.905 39.288,114.864 39.302,114.671 39.810 M152.300 39.686 C 152.009 39.871,151.949 51.006,152.008 94.393 L 152.082 148.868 157.049 148.868 L 162.016 148.868 162.090 94.552 C 162.144 54.649,162.076 40.132,161.835 39.841 C 161.466 39.396,152.974 39.259,152.300 39.686 M86.926 40.394 C 87.014 40.756,87.049 55.318,87.005 72.754 L 86.925 104.456 82.104 104.456 L 77.283 104.456 77.207 72.462 C 77.166 54.865,77.195 40.303,77.271 40.102 C 77.565 39.332,86.737 39.610,86.926 40.394 M124.324 94.229 L 124.324 148.576 119.576 148.656 L 114.828 148.736 114.828 94.431 C 114.828 64.564,114.919 40.036,115.030 39.925 C 115.141 39.814,117.278 39.759,119.778 39.803 L 124.324 39.883 124.324 94.229 M161.724 94.229 L 161.724 148.576 156.976 148.656 L 152.228 148.736 152.228 94.431 C 152.228 64.564,152.319 40.036,152.430 39.925 C 152.541 39.814,154.677 39.759,157.178 39.803 L 161.724 39.883 161.724 94.229 M31.347 42.513 C 31.349 43.316,31.406 43.610,31.473 43.166 C 31.541 42.722,31.539 42.065,31.469 41.705 C 31.400 41.346,31.345 41.709,31.347 42.513 M249.087 43.243 C 248.796 43.565,248.251 43.828,247.875 43.828 C 247.500 43.828,247.028 44.091,246.828 44.412 C 246.627 44.733,246.159 44.996,245.788 44.996 C 244.818 44.996,239.883 49.961,239.883 50.938 C 239.883 51.332,239.686 51.730,239.445 51.822 C 239.204 51.915,239.007 52.303,239.007 52.685 C 239.007 53.067,238.744 53.617,238.422 53.908 C 237.500 54.743,237.500 137.417,238.422 137.911 C 238.870 138.151,239.007 138.523,239.007 139.506 C 239.007 141.020,244.475 146.969,245.867 146.969 C 246.238 146.969,246.617 147.166,246.709 147.407 C 246.807 147.662,247.244 147.845,247.753 147.845 C 248.329 147.845,248.735 148.045,248.941 148.430 C 249.434 149.352,332.109 149.352,332.944 148.430 C 333.235 148.108,333.785 147.845,334.167 147.845 C 334.549 147.845,334.937 147.648,335.029 147.407 C 335.122 147.166,335.515 146.969,335.903 146.969 C 337.229 146.969,343.024 140.821,343.024 139.414 C 343.024 138.758,343.210 138.120,343.462 137.911 C 343.848 137.591,343.901 132.556,343.901 95.832 C 343.901 59.021,343.849 54.097,343.462 53.948 C 343.221 53.856,343.024 53.446,343.024 53.038 C 343.024 52.629,342.761 52.070,342.440 51.795 C 342.118 51.520,341.855 51.040,341.855 50.730 C 341.855 49.949,336.937 44.996,336.162 44.996 C 335.829 44.996,335.332 44.733,335.057 44.412 C 334.711 44.008,334.195 43.828,333.385 43.828 C 332.603 43.828,332.019 43.633,331.629 43.243 C 331.050 42.664,330.655 42.659,290.330 42.659 C 249.987 42.659,249.611 42.664,249.087 43.243 M331.483 43.535 C 331.857 43.949,332.383 44.120,333.279 44.120 C 334.229 44.120,334.637 44.266,334.911 44.704 C 335.111 45.026,335.580 45.289,335.951 45.289 C 336.882 45.289,341.563 49.974,341.563 50.906 C 341.563 51.275,341.826 51.740,342.148 51.941 C 342.469 52.142,342.732 52.617,342.732 52.998 C 342.732 53.379,342.929 53.854,343.170 54.054 C 343.556 54.374,343.608 59.398,343.608 96.027 C 343.608 132.744,343.557 137.657,343.170 137.805 C 342.879 137.917,342.732 138.377,342.732 139.179 C 342.732 140.621,337.124 146.676,335.788 146.676 C 335.419 146.676,335.041 146.874,334.949 147.115 C 334.856 147.356,334.465 147.553,334.078 147.553 C 333.692 147.553,333.151 147.816,332.876 148.137 C 332.380 148.717,332.014 148.722,290.875 148.722 C 249.690 148.722,249.371 148.717,249.009 148.137 C 248.808 147.816,248.332 147.553,247.951 147.553 C 247.571 147.553,247.096 147.356,246.896 147.115 C 246.695 146.874,246.246 146.676,245.896 146.676 C 244.616 146.676,239.299 140.817,239.299 139.406 C 239.299 138.524,239.144 138.112,238.714 137.843 C 238.134 137.481,238.130 137.162,238.130 95.977 C 238.130 54.838,238.135 54.472,238.714 53.976 C 239.036 53.701,239.299 53.159,239.299 52.773 C 239.299 52.387,239.496 51.996,239.737 51.903 C 239.978 51.811,240.175 51.425,240.175 51.047 C 240.175 50.077,244.924 45.289,245.886 45.289 C 246.284 45.289,246.717 45.038,246.896 44.704 C 247.091 44.339,247.507 44.120,248.004 44.120 C 248.484 44.120,248.945 43.887,249.165 43.535 C 249.527 42.956,249.847 42.951,290.242 42.951 C 330.583 42.951,330.959 42.956,331.483 43.535 M276.744 65.248 C 276.565 65.464,276.389 67.161,276.343 69.120 L 276.260 72.608 273.192 72.754 L 270.124 72.900 269.978 77.137 L 269.832 81.373 266.110 81.455 C 261.797 81.550,261.996 81.377,262.147 84.886 L 262.235 86.925 265.723 87.008 C 269.954 87.108,269.978 87.124,269.978 89.847 C 269.978 92.569,269.954 92.585,265.723 92.686 L 262.235 92.768 262.147 94.808 C 261.996 98.316,261.797 98.143,266.110 98.238 L 269.832 98.320 269.832 100.804 L 269.832 103.287 266.344 103.370 C 262.083 103.471,262.089 103.467,262.089 106.355 C 262.089 109.243,262.083 109.239,266.344 109.340 L 269.832 109.423 269.915 112.561 C 270.013 116.273,269.574 115.966,274.945 116.072 L 278.598 116.143 278.744 119.795 L 278.890 123.448 281.519 123.448 L 284.149 123.448 284.295 119.795 L 284.441 116.143 287.071 116.143 L 289.701 116.143 289.847 119.795 L 289.993 123.448 292.622 123.448 L 295.252 123.448 295.334 119.722 L 295.416 115.997 298.036 115.997 L 300.657 115.997 300.657 119.445 C 300.657 123.603,300.651 123.594,303.579 123.594 C 306.507 123.594,306.501 123.603,306.501 119.445 L 306.501 115.997 310.556 115.997 C 315.535 115.997,315.228 116.309,315.331 111.156 L 315.413 107.085 319.065 106.939 L 322.717 106.793 322.717 104.164 L 322.717 101.534 319.065 101.388 L 315.413 101.242 315.328 98.685 L 315.244 96.129 318.688 96.124 C 323.062 96.118,322.907 96.235,322.802 93.036 L 322.717 90.431 319.065 90.285 L 315.413 90.139 315.413 87.655 L 315.413 85.172 319.065 85.026 L 322.717 84.879 322.802 82.275 C 322.907 79.077,323.059 79.192,318.710 79.186 L 315.286 79.182 315.203 76.041 L 315.121 72.900 309.715 72.754 L 304.310 72.608 304.227 68.967 C 304.132 64.755,304.214 64.874,301.388 64.874 C 298.562 64.874,298.644 64.755,298.549 68.967 L 298.466 72.608 296.174 72.694 C 294.617 72.752,293.735 72.658,293.424 72.401 C 293.041 72.086,292.989 72.096,293.110 72.462 C 293.310 73.071,298.074 73.256,298.558 72.673 C 298.747 72.445,298.920 70.811,298.968 68.791 L 299.050 65.303 301.388 65.303 L 303.725 65.303 303.808 68.791 C 303.916 73.350,303.492 73.046,309.741 73.046 L 314.955 73.046 315.038 76.187 L 315.121 79.328 318.773 79.474 L 322.425 79.620 322.509 82.168 L 322.594 84.716 318.857 84.798 L 315.121 84.879 315.121 87.655 L 315.121 90.431 318.857 90.513 L 322.594 90.595 322.509 93.142 L 322.425 95.690 318.773 95.836 L 315.121 95.982 315.035 98.421 C 314.920 101.717,314.873 101.680,319.101 101.680 L 322.571 101.680 322.571 104.164 L 322.571 106.647 319.101 106.647 C 314.791 106.647,315.012 106.391,314.910 111.488 L 314.828 115.559 310.592 115.705 L 306.355 115.851 306.209 119.503 L 306.063 123.156 303.579 123.156 L 301.096 123.156 300.950 119.503 L 300.804 115.851 298.028 115.851 L 295.252 115.851 295.106 119.503 L 294.960 123.156 292.549 123.240 L 290.139 123.325 290.139 119.977 C 290.139 115.454,290.319 115.705,287.071 115.705 C 283.824 115.705,284.003 115.456,284.003 119.965 L 284.003 123.302 281.528 123.302 L 279.053 123.302 278.971 119.576 L 278.890 115.851 274.653 115.705 L 270.416 115.559 270.333 112.591 C 270.231 108.922,270.351 109.024,266.015 108.921 L 262.527 108.839 262.527 106.355 L 262.527 103.871 266.168 103.789 C 270.405 103.693,270.260 103.800,270.266 100.766 C 270.272 97.920,270.271 97.919,266.015 97.818 L 262.527 97.736 262.527 95.398 L 262.527 93.061 266.015 92.978 C 270.279 92.877,270.270 92.883,270.270 89.978 C 270.270 86.815,270.220 86.779,265.855 86.779 L 262.358 86.779 262.443 84.368 L 262.527 81.958 266.015 81.875 C 270.500 81.768,270.270 82.027,270.270 77.101 L 270.270 73.046 273.119 73.042 C 276.855 73.036,276.664 73.250,276.762 68.944 L 276.844 65.303 279.328 65.303 L 281.812 65.303 281.894 68.944 C 281.990 73.181,281.883 73.035,284.917 73.042 C 287.763 73.047,287.764 73.046,287.865 68.791 L 287.947 65.303 290.260 65.217 C 291.902 65.156,292.649 65.240,292.838 65.509 C 293.044 65.801,293.078 65.787,292.986 65.449 C 292.821 64.841,288.339 64.656,287.856 65.237 C 287.666 65.466,287.494 67.098,287.446 69.120 L 287.363 72.608 284.879 72.608 L 282.396 72.608 282.313 69.120 C 282.212 64.859,282.216 64.865,279.328 64.865 C 277.814 64.865,276.956 64.992,276.744 65.248 M275.727 78.498 C 275.249 78.976,275.508 110.083,275.992 110.268 C 277.049 110.674,309.045 110.462,309.390 110.047 C 309.629 109.759,309.699 105.327,309.645 94.050 L 309.569 78.451 292.746 78.376 C 283.494 78.335,275.835 78.389,275.727 78.498 M309.352 94.302 L 309.428 109.861 292.625 109.861 L 275.822 109.861 275.822 94.227 L 275.822 78.593 292.549 78.668 L 309.277 78.744 309.352 94.302 M196.180 168.980 C 196.098 169.194,196.069 170.476,196.116 171.829 L 196.202 174.288 271.408 174.361 C 326.759 174.416,346.720 174.348,347.011 174.106 C 347.421 173.766,347.585 169.978,347.230 169.052 C 346.982 168.407,196.427 168.335,196.180 168.980 M346.969 171.512 L 346.969 173.996 271.731 173.996 L 196.494 173.996 196.409 171.438 L 196.325 168.881 271.647 168.955 L 346.969 169.028 346.969 171.512 M77.777 192.472 C 76.557 192.581,76.521 192.613,76.608 193.517 C 76.775 195.243,79.166 194.954,79.177 193.207 C 79.182 192.558,79.233 192.549,83.106 192.549 C 86.953 192.549,87.032 192.562,87.124 193.207 C 87.194 193.703,87.439 193.886,88.127 193.953 C 89.006 194.038,89.042 194.098,89.213 195.730 C 89.447 197.975,89.638 198.393,90.429 198.393 C 90.997 198.393,91.121 198.586,91.274 199.708 C 91.373 200.431,91.533 201.607,91.630 202.321 C 91.785 203.454,91.906 203.631,92.580 203.709 C 93.280 203.790,93.381 203.963,93.652 205.551 L 93.951 207.305 95.186 207.394 C 95.916 207.448,96.421 207.358,96.421 207.175 C 96.421 207.005,95.912 206.866,95.289 206.866 C 93.983 206.866,93.619 205.863,93.978 203.244 L 94.163 201.899 92.992 201.899 L 91.821 201.899 91.618 200.107 C 91.489 198.961,91.528 198.202,91.727 198.003 C 92.527 197.203,92.082 196.384,90.796 196.291 L 89.554 196.202 89.554 194.449 C 89.554 193.484,89.423 192.599,89.262 192.481 C 88.970 192.266,80.152 192.259,77.777 192.472 M113.440 192.476 C 116.293 192.524,118.653 192.593,118.686 192.629 C 118.718 192.666,118.824 199.598,118.920 208.035 L 119.096 223.375 119.125 207.816 L 119.154 192.257 113.704 192.323 L 108.254 192.389 113.440 192.476 M135.500 192.476 C 143.548 192.553,144.047 192.589,144.047 193.091 C 144.047 193.719,145.180 194.302,146.398 194.302 C 147.075 194.302,147.261 194.432,147.261 194.906 C 147.261 196.204,147.777 196.643,149.243 196.591 C 150.618 196.542,150.618 196.541,149.456 196.423 C 148.038 196.278,147.615 195.959,147.497 194.941 C 147.437 194.424,147.210 194.132,146.822 194.074 C 145.027 193.807,144.858 193.705,144.997 192.974 L 145.134 192.257 136.044 192.326 L 126.954 192.394 135.500 192.476 M196.180 193.231 C 196.098 193.445,196.069 194.727,196.116 196.080 L 196.202 198.539 272.169 198.539 L 348.137 198.539 348.137 195.763 L 348.137 192.988 272.234 192.914 C 209.138 192.853,196.305 192.906,196.180 193.231 M347.991 195.764 L 347.991 198.394 272.243 198.320 L 196.494 198.247 196.409 195.690 L 196.325 193.134 272.158 193.134 L 347.991 193.134 347.991 195.764 M105.381 193.621 C 105.274 193.728,105.186 194.393,105.186 195.098 L 105.186 196.381 106.428 196.291 C 107.767 196.195,108.075 195.666,107.688 194.127 C 107.515 193.436,105.916 193.085,105.381 193.621 M105.321 198.615 C 105.330 199.260,105.205 199.411,104.675 199.392 C 104.296 199.379,104.018 199.542,104.018 199.777 C 104.018 200.050,104.284 200.154,104.821 200.092 C 105.653 199.997,106.146 198.652,105.563 198.069 C 105.420 197.926,105.315 198.164,105.321 198.615 M149.938 198.190 C 149.764 198.399,149.584 199.813,149.537 201.331 C 149.457 203.941,149.417 204.096,148.794 204.184 C 148.432 204.235,148.000 204.531,147.834 204.841 C 147.638 205.208,147.223 205.405,146.647 205.405 C 145.491 205.405,145.468 206.945,146.621 207.108 C 146.993 207.161,147.377 207.424,147.476 207.692 C 147.715 208.340,148.142 208.610,148.941 208.615 C 149.393 208.618,149.598 208.795,149.598 209.180 C 149.598 210.233,149.940 210.665,150.773 210.665 C 151.586 210.665,151.596 210.687,151.782 212.929 C 152.052 216.179,152.234 216.529,152.068 213.478 C 151.906 210.500,151.858 210.373,150.896 210.373 C 150.352 210.373,150.182 210.216,150.178 209.715 C 150.172 208.747,149.846 208.392,148.867 208.281 C 148.046 208.187,147.996 208.109,148.061 207.040 C 148.145 205.657,148.065 205.740,149.390 205.651 C 150.463 205.579,150.924 204.841,150.183 204.383 C 149.756 204.119,149.808 198.593,150.241 198.159 C 150.434 197.966,150.516 197.809,150.423 197.809 C 150.330 197.809,150.112 197.980,149.938 198.190 M134.551 198.361 L 133.382 198.539 133.382 201.748 L 133.382 204.957 134.551 205.164 C 137.257 205.644,141.680 205.446,142.215 204.821 C 142.491 204.500,143.011 204.237,143.371 204.237 C 144.223 204.237,144.631 203.432,144.631 201.753 C 144.631 200.123,144.226 199.270,143.452 199.270 C 143.136 199.270,142.615 199.007,142.294 198.685 C 141.685 198.077,137.557 197.904,134.551 198.361 M142.065 198.948 C 142.279 199.254,142.780 199.550,143.177 199.606 C 144.298 199.764,144.302 203.742,143.182 203.900 C 142.786 203.956,142.322 204.194,142.150 204.429 C 141.753 204.971,138.147 205.269,135.462 204.982 L 133.508 204.772 133.591 201.802 L 133.674 198.831 134.697 198.651 C 137.286 198.193,141.660 198.370,142.065 198.948 M110.499 199.351 C 110.329 199.556,110.098 200.739,109.985 201.980 C 109.794 204.089,109.736 204.237,109.101 204.237 C 108.086 204.237,107.189 207.027,108.035 207.552 C 108.156 207.627,108.254 207.076,108.254 206.328 L 108.254 204.967 109.488 204.878 C 110.589 204.798,110.687 204.732,110.398 204.268 C 109.746 203.225,110.458 199.708,111.320 199.708 C 112.208 199.708,112.811 202.571,112.204 203.903 C 111.912 204.544,111.927 204.584,112.329 204.250 C 112.862 203.807,112.971 200.458,112.481 199.543 C 112.138 198.902,110.966 198.788,110.499 199.351 M84.011 199.615 C 83.937 199.827,83.839 205.254,83.794 211.676 C 83.748 218.098,83.794 222.963,83.895 222.487 C 83.997 222.011,84.095 217.118,84.114 211.614 C 84.147 202.185,84.179 201.607,84.675 201.607 C 85.386 201.607,85.902 202.172,85.902 202.949 C 85.902 203.301,86.103 203.667,86.349 203.761 C 86.716 203.902,86.761 204.274,86.601 205.838 L 86.406 207.743 87.615 207.743 C 88.570 207.743,88.825 207.850,88.828 208.254 C 88.832 208.677,88.879 208.692,89.100 208.343 C 89.555 207.625,88.914 206.866,87.852 206.866 L 86.901 206.866 86.913 204.720 C 86.919 203.539,86.778 202.257,86.599 201.871 C 86.419 201.485,86.154 200.774,86.009 200.292 C 85.723 199.343,84.278 198.853,84.011 199.615 M101.972 204.294 C 101.972 205.053,102.057 205.113,103.124 205.113 C 104.420 205.113,104.648 204.913,104.405 203.986 C 104.121 202.900,101.972 203.172,101.972 204.294 M102.094 207.514 C 102.115 208.095,101.957 208.193,100.877 208.271 C 99.224 208.391,99.279 208.912,100.944 208.912 C 102.292 208.912,103.104 207.881,102.350 207.127 C 102.171 206.948,102.079 207.088,102.094 207.514 M95.934 208.202 C 95.743 208.700,96.020 212.007,96.290 212.443 C 96.381 212.590,96.842 212.710,97.315 212.710 C 97.884 212.710,98.174 212.858,98.174 213.148 C 98.174 213.440,98.466 213.587,99.050 213.587 C 100.090 213.587,100.341 212.471,99.359 212.215 C 99.047 212.133,98.751 211.784,98.702 211.438 C 98.610 210.796,98.536 210.764,96.977 210.701 C 96.077 210.665,96.073 210.658,96.173 209.204 C 96.280 207.669,96.226 207.442,95.934 208.202 M106.939 208.311 L 105.917 208.473 105.625 210.665 C 105.464 211.870,105.182 213.119,104.998 213.440 C 104.813 213.762,104.568 215.044,104.452 216.289 C 104.254 218.411,104.198 218.554,103.555 218.554 C 102.699 218.554,102.264 219.333,102.264 220.872 C 102.264 221.944,102.193 222.060,101.534 222.060 C 100.998 222.060,100.804 222.216,100.804 222.644 C 100.804 223.129,100.998 223.229,101.949 223.229 L 103.094 223.229 102.808 222.192 C 102.224 220.079,102.531 219.303,104.018 219.138 C 104.919 219.038,105.207 218.911,104.933 218.735 C 104.625 218.536,104.580 218.013,104.735 216.440 C 104.983 213.917,105.107 213.587,105.804 213.587 C 106.266 213.587,106.304 213.498,106.032 213.061 C 105.806 212.699,105.783 211.950,105.957 210.651 L 106.210 208.766 107.305 208.766 C 107.908 208.766,108.401 208.675,108.400 208.564 C 108.400 208.213,107.994 208.143,106.939 208.311 M133.587 210.723 C 133.103 211.207,133.103 217.720,133.587 218.203 C 133.832 218.448,135.437 218.554,138.934 218.554 C 144.229 218.554,144.631 218.456,144.631 217.171 C 144.631 216.797,144.828 216.414,145.069 216.322 C 145.391 216.199,145.508 215.692,145.508 214.423 C 145.508 213.154,145.391 212.647,145.069 212.523 C 144.825 212.430,144.631 211.995,144.631 211.541 C 144.631 211.069,144.437 210.653,144.169 210.550 C 143.260 210.201,133.956 210.353,133.587 210.723 M144.283 211.593 C 144.333 212.023,144.563 212.532,144.795 212.724 C 145.053 212.939,145.215 213.610,145.215 214.463 C 145.215 215.316,145.053 215.987,144.795 216.202 C 144.563 216.394,144.333 216.903,144.283 217.333 L 144.193 218.115 140.394 218.205 C 138.305 218.255,135.906 218.212,135.062 218.111 L 133.528 217.927 133.528 214.491 C 133.528 210.261,132.974 210.637,139.062 210.731 L 144.193 210.811 144.283 211.593 M88.824 212.824 C 88.824 213.047,88.988 213.223,89.189 213.216 C 90.751 213.158,91.105 213.303,90.980 213.952 L 90.854 214.609 91.191 213.968 C 91.733 212.937,91.335 212.418,90.002 212.418 C 89.192 212.418,88.824 212.544,88.824 212.824 M196.180 216.313 C 196.098 216.528,196.069 217.810,196.116 219.162 L 196.202 221.622 272.169 221.622 L 348.137 221.622 348.137 218.846 L 348.137 216.070 272.234 215.997 C 209.138 215.935,196.305 215.989,196.180 216.313 M90.869 217.194 C 90.869 218.199,90.877 218.205,91.994 218.055 C 93.228 217.889,93.655 218.356,93.358 219.544 L 93.204 220.161 93.523 219.546 C 94.256 218.136,93.491 216.374,92.103 216.272 C 90.873 216.183,90.869 216.186,90.869 217.194 M151.690 217.166 C 151.649 218.130,151.555 218.262,150.906 218.262 C 150.394 218.262,150.086 218.478,149.898 218.971 C 149.719 219.442,149.358 219.712,148.821 219.775 C 148.239 219.842,147.967 220.072,147.844 220.599 C 147.702 221.211,147.462 221.354,146.372 221.483 C 145.655 221.568,144.905 221.740,144.704 221.866 C 144.270 222.138,144.212 223.229,144.631 223.229 C 144.792 223.229,144.923 222.975,144.923 222.664 C 144.923 221.871,145.773 221.688,148.341 221.929 L 150.565 222.137 150.395 220.491 C 150.230 218.892,150.245 218.846,150.943 218.846 C 151.788 218.846,152.021 218.387,151.857 217.048 L 151.737 216.070 151.690 217.166 M347.991 218.846 L 347.991 221.476 272.169 221.476 L 196.348 221.476 196.348 218.846 L 196.348 216.216 272.169 216.216 L 347.991 216.216 347.991 218.846 M93.264 222.352 C 93.327 223.179,93.401 223.229,94.584 223.229 C 95.861 223.229,96.062 222.987,95.659 221.938 C 95.287 220.968,93.186 221.331,93.264 222.352 M45.674 235.793 C 45.674 236.837,45.727 237.264,45.792 236.742 C 45.857 236.220,45.857 235.365,45.792 234.843 C 45.727 234.321,45.674 234.748,45.674 235.793 M196.421 238.031 C 195.827 238.271,195.916 243.566,196.518 243.796 C 197.122 244.028,347.217 244.028,347.821 243.796 C 348.503 243.535,348.503 238.277,347.821 238.015 C 347.268 237.803,196.947 237.819,196.421 238.031 M347.845 240.906 L 347.845 243.535 272.169 243.535 L 196.494 243.535 196.408 241.224 C 196.360 239.952,196.389 238.736,196.472 238.521 C 196.597 238.194,209.246 238.141,272.234 238.203 L 347.845 238.276 347.845 240.906 M45.674 246.019 C 45.674 247.064,45.727 247.491,45.792 246.969 C 45.857 246.446,45.857 245.592,45.792 245.069 C 45.727 244.547,45.674 244.974,45.674 246.019 " stroke="none" fill="#64bdf2" fill-rule="evenodd"></path><path id="path4" d="M114.439 39.640 C 114.057 40.021,114.212 148.573,114.595 148.955 C 114.844 149.204,116.304 149.288,119.635 149.244 L 124.324 149.182 119.503 149.025 L 114.682 148.868 114.682 94.156 C 114.682 64.065,114.671 39.445,114.658 39.445 C 114.645 39.445,114.546 39.533,114.439 39.640 M151.838 39.640 C 151.457 40.021,151.611 148.573,151.994 148.955 C 152.486 149.447,161.612 149.447,162.104 148.955 C 162.476 148.584,162.647 40.870,162.277 39.907 C 162.179 39.653,161.966 39.445,161.803 39.445 C 161.618 39.445,161.630 39.594,161.835 39.841 C 162.076 40.132,162.144 54.649,162.090 94.552 L 162.016 148.868 157.049 148.868 L 152.082 148.868 152.008 94.393 C 151.949 51.006,152.009 39.871,152.300 39.686 C 152.517 39.549,152.537 39.452,152.350 39.449 C 152.176 39.447,151.945 39.533,151.838 39.640 M335.283 44.708 C 335.381 44.866,335.756 44.996,336.117 44.996 C 336.477 44.996,336.929 45.154,337.122 45.347 C 337.388 45.613,337.473 45.615,337.473 45.353 C 337.473 45.163,337.111 44.928,336.669 44.831 C 336.227 44.735,335.694 44.602,335.485 44.537 C 335.276 44.472,335.185 44.549,335.283 44.708 M243.428 46.320 C 242.727 47.038,242.234 47.626,242.333 47.626 C 242.547 47.626,244.850 45.354,244.850 45.142 C 244.850 44.887,244.731 44.986,243.428 46.320 M239.020 51.847 C 238.827 52.079,238.727 52.572,238.798 52.942 C 238.914 53.550,238.931 53.539,238.967 52.827 C 238.989 52.393,239.237 51.904,239.518 51.740 C 239.799 51.576,239.881 51.438,239.700 51.433 C 239.519 51.428,239.213 51.614,239.020 51.847 M343.389 53.851 C 344.042 54.379,344.201 137.202,343.550 137.852 C 343.315 138.087,343.305 138.203,343.519 138.203 C 344.166 138.203,344.193 136.499,344.193 95.677 L 344.193 54.075 343.535 53.756 C 342.942 53.469,342.928 53.478,343.389 53.851 M237.723 54.224 C 237.152 55.712,237.550 137.616,238.130 137.979 C 238.569 138.253,238.714 138.660,238.714 139.613 C 238.714 140.782,241.237 144.047,242.139 144.047 C 242.241 144.047,241.577 143.318,240.665 142.427 C 239.143 140.941,239.007 140.702,239.007 139.516 C 239.007 138.523,238.871 138.151,238.422 137.911 C 237.705 137.527,237.474 54.827,238.188 54.112 C 238.423 53.878,238.433 53.762,238.220 53.762 C 238.044 53.762,237.821 53.970,237.723 54.224 M276.904 65.341 C 276.791 65.454,276.698 67.157,276.698 69.126 C 276.698 71.279,276.579 72.764,276.399 72.854 C 276.234 72.935,276.267 72.968,276.472 72.927 C 276.745 72.872,276.866 71.864,276.926 69.151 L 277.008 65.449 279.328 65.449 L 281.648 65.449 281.730 69.151 C 281.796 72.145,281.895 72.875,282.250 72.971 C 282.564 73.057,282.588 73.019,282.332 72.838 C 282.094 72.668,281.949 71.388,281.894 68.944 L 281.812 65.303 279.461 65.219 C 278.168 65.173,277.017 65.228,276.904 65.341 M287.996 65.352 C 287.889 65.459,287.801 67.076,287.801 68.946 C 287.801 71.200,287.683 72.463,287.451 72.695 C 287.216 72.930,287.206 73.046,287.419 73.046 C 287.965 73.046,288.093 72.236,288.093 68.797 L 288.093 65.473 290.504 65.374 L 292.915 65.276 290.553 65.217 C 289.254 65.184,288.103 65.245,287.996 65.352 M300.300 65.371 C 300.987 65.433,302.039 65.432,302.637 65.369 C 303.236 65.307,302.673 65.256,301.388 65.257 C 300.102 65.258,299.613 65.310,300.300 65.371 M292.819 69.157 C 292.791 71.116,292.867 72.781,292.988 72.856 C 293.108 72.931,293.172 71.854,293.129 70.462 C 292.991 66.000,292.872 65.499,292.819 69.157 M314.740 75.982 C 314.666 79.914,314.517 79.781,318.904 79.707 L 322.425 79.648 318.773 79.488 L 315.121 79.328 314.959 76.114 L 314.798 72.900 314.740 75.982 M275.371 78.378 C 274.960 79.452,275.394 110.254,275.822 110.370 C 276.149 110.460,276.167 110.424,275.892 110.230 C 275.603 110.025,275.541 106.613,275.600 94.211 L 275.676 78.451 292.622 78.451 L 309.569 78.451 309.645 94.050 C 309.699 105.327,309.629 109.759,309.390 110.047 C 309.184 110.295,309.172 110.446,309.356 110.446 C 310.114 110.446,310.408 79.115,309.657 78.364 C 309.137 77.844,275.571 77.858,275.371 78.378 M262.504 82.204 C 262.422 82.420,262.400 83.571,262.456 84.761 L 262.557 86.925 262.615 84.524 L 262.673 82.122 266.107 82.030 L 269.540 81.937 266.097 81.874 C 263.441 81.826,262.621 81.901,262.504 82.204 M315.033 84.792 C 314.559 85.265,314.559 90.045,315.033 90.519 C 315.275 90.761,316.516 90.851,319.050 90.810 L 322.717 90.750 318.919 90.590 L 315.121 90.431 315.121 87.655 L 315.121 84.879 318.919 84.720 L 322.717 84.561 319.050 84.501 C 316.516 84.460,315.275 84.550,315.033 84.792 M262.481 95.398 C 262.483 96.684,262.534 97.173,262.596 96.486 C 262.657 95.799,262.656 94.747,262.594 94.149 C 262.531 93.550,262.480 94.112,262.481 95.398 M315.033 95.895 C 314.354 96.574,314.620 101.680,315.334 101.680 C 315.514 101.680,315.497 101.519,315.290 101.270 C 315.074 101.010,314.981 99.968,315.035 98.421 L 315.121 95.982 318.773 95.823 L 322.425 95.663 318.904 95.603 C 316.484 95.563,315.274 95.654,315.033 95.895 M269.978 103.376 C 269.978 103.602,268.792 103.734,266.253 103.790 L 262.527 103.871 262.527 106.355 L 262.527 108.839 266.015 108.921 C 267.974 108.968,269.672 109.144,269.887 109.322 C 270.132 109.526,270.270 109.534,270.270 109.344 C 270.270 108.822,269.423 108.692,266.010 108.692 L 262.673 108.692 262.673 106.355 L 262.673 104.018 266.309 104.018 C 269.644 104.018,270.727 103.793,270.153 103.219 C 270.057 103.122,269.978 103.193,269.978 103.376 M76.844 104.512 C 76.844 105.078,77.687 105.186,82.104 105.186 C 86.520 105.186,87.363 105.078,87.363 104.512 C 87.363 104.299,87.247 104.309,87.012 104.543 C 86.522 105.034,77.686 105.034,77.195 104.543 C 76.960 104.309,76.844 104.299,76.844 104.512 M314.860 107.109 C 314.762 107.364,314.682 109.336,314.682 111.492 L 314.682 115.413 310.477 115.413 C 305.518 115.413,305.917 115.040,305.917 119.673 L 305.917 123.009 303.579 123.009 L 301.242 123.009 301.242 119.673 C 301.242 115.162,301.423 115.413,298.160 115.413 C 296.660 115.413,295.371 115.511,295.297 115.632 C 295.222 115.752,296.430 115.851,297.982 115.851 L 300.804 115.851 300.950 119.503 L 301.096 123.156 303.579 123.156 L 306.063 123.156 306.209 119.503 L 306.355 115.851 310.592 115.705 L 314.828 115.559 314.910 111.488 C 314.958 109.095,315.123 107.258,315.311 107.032 C 315.515 106.786,315.523 106.647,315.334 106.647 C 315.170 106.647,314.957 106.855,314.860 107.109 M271.877 115.608 C 275.427 115.821,278.971 115.833,278.845 115.632 C 278.770 115.511,276.843 115.437,274.563 115.467 C 272.282 115.496,271.074 115.560,271.877 115.608 M284.143 115.714 C 284.034 115.891,284.023 116.115,284.120 116.211 C 284.216 116.308,284.295 116.233,284.295 116.046 C 284.295 115.607,289.730 115.568,289.946 116.004 C 290.028 116.169,290.061 116.136,290.020 115.931 C 289.922 115.441,284.438 115.238,284.143 115.714 M294.876 119.565 L 294.814 122.986 292.403 123.084 L 289.993 123.183 292.412 123.242 C 295.304 123.313,295.156 123.533,295.032 119.338 L 294.938 116.143 294.876 119.565 M280.286 123.225 C 281.055 123.285,282.238 123.284,282.916 123.223 C 283.594 123.162,282.966 123.112,281.519 123.113 C 280.073 123.114,279.518 123.164,280.286 123.225 M340.172 143.365 C 339.969 143.446,339.666 143.798,339.498 144.145 C 339.237 144.687,339.250 144.714,339.588 144.339 C 339.805 144.098,340.168 143.736,340.393 143.535 C 340.824 143.152,340.781 143.119,340.172 143.365 M242.805 144.713 C 242.805 144.973,244.843 147.074,244.966 146.940 C 245.026 146.876,244.564 146.310,243.940 145.683 C 243.316 145.057,242.805 144.620,242.805 144.713 M335.042 147.373 C 334.952 147.610,334.508 147.859,334.057 147.926 L 333.236 148.050 334.004 148.094 C 334.727 148.135,335.689 147.425,335.359 147.095 C 335.276 147.012,335.133 147.137,335.042 147.373 M246.787 147.906 C 246.866 148.033,247.285 148.137,247.719 148.137 C 248.192 148.137,248.654 148.372,248.873 148.722 C 249.235 149.302,249.554 149.306,290.702 149.306 C 331.389 149.306,333.090 149.279,333.090 148.632 C 333.090 148.418,332.974 148.429,332.739 148.663 C 332.053 149.349,249.327 149.151,248.958 148.462 C 248.782 148.133,248.256 147.863,247.654 147.793 C 247.099 147.728,246.709 147.779,246.787 147.906 M196.129 168.491 C 195.724 168.655,195.589 173.999,195.982 174.243 C 196.103 174.318,196.202 173.110,196.202 171.558 L 196.202 168.736 271.568 168.663 C 331.656 168.604,346.986 168.663,347.192 168.955 C 347.384 169.226,347.420 169.207,347.332 168.882 C 347.214 168.451,197.187 168.063,196.129 168.491 M234.136 174.653 C 254.839 174.694,288.630 174.694,309.227 174.653 C 329.824 174.612,312.885 174.578,271.585 174.578 C 230.285 174.578,213.433 174.612,234.136 174.653 M79.177 193.207 C 79.170 194.327,78.757 194.677,77.604 194.543 L 76.543 194.419 76.558 208.786 L 76.573 223.153 78.023 223.185 L 79.474 223.218 79.474 208.797 C 79.474 200.865,79.556 193.965,79.657 193.462 C 79.775 192.873,79.723 192.549,79.511 192.549 C 79.330 192.549,79.180 192.845,79.177 193.207 M86.808 193.002 C 86.770 193.775,87.308 194.302,88.133 194.302 C 88.652 194.302,88.811 194.499,88.905 195.252 L 89.023 196.202 89.069 195.124 C 89.113 194.114,89.058 194.042,88.178 193.956 C 87.465 193.886,87.192 193.689,87.038 193.134 C 86.870 192.523,86.832 192.501,86.808 193.002 M107.600 194.375 L 107.670 196.202 106.428 196.291 C 105.140 196.385,104.698 197.203,105.501 198.007 C 106.135 198.641,105.695 199.992,104.821 200.092 C 104.128 200.172,104.018 200.316,104.018 201.138 C 104.018 202.031,104.073 202.082,104.897 201.961 C 105.820 201.826,105.978 201.519,106.130 199.573 C 106.193 198.770,106.357 198.527,106.930 198.394 C 107.673 198.220,107.982 197.487,108.309 195.123 C 108.434 194.219,108.584 194.029,109.233 193.954 C 110.769 193.776,110.446 192.549,108.862 192.549 L 107.530 192.549 107.600 194.375 M126.584 192.744 C 126.292 192.862,126.217 196.075,126.229 208.015 L 126.243 223.137 127.621 223.185 L 128.999 223.234 128.999 207.892 L 128.999 192.549 127.977 192.572 C 127.414 192.585,126.787 192.662,126.584 192.744 M142.294 193.143 C 142.294 193.795,142.472 193.888,144.193 194.128 C 145.198 194.268,145.270 194.245,144.704 193.960 C 144.343 193.778,144.047 193.386,144.047 193.089 C 144.047 192.684,143.828 192.549,143.170 192.549 C 142.484 192.549,142.294 192.678,142.294 193.143 M196.114 192.900 C 195.727 193.287,195.610 198.264,195.982 198.494 C 196.103 198.569,196.202 197.361,196.202 195.809 L 196.202 192.988 272.169 192.988 L 348.137 192.988 348.137 195.809 C 348.137 197.361,348.236 198.569,348.356 198.494 C 348.828 198.202,348.605 192.915,348.113 192.727 C 347.148 192.356,196.486 192.528,196.114 192.900 M118.762 208.619 C 118.762 216.735,118.800 220.055,118.846 215.997 C 118.891 211.939,118.891 205.299,118.846 201.242 C 118.800 197.184,118.762 200.504,118.762 208.619 M133.294 198.451 C 132.815 198.931,132.815 204.576,133.294 205.055 C 133.487 205.248,134.046 205.388,134.536 205.367 C 135.421 205.329,135.420 205.327,134.405 205.148 L 133.382 204.967 133.382 201.753 L 133.382 198.539 134.551 198.361 L 135.720 198.184 134.682 198.142 C 134.112 198.119,133.487 198.259,133.294 198.451 M142.303 198.694 C 142.619 199.011,143.134 199.270,143.448 199.270 C 143.761 199.270,144.152 199.500,144.316 199.781 C 144.570 200.218,144.615 200.225,144.622 199.826 C 144.635 199.175,143.780 198.505,142.668 198.296 C 141.733 198.120,141.731 198.122,142.303 198.694 M83.867 198.958 C 83.670 199.326,83.588 203.385,83.632 210.572 L 83.700 221.622 83.852 210.519 L 84.003 199.416 84.872 199.416 C 85.585 199.416,85.790 199.574,86.007 200.292 C 86.153 200.774,86.419 201.485,86.599 201.871 C 86.778 202.257,86.919 203.539,86.913 204.720 L 86.901 206.866 87.852 206.866 C 88.972 206.866,89.516 207.587,89.072 208.481 C 88.794 209.041,88.799 209.042,89.232 208.506 C 90.196 207.313,89.381 204.835,88.020 204.826 C 87.427 204.821,87.360 204.671,87.328 203.287 C 87.249 199.777,84.961 196.915,83.867 198.958 M110.316 199.042 C 110.066 199.400,109.882 200.156,109.908 200.722 L 109.955 201.753 110.078 200.732 C 110.287 198.998,111.791 198.253,112.481 199.543 C 112.960 200.439,112.863 203.807,112.345 204.237 C 111.972 204.546,111.907 205.992,111.907 213.915 L 111.907 223.229 113.221 223.229 L 114.536 223.229 114.536 210.988 C 114.536 197.233,114.752 198.393,112.191 198.393 C 111.055 198.393,110.680 198.523,110.316 199.042 M234.235 198.904 C 254.993 198.946,289.047 198.946,309.911 198.904 C 330.775 198.863,313.791 198.829,272.169 198.829 C 230.548 198.829,213.477 198.863,234.235 198.904 M91.235 200.877 C 91.238 201.519,91.298 201.748,91.368 201.384 C 91.438 201.021,91.435 200.495,91.362 200.216 C 91.289 199.936,91.232 200.234,91.235 200.877 M91.572 203.068 C 91.593 203.635,91.776 203.819,92.385 203.889 C 92.880 203.946,93.219 204.191,93.301 204.551 C 93.402 204.996,93.422 204.975,93.392 204.460 C 93.363 203.971,93.147 203.775,92.567 203.708 C 92.028 203.645,91.744 203.416,91.662 202.977 C 91.565 202.453,91.548 202.469,91.572 203.068 M144.256 203.740 C 144.151 204.013,143.761 204.237,143.390 204.237 C 143.019 204.237,142.480 204.512,142.192 204.849 C 141.672 205.456,141.675 205.459,142.638 205.259 C 143.757 205.025,144.758 204.180,144.573 203.624 C 144.483 203.354,144.391 203.387,144.256 203.740 M149.306 203.604 C 149.306 203.791,149.051 203.944,148.738 203.944 C 148.426 203.944,147.994 204.196,147.779 204.503 C 147.564 204.811,146.997 205.107,146.521 205.161 C 145.622 205.263,145.140 206.323,145.726 206.909 C 145.888 207.071,145.942 206.828,145.864 206.291 C 145.743 205.469,145.798 205.405,146.633 205.405 C 147.233 205.405,147.636 205.211,147.845 204.821 C 148.017 204.500,148.408 204.237,148.715 204.237 C 149.300 204.237,149.780 203.737,149.481 203.438 C 149.385 203.342,149.306 203.416,149.306 203.604 M104.374 204.243 C 104.448 204.901,104.343 204.975,103.214 205.057 C 101.913 205.151,101.434 206.211,102.301 207.079 C 103.099 207.876,102.332 208.912,100.944 208.912 C 99.658 208.912,99.635 208.929,99.635 209.875 L 99.635 210.838 101.023 210.678 L 102.411 210.519 102.675 208.854 C 102.912 207.361,103.017 207.180,103.696 207.101 C 104.579 206.998,105.292 204.518,104.629 203.855 C 104.376 203.601,104.313 203.697,104.374 204.243 M108.167 204.295 C 107.974 204.488,107.816 204.776,107.816 204.935 C 107.816 205.095,107.980 205.012,108.181 204.751 C 108.382 204.491,108.875 204.221,109.277 204.151 L 110.007 204.024 109.262 203.984 C 108.852 203.962,108.359 204.102,108.167 204.295 M93.499 206.265 C 93.499 206.737,93.603 207.188,93.730 207.267 C 93.857 207.345,93.908 206.959,93.844 206.408 C 93.701 205.180,93.499 205.096,93.499 206.265 M107.592 206.282 C 107.592 206.844,107.652 207.075,107.725 206.793 C 107.799 206.512,107.799 206.052,107.725 205.771 C 107.652 205.489,107.592 205.720,107.592 206.282 M95.624 209.496 C 95.624 210.219,95.681 210.515,95.750 210.153 C 95.820 209.792,95.820 209.200,95.750 208.839 C 95.681 208.477,95.624 208.773,95.624 209.496 M105.594 208.741 C 105.506 208.968,105.482 209.527,105.540 209.983 C 105.626 210.658,105.671 210.582,105.789 209.569 C 105.936 208.291,105.872 208.016,105.594 208.741 M139.372 210.279 C 144.396 210.393,144.631 210.448,144.631 211.516 C 144.631 211.992,144.820 212.428,145.069 212.523 C 145.391 212.647,145.508 213.154,145.508 214.423 C 145.508 215.692,145.391 216.199,145.069 216.322 C 144.828 216.414,144.631 216.797,144.631 217.171 C 144.631 217.546,144.473 218.010,144.280 218.203 C 144.032 218.451,144.026 218.554,144.260 218.554 C 145.394 218.554,145.997 216.251,145.698 213.054 C 145.434 210.225,145.443 210.230,140.020 210.208 C 135.799 210.192,135.746 210.198,139.372 210.279 M88.824 211.378 C 88.824 212.353,88.863 212.387,90.066 212.474 C 91.263 212.561,91.306 212.598,91.265 213.512 C 91.241 214.034,91.340 214.387,91.484 214.298 C 91.873 214.058,91.801 211.129,91.395 210.723 C 90.532 209.860,88.824 210.295,88.824 211.378 M133.121 210.835 C 132.577 212.253,132.982 218.554,133.618 218.554 C 133.831 218.554,133.821 218.438,133.587 218.203 C 133.354 217.971,133.236 216.710,133.236 214.463 C 133.236 212.217,133.354 210.956,133.587 210.723 C 133.821 210.489,133.831 210.373,133.618 210.373 C 133.442 210.373,133.219 210.581,133.121 210.835 M95.836 211.670 C 95.836 212.062,95.944 212.450,96.076 212.531 C 96.207 212.613,96.258 212.292,96.189 211.818 C 96.035 210.774,95.836 210.690,95.836 211.670 M99.936 212.929 C 99.929 213.463,99.762 213.587,99.050 213.587 C 98.466 213.587,98.174 213.440,98.174 213.148 C 98.174 212.907,98.046 212.710,97.891 212.710 C 97.550 212.710,97.858 213.646,98.299 213.947 C 99.315 214.643,100.812 213.762,100.251 212.798 C 99.972 212.318,99.944 212.330,99.936 212.929 M104.765 213.359 C 104.512 213.719,104.327 214.533,104.349 215.186 L 104.388 216.362 104.578 215.008 C 104.682 214.262,104.944 213.441,105.159 213.181 C 105.374 212.922,105.476 212.710,105.385 212.710 C 105.294 212.710,105.015 213.002,104.765 213.359 M151.737 214.463 C 151.737 215.508,151.790 215.935,151.855 215.413 C 151.920 214.890,151.920 214.036,151.855 213.514 C 151.790 212.991,151.737 213.419,151.737 214.463 M196.114 215.982 C 195.896 216.201,195.763 217.281,195.763 218.846 C 195.763 220.411,195.896 221.491,196.114 221.709 C 196.625 222.220,347.714 222.220,348.225 221.709 C 348.443 221.491,348.576 220.411,348.576 218.846 C 348.576 217.281,348.443 216.201,348.225 215.982 C 347.714 215.472,196.625 215.472,196.114 215.982 M92.030 216.187 C 93.509 216.385,94.239 218.069,93.525 219.636 C 92.890 221.029,93.094 221.476,94.367 221.476 C 95.421 221.476,95.555 221.563,95.823 222.425 C 96.068 223.210,96.090 223.070,95.949 221.622 C 95.743 219.510,95.701 219.430,94.796 219.430 C 94.148 219.430,94.083 219.313,94.083 218.139 C 94.083 216.090,93.936 215.918,92.226 215.968 L 90.723 216.012 92.030 216.187 M348.137 218.846 L 348.137 221.622 272.169 221.622 L 196.202 221.622 196.116 219.162 C 196.069 217.810,196.098 216.528,196.180 216.313 C 196.305 215.989,209.138 215.935,272.234 215.997 L 348.137 216.070 348.137 218.846 M149.949 218.320 C 149.756 218.513,149.598 218.841,149.598 219.050 C 149.598 219.278,149.245 219.430,148.714 219.430 C 147.974 219.430,147.803 219.567,147.662 220.272 C 147.508 221.040,147.365 221.127,146.031 221.255 C 144.520 221.400,144.034 221.784,144.085 222.790 L 144.115 223.375 144.255 222.790 C 144.474 221.881,144.821 221.660,146.300 221.489 C 147.465 221.354,147.700 221.218,147.844 220.599 C 147.967 220.072,148.239 219.842,148.821 219.775 C 149.350 219.713,149.719 219.443,149.890 218.992 C 150.058 218.551,150.447 218.259,150.971 218.180 C 151.762 218.061,151.764 218.055,151.045 218.013 C 150.635 217.989,150.142 218.127,149.949 218.320 M102.615 218.612 C 102.422 218.805,102.264 219.093,102.264 219.252 C 102.264 219.412,102.429 219.329,102.630 219.068 C 102.831 218.808,103.324 218.538,103.725 218.468 L 104.456 218.341 103.711 218.301 C 103.301 218.279,102.808 218.419,102.615 218.612 M137.546 218.771 C 138.711 218.826,140.617 218.826,141.782 218.771 C 142.947 218.715,141.994 218.670,139.664 218.670 C 137.334 218.670,136.381 218.715,137.546 218.771 M101.972 220.872 C 101.972 221.590,101.842 221.744,101.169 221.821 C 100.380 221.912,99.746 223.229,100.491 223.229 C 100.663 223.229,100.804 222.966,100.804 222.644 C 100.804 222.216,100.998 222.060,101.534 222.060 C 102.174 222.060,102.264 221.933,102.264 221.037 C 102.264 220.475,102.199 220.015,102.118 220.015 C 102.038 220.015,101.972 220.400,101.972 220.872 M195.888 238.226 C 195.571 239.052,195.902 243.779,196.282 243.855 C 196.487 243.896,196.520 243.863,196.355 243.781 C 195.902 243.557,195.964 238.216,196.421 238.031 C 196.707 237.916,196.705 237.879,196.412 237.861 C 196.206 237.848,195.970 238.013,195.888 238.226 M347.984 238.030 C 348.156 238.116,348.283 239.335,348.283 240.906 C 348.283 242.477,348.156 243.696,347.984 243.781 C 347.819 243.863,347.852 243.896,348.057 243.854 C 348.329 243.799,348.430 243.000,348.430 240.906 C 348.430 238.811,348.329 238.012,348.057 237.957 C 347.852 237.916,347.819 237.949,347.984 238.030 " stroke="none" fill="#3ca6ec" fill-rule="evenodd"></path></g></svg>