<svg id="svg" version="1.1" width="400" height="336.231884057971" viewBox="0 0 400 336.231884057971" xmlns="http://www.w3.org/2000/svg" xmlns:xlink="http://www.w3.org/1999/xlink" ><g id="svgg"><path id="path0" d="M12.267 97.645 C 12.179 97.876,12.145 123.272,12.193 154.079 L 12.279 210.093 20.353 210.093 L 28.427 210.093 28.516 198.179 C 28.577 189.928,28.721 186.124,28.985 185.807 C 29.280 185.450,30.426 185.369,34.111 185.441 L 38.856 185.534 39.024 197.813 L 39.193 210.093 45.416 210.093 L 51.640 210.093 51.729 198.179 C 51.789 190.070,51.936 186.122,52.190 185.816 C 52.608 185.313,61.054 185.159,61.812 185.641 C 62.128 185.841,62.250 188.837,62.317 197.999 L 62.405 210.093 68.629 210.093 L 74.853 210.093 74.941 198.179 C 75.002 190.070,75.149 186.122,75.403 185.816 C 75.937 185.172,84.534 185.172,85.068 185.816 C 85.322 186.122,85.469 190.070,85.530 198.179 L 85.618 210.093 93.776 210.183 L 101.934 210.273 101.934 198.470 C 101.934 183.992,101.370 185.366,107.317 185.366 C 113.264 185.366,112.700 183.993,112.700 198.464 L 112.700 210.261 118.923 210.261 L 125.147 210.261 125.147 198.464 C 125.147 183.993,124.583 185.366,130.530 185.366 C 136.477 185.366,135.913 183.992,135.913 198.470 L 135.913 210.273 144.071 210.183 L 152.229 210.093 152.397 197.813 L 152.565 185.534 157.311 185.441 C 160.995 185.369,162.141 185.450,162.437 185.807 C 162.700 186.124,162.844 189.928,162.906 198.179 L 162.994 210.093 171.068 210.093 L 179.142 210.093 179.231 198.179 C 179.292 189.928,179.436 186.124,179.700 185.807 C 179.995 185.450,181.141 185.369,184.826 185.441 L 189.571 185.534 189.739 197.813 L 189.907 210.093 196.131 210.093 L 202.355 210.093 202.443 198.179 C 202.504 190.070,202.651 186.122,202.905 185.816 C 203.323 185.313,211.769 185.159,212.527 185.641 C 212.842 185.841,212.965 188.837,213.032 197.999 L 213.120 210.093 219.344 210.093 L 225.568 210.093 225.656 198.179 C 225.716 190.070,225.864 186.122,226.118 185.816 C 226.652 185.172,235.249 185.172,235.783 185.816 C 236.037 186.122,236.184 190.070,236.245 198.179 L 236.333 210.093 244.491 210.183 L 252.649 210.273 252.649 198.470 C 252.649 183.992,252.085 185.366,258.032 185.366 C 263.979 185.366,263.415 183.993,263.415 198.464 L 263.415 210.261 269.638 210.261 L 275.862 210.261 275.862 198.464 C 275.862 183.993,275.298 185.366,281.245 185.366 C 287.192 185.366,286.627 183.992,286.627 198.471 L 286.627 210.274 293.776 210.183 L 300.925 210.093 301.014 198.179 C 301.074 190.070,301.221 186.122,301.475 185.816 C 302.009 185.172,310.606 185.172,311.140 185.816 C 311.394 186.122,311.542 190.070,311.602 198.179 L 311.690 210.093 321.783 210.093 L 331.876 210.093 331.876 153.743 L 331.876 97.393 172.151 97.308 C 44.548 97.241,12.394 97.308,12.267 97.645 M65.926 108.641 C 66.563 109.830,66.391 146.177,65.746 146.822 C 65.050 147.518,23.972 147.639,23.280 146.947 C 22.697 146.364,22.697 108.976,23.280 108.394 C 24.078 107.596,65.495 107.836,65.926 108.641 M127.707 108.579 C 128.459 109.570,128.375 145.899,127.618 146.735 C 126.919 147.508,85.946 147.713,85.181 146.947 C 84.753 146.519,84.561 109.616,84.981 108.522 C 85.312 107.661,127.052 107.716,127.707 108.579 M191.354 108.394 C 191.937 108.976,191.937 146.364,191.354 146.947 C 190.663 147.639,149.584 147.518,148.889 146.822 C 148.243 146.177,148.072 109.830,148.708 108.641 C 149.139 107.836,190.557 107.596,191.354 108.394 M255.329 110.659 C 255.965 111.849,255.794 148.195,255.148 148.841 C 254.453 149.536,213.374 149.657,212.683 148.966 C 212.084 148.367,212.101 110.473,212.700 110.231 C 214.208 109.623,254.993 110.032,255.329 110.659 M320.875 110.412 C 321.565 111.103,321.445 148.145,320.750 148.841 C 319.946 149.645,279.213 149.645,278.409 148.841 C 277.714 148.145,277.594 111.103,278.284 110.412 C 278.868 109.829,320.291 109.829,320.875 110.412 M33.459 118.840 C 33.368 119.077,33.334 123.205,33.384 128.012 L 33.474 136.754 44.407 136.754 L 55.341 136.754 55.341 127.670 L 55.341 118.587 44.482 118.498 C 35.904 118.428,33.589 118.500,33.459 118.840 M95.360 118.840 C 95.269 119.077,95.235 123.205,95.284 128.012 L 95.374 136.754 106.308 136.754 L 117.241 136.754 117.241 127.670 L 117.241 118.587 106.383 118.498 C 97.805 118.428,95.490 118.500,95.360 118.840 M159.209 118.639 C 158.888 118.771,158.789 120.904,158.789 127.692 L 158.789 136.573 159.546 136.757 C 159.962 136.859,164.996 136.899,170.732 136.848 L 181.161 136.754 181.161 127.670 L 181.161 118.587 170.395 118.527 C 164.474 118.494,159.441 118.545,159.209 118.639 M222.860 120.863 C 222.770 121.098,222.737 125.223,222.786 130.031 L 222.876 138.772 233.810 138.772 L 244.743 138.772 244.833 129.605 L 244.923 120.437 233.973 120.437 C 225.448 120.437,222.987 120.532,222.860 120.863 M288.538 120.657 C 288.106 121.089,288.273 138.096,288.713 138.537 C 289.341 139.164,309.954 139.109,310.478 138.478 C 310.748 138.153,310.835 135.452,310.771 129.311 L 310.681 120.606 299.724 120.517 C 293.698 120.468,288.664 120.531,288.538 120.657 " stroke="none" fill="#d4f4fc" fill-rule="evenodd"></path><path id="path1" d="M1.009 153.743 L 1.009 221.362 172.077 221.362 L 343.146 221.362 343.146 153.743 L 343.146 86.123 172.077 86.123 L 1.009 86.123 1.009 153.743 M331.729 96.900 C 332.754 97.448,332.754 210.037,331.729 210.585 C 330.849 211.056,312.717 211.056,311.837 210.585 C 311.212 210.251,311.186 209.758,311.186 198.373 C 311.186 184.383,311.694 185.702,306.308 185.702 C 300.923 185.702,301.430 184.391,301.430 198.318 C 301.430 207.054,301.325 210.231,301.026 210.530 C 300.423 211.133,287.346 211.075,286.543 210.465 C 286.002 210.055,285.955 209.064,285.955 198.264 C 285.955 189.570,285.849 186.405,285.551 186.106 C 285.127 185.682,278.084 185.516,277.067 185.906 C 276.596 186.087,276.535 187.461,276.535 197.907 C 276.535 212.444,277.328 210.934,269.697 210.934 C 261.929 210.934,262.742 212.425,262.742 198.165 C 262.742 184.440,263.219 185.702,258.032 185.702 C 252.846 185.702,253.322 184.449,253.322 198.106 C 253.322 212.561,254.420 210.934,244.669 210.934 C 234.660 210.934,235.828 212.594,235.828 198.373 C 235.828 184.383,236.336 185.702,230.950 185.702 C 225.565 185.702,226.072 184.391,226.072 198.318 C 226.072 207.054,225.967 210.231,225.669 210.530 C 225.152 211.046,214.219 211.095,213.266 210.585 C 212.642 210.251,212.616 209.758,212.616 198.373 C 212.616 184.383,213.123 185.702,207.738 185.702 C 202.353 185.702,202.860 184.391,202.860 198.318 C 202.860 207.054,202.754 210.231,202.456 210.530 C 201.939 211.046,191.006 211.095,190.054 210.585 C 189.429 210.251,189.403 209.758,189.403 198.347 C 189.403 184.293,189.952 185.647,184.309 185.776 L 180.151 185.870 180.063 197.792 C 179.985 208.294,179.909 209.785,179.422 210.323 C 178.577 211.256,163.559 211.256,162.714 210.323 C 162.228 209.785,162.151 208.294,162.073 197.792 L 161.985 185.870 157.827 185.776 C 152.185 185.647,152.733 184.293,152.733 198.347 C 152.733 209.758,152.707 210.251,152.083 210.585 C 151.057 211.134,136.569 211.027,135.828 210.465 C 135.287 210.055,135.240 209.064,135.240 198.264 C 135.240 189.570,135.135 186.405,134.836 186.106 C 134.412 185.682,127.369 185.516,126.352 185.906 C 125.881 186.087,125.820 187.461,125.820 197.907 C 125.820 212.444,126.613 210.934,118.982 210.934 C 111.215 210.934,112.027 212.425,112.027 198.165 C 112.027 184.440,112.504 185.702,107.317 185.702 C 102.131 185.702,102.607 184.449,102.607 198.106 C 102.607 212.561,103.705 210.934,93.954 210.934 C 83.945 210.934,85.114 212.594,85.114 198.373 C 85.114 184.383,85.621 185.702,80.235 185.702 C 74.851 185.702,75.357 184.391,75.357 198.318 C 75.357 207.054,75.252 210.231,74.954 210.530 C 74.437 211.046,63.504 211.095,62.551 210.585 C 61.927 210.251,61.901 209.758,61.901 198.373 C 61.901 184.383,62.408 185.702,57.023 185.702 C 51.638 185.702,52.145 184.391,52.145 198.318 C 52.145 207.054,52.040 210.231,51.741 210.530 C 51.225 211.046,40.291 211.095,39.339 210.585 C 38.714 210.251,38.688 209.758,38.688 198.347 C 38.688 184.293,39.237 185.647,33.594 185.776 L 29.437 185.870 29.348 197.792 C 29.270 208.294,29.194 209.785,28.707 210.323 C 27.903 211.212,13.029 211.259,12.053 210.377 C 11.143 209.553,11.086 98.172,11.995 97.167 C 12.652 96.441,330.376 96.175,331.729 96.900 M23.616 108.730 C 23.034 109.313,23.034 146.028,23.616 146.611 C 24.044 147.038,63.974 147.231,65.069 146.810 C 65.882 146.498,65.882 108.842,65.069 108.531 C 63.974 108.110,24.044 108.302,23.616 108.730 M85.517 108.730 C 84.935 109.313,84.935 146.028,85.517 146.611 C 86.100 147.194,126.515 147.194,127.098 146.611 C 127.681 146.028,127.681 109.313,127.098 108.730 C 126.515 108.147,86.100 108.147,85.517 108.730 M149.453 108.549 C 148.740 108.837,148.850 146.536,149.565 146.810 C 150.530 147.180,190.068 147.042,190.771 146.666 C 191.402 146.328,191.421 145.762,191.421 127.670 C 191.421 109.578,191.402 109.012,190.771 108.675 C 190.110 108.321,150.318 108.200,149.453 108.549 M213.019 110.749 C 212.487 111.281,212.434 147.392,212.964 148.382 C 213.394 149.187,253.803 149.426,254.601 148.629 C 255.183 148.047,255.183 111.331,254.601 110.749 C 254.017 110.165,213.603 110.165,213.019 110.749 M278.623 110.746 C 277.857 111.512,278.058 147.775,278.832 148.476 C 279.681 149.245,319.596 149.339,320.231 148.574 C 320.506 148.243,320.587 142.920,320.524 129.314 L 320.437 110.513 299.733 110.426 C 283.910 110.360,278.934 110.436,278.623 110.746 M55.778 118.486 C 56.402 119.110,56.349 136.364,55.721 136.885 C 55.393 137.158,52.082 137.242,44.199 137.179 L 33.137 137.090 33.047 128.012 C 32.998 123.019,33.031 118.742,33.121 118.508 C 33.351 117.908,55.179 117.887,55.778 118.486 M117.679 118.486 C 118.254 119.061,118.254 136.280,117.679 136.854 C 117.101 137.432,95.515 137.432,94.937 136.854 C 94.362 136.280,94.362 119.061,94.937 118.486 C 95.515 117.908,117.101 117.908,117.679 118.486 M181.133 118.287 C 181.940 118.596,181.940 136.744,181.133 137.054 C 180.055 137.468,159.283 137.282,158.856 136.854 C 158.281 136.280,158.281 119.061,158.856 118.486 C 159.283 118.059,180.055 117.873,181.133 118.287 M244.969 120.321 C 245.687 120.971,245.926 137.337,245.236 138.626 C 244.807 139.427,223.563 139.661,222.775 138.873 C 222.482 138.579,222.372 136.032,222.372 129.521 C 222.372 123.009,222.482 120.462,222.775 120.168 C 223.481 119.463,244.178 119.605,244.969 120.321 M310.535 120.113 C 311.335 120.541,311.566 138.089,310.782 138.873 C 310.205 139.451,288.954 139.451,288.377 138.873 C 287.644 138.140,287.818 120.561,288.562 120.128 C 289.367 119.659,309.660 119.645,310.535 120.113 " stroke="none" fill="#04a4ec" fill-rule="evenodd"></path><path id="path2" d="M11.995 97.167 C 11.086 98.172,11.143 209.553,12.053 210.377 C 13.029 211.259,27.903 211.212,28.707 210.323 C 29.194 209.785,29.270 208.294,29.348 197.792 L 29.437 185.870 33.594 185.776 C 39.237 185.647,38.688 184.293,38.688 198.347 C 38.688 209.758,38.714 210.251,39.339 210.585 C 40.291 211.095,51.225 211.046,51.741 210.530 C 52.040 210.231,52.145 207.054,52.145 198.318 C 52.145 184.391,51.638 185.702,57.023 185.702 C 62.408 185.702,61.901 184.383,61.901 198.373 C 61.901 209.758,61.927 210.251,62.551 210.585 C 63.504 211.095,74.437 211.046,74.954 210.530 C 75.252 210.231,75.357 207.054,75.357 198.318 C 75.357 184.391,74.851 185.702,80.235 185.702 C 85.621 185.702,85.114 184.383,85.114 198.373 C 85.114 212.594,83.945 210.934,93.954 210.934 C 103.705 210.934,102.607 212.561,102.607 198.106 C 102.607 184.449,102.131 185.702,107.317 185.702 C 112.504 185.702,112.027 184.440,112.027 198.165 C 112.027 212.425,111.215 210.934,118.982 210.934 C 126.613 210.934,125.820 212.444,125.820 197.907 C 125.820 187.461,125.881 186.087,126.352 185.906 C 127.369 185.516,134.412 185.682,134.836 186.106 C 135.135 186.405,135.240 189.570,135.240 198.264 C 135.240 209.064,135.287 210.055,135.828 210.465 C 136.569 211.027,151.057 211.134,152.083 210.585 C 152.707 210.251,152.733 209.758,152.733 198.347 C 152.733 184.293,152.185 185.647,157.827 185.776 L 161.985 185.870 162.073 197.792 C 162.151 208.294,162.228 209.785,162.714 210.323 C 163.559 211.256,178.577 211.256,179.422 210.323 C 179.909 209.785,179.985 208.294,180.063 197.792 L 180.151 185.870 184.309 185.776 C 189.952 185.647,189.403 184.293,189.403 198.347 C 189.403 209.758,189.429 210.251,190.054 210.585 C 191.006 211.095,201.939 211.046,202.456 210.530 C 202.754 210.231,202.860 207.054,202.860 198.318 C 202.860 184.391,202.353 185.702,207.738 185.702 C 213.123 185.702,212.616 184.383,212.616 198.373 C 212.616 209.758,212.642 210.251,213.266 210.585 C 214.219 211.095,225.152 211.046,225.669 210.530 C 225.967 210.231,226.072 207.054,226.072 198.318 C 226.072 184.391,225.565 185.702,230.950 185.702 C 236.336 185.702,235.828 184.383,235.828 198.373 C 235.828 212.594,234.660 210.934,244.669 210.934 C 254.420 210.934,253.322 212.561,253.322 198.106 C 253.322 184.449,252.846 185.702,258.032 185.702 C 263.219 185.702,262.742 184.440,262.742 198.165 C 262.742 212.425,261.929 210.934,269.697 210.934 C 277.328 210.934,276.535 212.444,276.535 197.907 C 276.535 187.461,276.596 186.087,277.067 185.906 C 278.084 185.516,285.127 185.682,285.551 186.106 C 285.849 186.405,285.955 189.570,285.955 198.264 C 285.955 209.064,286.002 210.055,286.543 210.465 C 287.346 211.075,300.423 211.133,301.026 210.530 C 301.325 210.231,301.430 207.054,301.430 198.318 C 301.430 184.391,300.923 185.702,306.308 185.702 C 311.694 185.702,311.186 184.383,311.186 198.373 C 311.186 209.758,311.212 210.251,311.837 210.585 C 312.717 211.056,330.849 211.056,331.729 210.585 C 332.754 210.037,332.754 97.448,331.729 96.900 C 330.376 96.175,12.652 96.441,11.995 97.167 M331.876 153.743 L 331.876 210.093 321.783 210.093 L 311.690 210.093 311.602 198.179 C 311.542 190.070,311.394 186.122,311.140 185.816 C 310.606 185.172,302.009 185.172,301.475 185.816 C 301.221 186.122,301.074 190.070,301.014 198.179 L 300.925 210.093 293.776 210.183 L 286.627 210.274 286.627 198.471 C 286.627 183.992,287.192 185.366,281.245 185.366 C 275.298 185.366,275.862 183.993,275.862 198.464 L 275.862 210.261 269.638 210.261 L 263.415 210.261 263.415 198.464 C 263.415 183.993,263.979 185.366,258.032 185.366 C 252.085 185.366,252.649 183.992,252.649 198.470 L 252.649 210.273 244.491 210.183 L 236.333 210.093 236.245 198.179 C 236.184 190.070,236.037 186.122,235.783 185.816 C 235.249 185.172,226.652 185.172,226.118 185.816 C 225.864 186.122,225.716 190.070,225.656 198.179 L 225.568 210.093 219.344 210.093 L 213.120 210.093 213.032 197.999 C 212.965 188.837,212.842 185.841,212.527 185.641 C 211.769 185.159,203.323 185.313,202.905 185.816 C 202.651 186.122,202.504 190.070,202.443 198.179 L 202.355 210.093 196.131 210.093 L 189.907 210.093 189.739 197.813 L 189.571 185.534 184.826 185.441 C 181.141 185.369,179.995 185.450,179.700 185.807 C 179.436 186.124,179.292 189.928,179.231 198.179 L 179.142 210.093 171.068 210.093 L 162.994 210.093 162.906 198.179 C 162.844 189.928,162.700 186.124,162.437 185.807 C 162.141 185.450,160.995 185.369,157.311 185.441 L 152.565 185.534 152.397 197.813 L 152.229 210.093 144.071 210.183 L 135.913 210.273 135.913 198.470 C 135.913 183.992,136.477 185.366,130.530 185.366 C 124.583 185.366,125.147 183.993,125.147 198.464 L 125.147 210.261 118.923 210.261 L 112.700 210.261 112.700 198.464 C 112.700 183.993,113.264 185.366,107.317 185.366 C 101.370 185.366,101.934 183.992,101.934 198.470 L 101.934 210.273 93.776 210.183 L 85.618 210.093 85.530 198.179 C 85.469 190.070,85.322 186.122,85.068 185.816 C 84.534 185.172,75.937 185.172,75.403 185.816 C 75.149 186.122,75.002 190.070,74.941 198.179 L 74.853 210.093 68.629 210.093 L 62.405 210.093 62.317 197.999 C 62.250 188.837,62.128 185.841,61.812 185.641 C 61.054 185.159,52.608 185.313,52.190 185.816 C 51.936 186.122,51.789 190.070,51.729 198.179 L 51.640 210.093 45.416 210.093 L 39.193 210.093 39.024 197.813 L 38.856 185.534 34.111 185.441 C 30.426 185.369,29.280 185.450,28.985 185.807 C 28.721 186.124,28.577 189.928,28.516 198.179 L 28.427 210.093 20.353 210.093 L 12.279 210.093 12.193 154.079 C 12.145 123.272,12.179 97.876,12.267 97.645 C 12.394 97.308,44.548 97.241,172.151 97.308 L 331.876 97.393 331.876 153.743 M23.280 108.394 C 22.697 108.976,22.697 146.364,23.280 146.947 C 23.972 147.639,65.050 147.518,65.746 146.822 C 66.391 146.177,66.563 109.830,65.926 108.641 C 65.495 107.836,24.078 107.596,23.280 108.394 M84.981 108.522 C 84.561 109.616,84.753 146.519,85.181 146.947 C 85.946 147.713,126.919 147.508,127.618 146.735 C 128.375 145.899,128.459 109.570,127.707 108.579 C 127.052 107.716,85.312 107.661,84.981 108.522 M148.708 108.641 C 148.072 109.830,148.243 146.177,148.889 146.822 C 149.584 147.518,190.663 147.639,191.354 146.947 C 191.937 146.364,191.937 108.976,191.354 108.394 C 190.557 107.596,149.139 107.836,148.708 108.641 M65.069 108.531 C 65.882 108.842,65.882 146.498,65.069 146.810 C 63.974 147.231,24.044 147.038,23.616 146.611 C 23.034 146.028,23.034 109.313,23.616 108.730 C 24.044 108.302,63.974 108.110,65.069 108.531 M127.098 108.730 C 127.681 109.313,127.681 146.028,127.098 146.611 C 126.515 147.194,86.100 147.194,85.517 146.611 C 84.935 146.028,84.935 109.313,85.517 108.730 C 86.100 108.147,126.515 108.147,127.098 108.730 M190.771 108.675 C 191.402 109.012,191.421 109.578,191.421 127.670 C 191.421 145.762,191.402 146.328,190.771 146.666 C 190.068 147.042,150.530 147.180,149.565 146.810 C 148.850 146.536,148.740 108.837,149.453 108.549 C 150.318 108.200,190.110 108.321,190.771 108.675 M212.700 110.231 C 212.101 110.473,212.084 148.367,212.683 148.966 C 213.374 149.657,254.453 149.536,255.148 148.841 C 255.794 148.195,255.965 111.849,255.329 110.659 C 254.993 110.032,214.208 109.623,212.700 110.231 M278.284 110.412 C 277.594 111.103,277.714 148.145,278.409 148.841 C 279.213 149.645,319.946 149.645,320.750 148.841 C 321.445 148.145,321.565 111.103,320.875 110.412 C 320.291 109.829,278.868 109.829,278.284 110.412 M254.601 110.749 C 255.183 111.331,255.183 148.047,254.601 148.629 C 253.803 149.426,213.394 149.187,212.964 148.382 C 212.434 147.392,212.487 111.281,213.019 110.749 C 213.603 110.165,254.017 110.165,254.601 110.749 M320.524 129.314 C 320.587 142.920,320.506 148.243,320.231 148.574 C 319.596 149.339,279.681 149.245,278.832 148.476 C 278.058 147.775,277.857 111.512,278.623 110.746 C 278.934 110.436,283.910 110.360,299.733 110.426 L 320.437 110.513 320.524 129.314 M33.121 118.508 C 33.031 118.742,32.998 123.019,33.047 128.012 L 33.137 137.090 44.199 137.179 C 52.082 137.242,55.393 137.158,55.721 136.885 C 56.349 136.364,56.402 119.110,55.778 118.486 C 55.179 117.887,33.351 117.908,33.121 118.508 M94.937 118.486 C 94.362 119.061,94.362 136.280,94.937 136.854 C 95.515 137.432,117.101 137.432,117.679 136.854 C 118.254 136.280,118.254 119.061,117.679 118.486 C 117.101 117.908,95.515 117.908,94.937 118.486 M158.856 118.486 C 158.281 119.061,158.281 136.280,158.856 136.854 C 159.283 137.282,180.055 137.468,181.133 137.054 C 181.940 136.744,181.940 118.596,181.133 118.287 C 180.055 117.873,159.283 118.059,158.856 118.486 M55.341 127.670 L 55.341 136.754 44.407 136.754 L 33.474 136.754 33.384 128.012 C 33.334 123.205,33.368 119.077,33.459 118.840 C 33.589 118.500,35.904 118.428,44.482 118.498 L 55.341 118.587 55.341 127.670 M117.241 127.670 L 117.241 136.754 106.308 136.754 L 95.374 136.754 95.284 128.012 C 95.235 123.205,95.269 119.077,95.360 118.840 C 95.490 118.500,97.805 118.428,106.383 118.498 L 117.241 118.587 117.241 127.670 M181.161 127.670 L 181.161 136.754 170.732 136.848 C 164.996 136.899,159.962 136.859,159.546 136.757 L 158.789 136.573 158.789 127.692 C 158.789 120.904,158.888 118.771,159.209 118.639 C 159.441 118.545,164.474 118.494,170.395 118.527 L 181.161 118.587 181.161 127.670 M222.775 120.168 C 222.482 120.462,222.372 123.009,222.372 129.521 C 222.372 136.032,222.482 138.579,222.775 138.873 C 223.563 139.661,244.807 139.427,245.236 138.626 C 245.926 137.337,245.687 120.971,244.969 120.321 C 244.178 119.605,223.481 119.463,222.775 120.168 M288.562 120.128 C 287.818 120.561,287.644 138.140,288.377 138.873 C 288.954 139.451,310.205 139.451,310.782 138.873 C 311.566 138.089,311.335 120.541,310.535 120.113 C 309.660 119.645,289.367 119.659,288.562 120.128 M244.833 129.605 L 244.743 138.772 233.810 138.772 L 222.876 138.772 222.786 130.031 C 222.737 125.223,222.770 121.098,222.860 120.863 C 222.987 120.532,225.448 120.437,233.973 120.437 L 244.923 120.437 244.833 129.605 M310.771 129.311 C 310.835 135.452,310.748 138.153,310.478 138.478 C 309.954 139.109,289.341 139.164,288.713 138.537 C 288.273 138.096,288.106 121.089,288.538 120.657 C 288.664 120.531,293.698 120.468,299.724 120.517 L 310.681 120.606 310.771 129.311 " stroke="none" fill="#d8ccf4" fill-rule="evenodd"></path><path id="path3" d="M11.995 97.167 C 11.086 98.172,11.143 209.553,12.053 210.377 C 13.029 211.259,27.903 211.212,28.707 210.323 C 29.194 209.785,29.270 208.294,29.348 197.792 L 29.437 185.870 33.594 185.776 C 39.237 185.647,38.688 184.293,38.688 198.347 C 38.688 209.758,38.714 210.251,39.339 210.585 C 40.291 211.095,51.225 211.046,51.741 210.530 C 52.040 210.231,52.145 207.054,52.145 198.318 C 52.145 184.391,51.638 185.702,57.023 185.702 C 62.408 185.702,61.901 184.383,61.901 198.373 C 61.901 209.758,61.927 210.251,62.551 210.585 C 63.504 211.095,74.437 211.046,74.954 210.530 C 75.252 210.231,75.357 207.054,75.357 198.318 C 75.357 184.391,74.851 185.702,80.235 185.702 C 85.621 185.702,85.114 184.383,85.114 198.373 C 85.114 212.594,83.945 210.934,93.954 210.934 C 103.705 210.934,102.607 212.561,102.607 198.106 C 102.607 184.449,102.131 185.702,107.317 185.702 C 112.504 185.702,112.027 184.440,112.027 198.165 C 112.027 212.425,111.215 210.934,118.982 210.934 C 126.613 210.934,125.820 212.444,125.820 197.907 C 125.820 187.461,125.881 186.087,126.352 185.906 C 127.369 185.516,134.412 185.682,134.836 186.106 C 135.135 186.405,135.240 189.570,135.240 198.264 C 135.240 209.064,135.287 210.055,135.828 210.465 C 136.569 211.027,151.057 211.134,152.083 210.585 C 152.707 210.251,152.733 209.758,152.733 198.347 C 152.733 184.293,152.185 185.647,157.827 185.776 L 161.985 185.870 162.073 197.792 C 162.151 208.294,162.228 209.785,162.714 210.323 C 163.559 211.256,178.577 211.256,179.422 210.323 C 179.909 209.785,179.985 208.294,180.063 197.792 L 180.151 185.870 184.309 185.776 C 189.952 185.647,189.403 184.293,189.403 198.347 C 189.403 209.758,189.429 210.251,190.054 210.585 C 191.006 211.095,201.939 211.046,202.456 210.530 C 202.754 210.231,202.860 207.054,202.860 198.318 C 202.860 184.391,202.353 185.702,207.738 185.702 C 213.123 185.702,212.616 184.383,212.616 198.373 C 212.616 209.758,212.642 210.251,213.266 210.585 C 214.219 211.095,225.152 211.046,225.669 210.530 C 225.967 210.231,226.072 207.054,226.072 198.318 C 226.072 184.391,225.565 185.702,230.950 185.702 C 236.336 185.702,235.828 184.383,235.828 198.373 C 235.828 212.594,234.660 210.934,244.669 210.934 C 254.420 210.934,253.322 212.561,253.322 198.106 C 253.322 184.449,252.846 185.702,258.032 185.702 C 263.219 185.702,262.742 184.440,262.742 198.165 C 262.742 212.425,261.929 210.934,269.697 210.934 C 277.328 210.934,276.535 212.444,276.535 197.907 C 276.535 187.461,276.596 186.087,277.067 185.906 C 278.084 185.516,285.127 185.682,285.551 186.106 C 285.849 186.405,285.955 189.570,285.955 198.264 C 285.955 209.064,286.002 210.055,286.543 210.465 C 287.346 211.075,300.423 211.133,301.026 210.530 C 301.325 210.231,301.430 207.054,301.430 198.318 C 301.430 184.391,300.923 185.702,306.308 185.702 C 311.694 185.702,311.186 184.383,311.186 198.373 C 311.186 209.758,311.212 210.251,311.837 210.585 C 312.717 211.056,330.849 211.056,331.729 210.585 C 332.754 210.037,332.754 97.448,331.729 96.900 C 330.376 96.175,12.652 96.441,11.995 97.167 M331.876 153.743 L 331.876 210.093 321.783 210.093 L 311.690 210.093 311.602 198.179 C 311.542 190.070,311.394 186.122,311.140 185.816 C 310.606 185.172,302.009 185.172,301.475 185.816 C 301.221 186.122,301.074 190.070,301.014 198.179 L 300.925 210.093 293.776 210.183 L 286.627 210.274 286.627 198.471 C 286.627 183.992,287.192 185.366,281.245 185.366 C 275.298 185.366,275.862 183.993,275.862 198.464 L 275.862 210.261 269.638 210.261 L 263.415 210.261 263.415 198.464 C 263.415 183.993,263.979 185.366,258.032 185.366 C 252.085 185.366,252.649 183.992,252.649 198.470 L 252.649 210.273 244.491 210.183 L 236.333 210.093 236.245 198.179 C 236.184 190.070,236.037 186.122,235.783 185.816 C 235.249 185.172,226.652 185.172,226.118 185.816 C 225.864 186.122,225.716 190.070,225.656 198.179 L 225.568 210.093 219.344 210.093 L 213.120 210.093 213.032 197.999 C 212.965 188.837,212.842 185.841,212.527 185.641 C 211.769 185.159,203.323 185.313,202.905 185.816 C 202.651 186.122,202.504 190.070,202.443 198.179 L 202.355 210.093 196.131 210.093 L 189.907 210.093 189.739 197.813 L 189.571 185.534 184.826 185.441 C 181.141 185.369,179.995 185.450,179.700 185.807 C 179.436 186.124,179.292 189.928,179.231 198.179 L 179.142 210.093 171.068 210.093 L 162.994 210.093 162.906 198.179 C 162.844 189.928,162.700 186.124,162.437 185.807 C 162.141 185.450,160.995 185.369,157.311 185.441 L 152.565 185.534 152.397 197.813 L 152.229 210.093 144.071 210.183 L 135.913 210.273 135.913 198.470 C 135.913 183.992,136.477 185.366,130.530 185.366 C 124.583 185.366,125.147 183.993,125.147 198.464 L 125.147 210.261 118.923 210.261 L 112.700 210.261 112.700 198.464 C 112.700 183.993,113.264 185.366,107.317 185.366 C 101.370 185.366,101.934 183.992,101.934 198.470 L 101.934 210.273 93.776 210.183 L 85.618 210.093 85.530 198.179 C 85.469 190.070,85.322 186.122,85.068 185.816 C 84.534 185.172,75.937 185.172,75.403 185.816 C 75.149 186.122,75.002 190.070,74.941 198.179 L 74.853 210.093 68.629 210.093 L 62.405 210.093 62.317 197.999 C 62.250 188.837,62.128 185.841,61.812 185.641 C 61.054 185.159,52.608 185.313,52.190 185.816 C 51.936 186.122,51.789 190.070,51.729 198.179 L 51.640 210.093 45.416 210.093 L 39.193 210.093 39.024 197.813 L 38.856 185.534 34.111 185.441 C 30.426 185.369,29.280 185.450,28.985 185.807 C 28.721 186.124,28.577 189.928,28.516 198.179 L 28.427 210.093 20.353 210.093 L 12.279 210.093 12.193 154.079 C 12.145 123.272,12.179 97.876,12.267 97.645 C 12.394 97.308,44.548 97.241,172.151 97.308 L 331.876 97.393 331.876 153.743 M23.280 108.394 C 22.697 108.976,22.697 146.364,23.280 146.947 C 23.972 147.639,65.050 147.518,65.746 146.822 C 66.391 146.177,66.563 109.830,65.926 108.641 C 65.495 107.836,24.078 107.596,23.280 108.394 M84.981 108.522 C 84.561 109.616,84.753 146.519,85.181 146.947 C 85.946 147.713,126.919 147.508,127.618 146.735 C 128.375 145.899,128.459 109.570,127.707 108.579 C 127.052 107.716,85.312 107.661,84.981 108.522 M148.708 108.641 C 148.072 109.830,148.243 146.177,148.889 146.822 C 149.584 147.518,190.663 147.639,191.354 146.947 C 191.937 146.364,191.937 108.976,191.354 108.394 C 190.557 107.596,149.139 107.836,148.708 108.641 M65.069 108.531 C 65.882 108.842,65.882 146.498,65.069 146.810 C 63.974 147.231,24.044 147.038,23.616 146.611 C 23.034 146.028,23.034 109.313,23.616 108.730 C 24.044 108.302,63.974 108.110,65.069 108.531 M127.098 108.730 C 127.681 109.313,127.681 146.028,127.098 146.611 C 126.515 147.194,86.100 147.194,85.517 146.611 C 84.935 146.028,84.935 109.313,85.517 108.730 C 86.100 108.147,126.515 108.147,127.098 108.730 M190.771 108.675 C 191.402 109.012,191.421 109.578,191.421 127.670 C 191.421 145.762,191.402 146.328,190.771 146.666 C 190.068 147.042,150.530 147.180,149.565 146.810 C 148.850 146.536,148.740 108.837,149.453 108.549 C 150.318 108.200,190.110 108.321,190.771 108.675 M212.700 110.231 C 212.101 110.473,212.084 148.367,212.683 148.966 C 213.374 149.657,254.453 149.536,255.148 148.841 C 255.794 148.195,255.965 111.849,255.329 110.659 C 254.993 110.032,214.208 109.623,212.700 110.231 M278.284 110.412 C 277.594 111.103,277.714 148.145,278.409 148.841 C 279.213 149.645,319.946 149.645,320.750 148.841 C 321.445 148.145,321.565 111.103,320.875 110.412 C 320.291 109.829,278.868 109.829,278.284 110.412 M254.601 110.749 C 255.183 111.331,255.183 148.047,254.601 148.629 C 253.803 149.426,213.394 149.187,212.964 148.382 C 212.434 147.392,212.487 111.281,213.019 110.749 C 213.603 110.165,254.017 110.165,254.601 110.749 M320.524 129.314 C 320.587 142.920,320.506 148.243,320.231 148.574 C 319.596 149.339,279.681 149.245,278.832 148.476 C 278.058 147.775,277.857 111.512,278.623 110.746 C 278.934 110.436,283.910 110.360,299.733 110.426 L 320.437 110.513 320.524 129.314 M33.121 118.508 C 33.031 118.742,32.998 123.019,33.047 128.012 L 33.137 137.090 44.199 137.179 C 52.082 137.242,55.393 137.158,55.721 136.885 C 56.349 136.364,56.402 119.110,55.778 118.486 C 55.179 117.887,33.351 117.908,33.121 118.508 M94.937 118.486 C 94.362 119.061,94.362 136.280,94.937 136.854 C 95.515 137.432,117.101 137.432,117.679 136.854 C 118.254 136.280,118.254 119.061,117.679 118.486 C 117.101 117.908,95.515 117.908,94.937 118.486 M158.856 118.486 C 158.281 119.061,158.281 136.280,158.856 136.854 C 159.283 137.282,180.055 137.468,181.133 137.054 C 181.940 136.744,181.940 118.596,181.133 118.287 C 180.055 117.873,159.283 118.059,158.856 118.486 M55.341 127.670 L 55.341 136.754 44.407 136.754 L 33.474 136.754 33.384 128.012 C 33.334 123.205,33.368 119.077,33.459 118.840 C 33.589 118.500,35.904 118.428,44.482 118.498 L 55.341 118.587 55.341 127.670 M117.241 127.670 L 117.241 136.754 106.308 136.754 L 95.374 136.754 95.284 128.012 C 95.235 123.205,95.269 119.077,95.360 118.840 C 95.490 118.500,97.805 118.428,106.383 118.498 L 117.241 118.587 117.241 127.670 M181.161 127.670 L 181.161 136.754 170.732 136.848 C 164.996 136.899,159.962 136.859,159.546 136.757 L 158.789 136.573 158.789 127.692 C 158.789 120.904,158.888 118.771,159.209 118.639 C 159.441 118.545,164.474 118.494,170.395 118.527 L 181.161 118.587 181.161 127.670 M222.775 120.168 C 222.482 120.462,222.372 123.009,222.372 129.521 C 222.372 136.032,222.482 138.579,222.775 138.873 C 223.563 139.661,244.807 139.427,245.236 138.626 C 245.926 137.337,245.687 120.971,244.969 120.321 C 244.178 119.605,223.481 119.463,222.775 120.168 M288.562 120.128 C 287.818 120.561,287.644 138.140,288.377 138.873 C 288.954 139.451,310.205 139.451,310.782 138.873 C 311.566 138.089,311.335 120.541,310.535 120.113 C 309.660 119.645,289.367 119.659,288.562 120.128 M244.833 129.605 L 244.743 138.772 233.810 138.772 L 222.876 138.772 222.786 130.031 C 222.737 125.223,222.770 121.098,222.860 120.863 C 222.987 120.532,225.448 120.437,233.973 120.437 L 244.923 120.437 244.833 129.605 M310.771 129.311 C 310.835 135.452,310.748 138.153,310.478 138.478 C 309.954 139.109,289.341 139.164,288.713 138.537 C 288.273 138.096,288.106 121.089,288.538 120.657 C 288.664 120.531,293.698 120.468,299.724 120.517 L 310.681 120.606 310.771 129.311 " stroke="none" fill="#d8ccf4" fill-rule="evenodd"></path><path id="path4" d="M11.995 97.167 C 11.086 98.172,11.143 209.553,12.053 210.377 C 13.029 211.259,27.903 211.212,28.707 210.323 C 29.194 209.785,29.270 208.294,29.348 197.792 L 29.437 185.870 33.594 185.776 C 39.237 185.647,38.688 184.293,38.688 198.347 C 38.688 209.758,38.714 210.251,39.339 210.585 C 40.291 211.095,51.225 211.046,51.741 210.530 C 52.040 210.231,52.145 207.054,52.145 198.318 C 52.145 184.391,51.638 185.702,57.023 185.702 C 62.408 185.702,61.901 184.383,61.901 198.373 C 61.901 209.758,61.927 210.251,62.551 210.585 C 63.504 211.095,74.437 211.046,74.954 210.530 C 75.252 210.231,75.357 207.054,75.357 198.318 C 75.357 184.391,74.851 185.702,80.235 185.702 C 85.621 185.702,85.114 184.383,85.114 198.373 C 85.114 212.594,83.945 210.934,93.954 210.934 C 103.705 210.934,102.607 212.561,102.607 198.106 C 102.607 184.449,102.131 185.702,107.317 185.702 C 112.504 185.702,112.027 184.440,112.027 198.165 C 112.027 212.425,111.215 210.934,118.982 210.934 C 126.613 210.934,125.820 212.444,125.820 197.907 C 125.820 187.461,125.881 186.087,126.352 185.906 C 127.369 185.516,134.412 185.682,134.836 186.106 C 135.135 186.405,135.240 189.570,135.240 198.264 C 135.240 209.064,135.287 210.055,135.828 210.465 C 136.569 211.027,151.057 211.134,152.083 210.585 C 152.707 210.251,152.733 209.758,152.733 198.347 C 152.733 184.293,152.185 185.647,157.827 185.776 L 161.985 185.870 162.073 197.792 C 162.151 208.294,162.228 209.785,162.714 210.323 C 163.559 211.256,178.577 211.256,179.422 210.323 C 179.909 209.785,179.985 208.294,180.063 197.792 L 180.151 185.870 184.309 185.776 C 189.952 185.647,189.403 184.293,189.403 198.347 C 189.403 209.758,189.429 210.251,190.054 210.585 C 191.006 211.095,201.939 211.046,202.456 210.530 C 202.754 210.231,202.860 207.054,202.860 198.318 C 202.860 184.391,202.353 185.702,207.738 185.702 C 213.123 185.702,212.616 184.383,212.616 198.373 C 212.616 209.758,212.642 210.251,213.266 210.585 C 214.219 211.095,225.152 211.046,225.669 210.530 C 225.967 210.231,226.072 207.054,226.072 198.318 C 226.072 184.391,225.565 185.702,230.950 185.702 C 236.336 185.702,235.828 184.383,235.828 198.373 C 235.828 212.594,234.660 210.934,244.669 210.934 C 254.420 210.934,253.322 212.561,253.322 198.106 C 253.322 184.449,252.846 185.702,258.032 185.702 C 263.219 185.702,262.742 184.440,262.742 198.165 C 262.742 212.425,261.929 210.934,269.697 210.934 C 277.328 210.934,276.535 212.444,276.535 197.907 C 276.535 187.461,276.596 186.087,277.067 185.906 C 278.084 185.516,285.127 185.682,285.551 186.106 C 285.849 186.405,285.955 189.570,285.955 198.264 C 285.955 209.064,286.002 210.055,286.543 210.465 C 287.346 211.075,300.423 211.133,301.026 210.530 C 301.325 210.231,301.430 207.054,301.430 198.318 C 301.430 184.391,300.923 185.702,306.308 185.702 C 311.694 185.702,311.186 184.383,311.186 198.373 C 311.186 209.758,311.212 210.251,311.837 210.585 C 312.717 211.056,330.849 211.056,331.729 210.585 C 332.754 210.037,332.754 97.448,331.729 96.900 C 330.376 96.175,12.652 96.441,11.995 97.167 M331.876 153.743 L 331.876 210.093 321.783 210.093 L 311.690 210.093 311.602 198.179 C 311.542 190.070,311.394 186.122,311.140 185.816 C 310.606 185.172,302.009 185.172,301.475 185.816 C 301.221 186.122,301.074 190.070,301.014 198.179 L 300.925 210.093 293.776 210.183 L 286.627 210.274 286.627 198.471 C 286.627 183.992,287.192 185.366,281.245 185.366 C 275.298 185.366,275.862 183.993,275.862 198.464 L 275.862 210.261 269.638 210.261 L 263.415 210.261 263.415 198.464 C 263.415 183.993,263.979 185.366,258.032 185.366 C 252.085 185.366,252.649 183.992,252.649 198.470 L 252.649 210.273 244.491 210.183 L 236.333 210.093 236.245 198.179 C 236.184 190.070,236.037 186.122,235.783 185.816 C 235.249 185.172,226.652 185.172,226.118 185.816 C 225.864 186.122,225.716 190.070,225.656 198.179 L 225.568 210.093 219.344 210.093 L 213.120 210.093 213.032 197.999 C 212.965 188.837,212.842 185.841,212.527 185.641 C 211.769 185.159,203.323 185.313,202.905 185.816 C 202.651 186.122,202.504 190.070,202.443 198.179 L 202.355 210.093 196.131 210.093 L 189.907 210.093 189.739 197.813 L 189.571 185.534 184.826 185.441 C 181.141 185.369,179.995 185.450,179.700 185.807 C 179.436 186.124,179.292 189.928,179.231 198.179 L 179.142 210.093 171.068 210.093 L 162.994 210.093 162.906 198.179 C 162.844 189.928,162.700 186.124,162.437 185.807 C 162.141 185.450,160.995 185.369,157.311 185.441 L 152.565 185.534 152.397 197.813 L 152.229 210.093 144.071 210.183 L 135.913 210.273 135.913 198.470 C 135.913 183.992,136.477 185.366,130.530 185.366 C 124.583 185.366,125.147 183.993,125.147 198.464 L 125.147 210.261 118.923 210.261 L 112.700 210.261 112.700 198.464 C 112.700 183.993,113.264 185.366,107.317 185.366 C 101.370 185.366,101.934 183.992,101.934 198.470 L 101.934 210.273 93.776 210.183 L 85.618 210.093 85.530 198.179 C 85.469 190.070,85.322 186.122,85.068 185.816 C 84.534 185.172,75.937 185.172,75.403 185.816 C 75.149 186.122,75.002 190.070,74.941 198.179 L 74.853 210.093 68.629 210.093 L 62.405 210.093 62.317 197.999 C 62.250 188.837,62.128 185.841,61.812 185.641 C 61.054 185.159,52.608 185.313,52.190 185.816 C 51.936 186.122,51.789 190.070,51.729 198.179 L 51.640 210.093 45.416 210.093 L 39.193 210.093 39.024 197.813 L 38.856 185.534 34.111 185.441 C 30.426 185.369,29.280 185.450,28.985 185.807 C 28.721 186.124,28.577 189.928,28.516 198.179 L 28.427 210.093 20.353 210.093 L 12.279 210.093 12.193 154.079 C 12.145 123.272,12.179 97.876,12.267 97.645 C 12.394 97.308,44.548 97.241,172.151 97.308 L 331.876 97.393 331.876 153.743 M23.280 108.394 C 22.697 108.976,22.697 146.364,23.280 146.947 C 23.972 147.639,65.050 147.518,65.746 146.822 C 66.391 146.177,66.563 109.830,65.926 108.641 C 65.495 107.836,24.078 107.596,23.280 108.394 M84.981 108.522 C 84.561 109.616,84.753 146.519,85.181 146.947 C 85.946 147.713,126.919 147.508,127.618 146.735 C 128.375 145.899,128.459 109.570,127.707 108.579 C 127.052 107.716,85.312 107.661,84.981 108.522 M148.708 108.641 C 148.072 109.830,148.243 146.177,148.889 146.822 C 149.584 147.518,190.663 147.639,191.354 146.947 C 191.937 146.364,191.937 108.976,191.354 108.394 C 190.557 107.596,149.139 107.836,148.708 108.641 M65.069 108.531 C 65.882 108.842,65.882 146.498,65.069 146.810 C 63.974 147.231,24.044 147.038,23.616 146.611 C 23.034 146.028,23.034 109.313,23.616 108.730 C 24.044 108.302,63.974 108.110,65.069 108.531 M127.098 108.730 C 127.681 109.313,127.681 146.028,127.098 146.611 C 126.515 147.194,86.100 147.194,85.517 146.611 C 84.935 146.028,84.935 109.313,85.517 108.730 C 86.100 108.147,126.515 108.147,127.098 108.730 M190.771 108.675 C 191.402 109.012,191.421 109.578,191.421 127.670 C 191.421 145.762,191.402 146.328,190.771 146.666 C 190.068 147.042,150.530 147.180,149.565 146.810 C 148.850 146.536,148.740 108.837,149.453 108.549 C 150.318 108.200,190.110 108.321,190.771 108.675 M212.700 110.231 C 212.101 110.473,212.084 148.367,212.683 148.966 C 213.374 149.657,254.453 149.536,255.148 148.841 C 255.794 148.195,255.965 111.849,255.329 110.659 C 254.993 110.032,214.208 109.623,212.700 110.231 M278.284 110.412 C 277.594 111.103,277.714 148.145,278.409 148.841 C 279.213 149.645,319.946 149.645,320.750 148.841 C 321.445 148.145,321.565 111.103,320.875 110.412 C 320.291 109.829,278.868 109.829,278.284 110.412 M254.601 110.749 C 255.183 111.331,255.183 148.047,254.601 148.629 C 253.803 149.426,213.394 149.187,212.964 148.382 C 212.434 147.392,212.487 111.281,213.019 110.749 C 213.603 110.165,254.017 110.165,254.601 110.749 M320.524 129.314 C 320.587 142.920,320.506 148.243,320.231 148.574 C 319.596 149.339,279.681 149.245,278.832 148.476 C 278.058 147.775,277.857 111.512,278.623 110.746 C 278.934 110.436,283.910 110.360,299.733 110.426 L 320.437 110.513 320.524 129.314 M33.121 118.508 C 33.031 118.742,32.998 123.019,33.047 128.012 L 33.137 137.090 44.199 137.179 C 52.082 137.242,55.393 137.158,55.721 136.885 C 56.349 136.364,56.402 119.110,55.778 118.486 C 55.179 117.887,33.351 117.908,33.121 118.508 M94.937 118.486 C 94.362 119.061,94.362 136.280,94.937 136.854 C 95.515 137.432,117.101 137.432,117.679 136.854 C 118.254 136.280,118.254 119.061,117.679 118.486 C 117.101 117.908,95.515 117.908,94.937 118.486 M158.856 118.486 C 158.281 119.061,158.281 136.280,158.856 136.854 C 159.283 137.282,180.055 137.468,181.133 137.054 C 181.940 136.744,181.940 118.596,181.133 118.287 C 180.055 117.873,159.283 118.059,158.856 118.486 M55.341 127.670 L 55.341 136.754 44.407 136.754 L 33.474 136.754 33.384 128.012 C 33.334 123.205,33.368 119.077,33.459 118.840 C 33.589 118.500,35.904 118.428,44.482 118.498 L 55.341 118.587 55.341 127.670 M117.241 127.670 L 117.241 136.754 106.308 136.754 L 95.374 136.754 95.284 128.012 C 95.235 123.205,95.269 119.077,95.360 118.840 C 95.490 118.500,97.805 118.428,106.383 118.498 L 117.241 118.587 117.241 127.670 M181.161 127.670 L 181.161 136.754 170.732 136.848 C 164.996 136.899,159.962 136.859,159.546 136.757 L 158.789 136.573 158.789 127.692 C 158.789 120.904,158.888 118.771,159.209 118.639 C 159.441 118.545,164.474 118.494,170.395 118.527 L 181.161 118.587 181.161 127.670 M222.775 120.168 C 222.482 120.462,222.372 123.009,222.372 129.521 C 222.372 136.032,222.482 138.579,222.775 138.873 C 223.563 139.661,244.807 139.427,245.236 138.626 C 245.926 137.337,245.687 120.971,244.969 120.321 C 244.178 119.605,223.481 119.463,222.775 120.168 M288.562 120.128 C 287.818 120.561,287.644 138.140,288.377 138.873 C 288.954 139.451,310.205 139.451,310.782 138.873 C 311.566 138.089,311.335 120.541,310.535 120.113 C 309.660 119.645,289.367 119.659,288.562 120.128 M244.833 129.605 L 244.743 138.772 233.810 138.772 L 222.876 138.772 222.786 130.031 C 222.737 125.223,222.770 121.098,222.860 120.863 C 222.987 120.532,225.448 120.437,233.973 120.437 L 244.923 120.437 244.833 129.605 M310.771 129.311 C 310.835 135.452,310.748 138.153,310.478 138.478 C 309.954 139.109,289.341 139.164,288.713 138.537 C 288.273 138.096,288.106 121.089,288.538 120.657 C 288.664 120.531,293.698 120.468,299.724 120.517 L 310.681 120.606 310.771 129.311 " stroke="none" fill="#d8ccf4" fill-rule="evenodd"></path></g></svg>