<!DOCTYPE svg PUBLIC "-//W3C//DTD SVG 20010904//EN" "http://www.w3.org/TR/2001/REC-SVG-20010904/DTD/svg10.dtd">
<svg version="1.0" xmlns="http://www.w3.org/2000/svg" width="276px" height="184px" viewBox="0 0 2760 1840" preserveAspectRatio="xMidYMid meet">
<g id="layer101" fill="#00a2e8" stroke="none">
 <path d="M0 920 l0 -920 1380 0 1380 0 0 920 0 920 -1380 0 -1380 0 0 -920z m2660 0 l0 -820 -1280 0 -1280 0 0 820 0 820 1280 0 1280 0 0 -820z"/>
 <path d="M166 1667 c-11 -8 -17 -23 -14 -37 7 -54 108 -49 108 4 0 41 -57 60 -94 33z"/>
 <path d="M2506 1667 c-11 -8 -17 -23 -14 -37 7 -54 108 -49 108 4 0 41 -57 60 -94 33z"/>
 <path d="M736 1584 c-189 -46 -358 -182 -453 -365 -52 -101 -73 -191 -73 -316 0 -155 39 -278 126 -404 86 -124 256 -239 404 -274 84 -19 247 -19 330 1 245 57 458 270 515 514 19 84 19 247 -1 330 -20 85 -82 212 -136 277 -94 113 -241 205 -380 238 -79 19 -253 18 -332 -1z m309 -76 c68 -14 166 -60 227 -104 l50 -37 -50 -49 -49 -50 -59 38 c-81 52 -158 74 -258 74 -91 0 -168 -19 -232 -56 l-42 -25 -46 53 c-51 60 -52 59 34 103 132 67 274 85 425 53z m-516 -209 l44 -49 -25 -28 c-76 -81 -118 -193 -118 -317 0 -93 18 -164 60 -235 l29 -49 -52 -45 -52 -46 -19 23 c-29 33 -82 155 -95 215 -15 74 -14 227 4 292 20 77 77 186 125 243 23 26 45 47 48 46 4 -1 27 -23 51 -50z m491 -11 c19 -5 59 -24 88 -42 l54 -31 -83 -76 c-75 -70 -86 -76 -108 -67 -14 5 -50 8 -80 7 l-55 -3 -73 80 -72 79 22 18 c60 47 208 64 307 35z m397 -36 c72 -105 105 -216 105 -347 0 -137 -40 -260 -119 -367 l-37 -51 -48 51 -48 51 37 58 c51 80 73 158 73 257 0 99 -19 170 -68 250 l-36 59 50 43 c27 24 51 44 54 44 3 0 19 -21 37 -48z m-661 -209 c14 -19 14 -25 -1 -54 -12 -22 -16 -50 -13 -94 l3 -62 -81 -76 c-45 -43 -84 -77 -86 -77 -3 0 -18 26 -34 58 -27 53 -29 65 -29 167 0 101 2 116 27 163 15 29 39 68 54 88 l28 36 58 -64 c32 -34 65 -73 74 -85z m488 70 c14 -21 32 -58 41 -83 20 -56 21 -179 2 -240 -15 -51 -64 -133 -76 -128 -4 2 -42 41 -84 88 -60 67 -74 88 -66 101 11 21 11 106 0 134 -6 16 6 33 68 92 42 40 79 72 83 73 4 0 19 -17 32 -37z m-330 -360 c28 3 60 7 71 9 15 2 40 -19 93 -77 40 -44 72 -83 72 -87 0 -5 -21 -21 -47 -38 -126 -78 -318 -66 -437 29 l-36 29 88 80 c87 80 87 80 116 65 19 -10 45 -13 80 -10z m-305 -221 c95 -74 177 -102 296 -102 97 0 169 19 248 67 l59 35 35 -33 c53 -52 58 -66 31 -90 -37 -31 -178 -96 -236 -108 -68 -14 -206 -14 -274 0 -71 15 -184 69 -248 120 l-52 41 48 49 c27 27 50 49 52 49 2 0 21 -13 41 -28z"/>
 <path d="M1958 1543 c-22 -3 -28 -10 -28 -28 0 -23 2 -24 50 -18 34 4 50 2 50 -6 0 -6 -4 -11 -9 -11 -5 0 -16 -6 -23 -13 -7 -7 -25 -18 -40 -24 -22 -10 -28 -19 -28 -43 0 -20 5 -30 15 -30 8 0 15 -4 15 -9 0 -11 59 -20 93 -14 18 4 27 12 27 24 0 17 -5 18 -39 13 -64 -10 -64 17 2 50 20 11 37 25 37 32 0 7 6 15 13 17 10 4 10 6 0 6 -7 1 -13 10 -13 20 0 12 -11 23 -31 30 -32 11 -41 11 -91 4z"/>
 <path d="M2170 1543 c-45 -9 -50 -20 -50 -109 l0 -84 30 0 29 0 3 73 c3 69 4 72 28 72 24 0 25 -3 28 -72 l3 -73 29 0 30 0 0 75 c0 43 -4 75 -10 75 -5 0 -10 6 -10 14 0 8 -14 19 -31 25 -33 11 -37 11 -79 4z"/>
 <path d="M1760 1445 l0 -95 60 0 c33 0 60 4 60 9 0 5 9 11 20 14 23 6 26 33 9 71 -9 19 -22 27 -55 32 -40 6 -44 9 -44 35 0 24 -4 29 -25 29 -25 0 -25 0 -25 -95z"/>
 <path d="M1685 1238 c-3 -7 -4 -135 -3 -283 3 -262 4 -270 23 -270 20 0 20 7 20 280 0 259 -1 280 -18 283 -9 2 -19 -3 -22 -10z"/>
 <path d="M2377 1158 c-74 -49 -104 -75 -97 -82 17 -17 12 -25 -45 -62 -30 -20 -55 -40 -55 -45 0 -4 9 -11 21 -14 18 -6 11 -14 -51 -55 l-71 -47 81 -48 c45 -25 83 -45 84 -43 1 2 21 33 44 70 34 54 38 67 26 72 -12 5 -5 18 33 63 30 35 43 58 36 60 -21 7 -15 21 40 101 57 82 70 102 65 102 -2 0 -52 -32 -111 -72z"/>
 <path d="M1945 1198 c-3 -7 -4 -117 -3 -243 3 -222 4 -230 23 -230 19 0 20 7 20 240 0 221 -1 240 -18 243 -9 2 -19 -3 -22 -10z"/>
 <path d="M1765 1178 c-3 -7 -4 -103 -3 -213 3 -192 4 -200 23 -200 19 0 20 7 20 210 0 192 -1 210 -18 213 -9 2 -19 -3 -22 -10z"/>
 <path d="M1845 1078 c-3 -8 -4 -72 -3 -144 3 -121 4 -129 23 -129 19 0 20 7 20 140 0 125 -2 140 -18 143 -9 2 -19 -3 -22 -10z"/>
 <path d="M1660 450 l0 -130 420 0 420 0 0 130 0 130 -420 0 -420 0 0 -130z m760 0 l0 -50 -340 0 -340 0 0 50 0 50 340 0 340 0 0 -50z"/>
 <path d="M166 255 c-9 -13 -16 -31 -16 -40 0 -28 31 -65 55 -65 24 0 55 37 55 65 0 28 -31 65 -55 65 -13 0 -30 -10 -39 -25z"/>
 <path d="M2506 207 c-11 -8 -17 -23 -14 -37 7 -54 108 -49 108 4 0 41 -57 60 -94 33z"/>
 </g>
<g id="layer102" fill="#1fc6f6" stroke="none">
 <path d="M0 920 l0 -920 1380 0 1380 0 0 920 0 920 -1380 0 -1380 0 0 -920z m2740 0 l0 -900 -1360 0 -1360 0 0 900 0 900 1360 0 1360 0 0 -900z"/>
 <path d="M1802 1508 c-2 -36 0 -38 28 -38 17 0 30 -4 30 -10 0 -5 9 -10 20 -10 21 0 37 -38 26 -65 -3 -9 -2 -13 4 -10 13 8 13 38 -1 69 -9 19 -22 27 -55 32 -39 6 -43 9 -47 38 -4 29 -4 29 -5 -6z"/>
 <path d="M1931 1518 c-1 -27 0 -27 49 -21 51 6 71 -9 30 -22 -18 -6 -29 -25 -15 -25 17 0 45 39 39 53 -7 19 -74 25 -74 7 0 -20 -19 -10 -23 13 -4 19 -4 19 -6 -5z"/>
 <path d="M2048 1533 c6 -2 12 -13 12 -24 0 -10 6 -19 13 -19 7 0 8 -3 2 -8 -5 -4 -16 -17 -23 -30 -12 -21 -11 -22 8 -10 11 7 20 18 20 25 0 6 6 14 13 16 10 4 10 6 0 6 -7 1 -13 10 -13 20 0 17 -20 32 -38 30 -4 0 -1 -3 6 -6z"/>
 <path d="M2130 1525 c-6 -8 -10 -20 -7 -27 4 -8 6 -7 6 4 1 9 9 22 19 27 9 6 12 11 6 11 -6 0 -17 -7 -24 -15z"/>
 <path d="M2248 1533 c6 -2 12 -11 12 -19 0 -8 5 -14 10 -14 6 0 10 -28 10 -65 0 -50 -3 -65 -15 -65 -10 0 -15 16 -18 58 l-3 57 -2 -67 -2 -68 30 0 30 0 0 75 c0 43 -4 75 -10 75 -5 0 -10 6 -10 14 0 13 -22 27 -38 25 -4 0 -1 -3 6 -6z"/>
 <path d="M2178 1499 c-13 -13 -18 -36 -18 -74 0 -48 -2 -55 -20 -55 -11 0 -20 -4 -20 -10 0 -5 14 -10 30 -10 l30 0 0 70 c0 54 4 72 15 76 8 4 15 10 15 15 0 14 -13 9 -32 -12z"/>
 <path d="M1946 1437 c-11 -8 -16 -20 -13 -28 4 -11 6 -11 6 2 1 9 11 21 24 27 12 6 17 11 11 11 -5 1 -18 -5 -28 -12z"/>
 <path d="M1802 1405 c3 -24 0 -35 -9 -35 -7 0 -13 -4 -13 -10 0 -5 23 -10 50 -10 28 0 50 5 50 10 0 6 -9 10 -20 10 -17 0 -18 3 -9 19 17 27 4 51 -27 51 -24 0 -26 -3 -22 -35z"/>
 <path d="M1987 1406 c-7 -18 12 -36 38 -35 17 1 16 2 -5 8 -16 5 -24 13 -22 24 3 20 -4 22 -11 3z"/>
 <path d="M2053 1370 c-1 -11 4 -20 13 -20 8 0 14 9 14 20 0 11 -6 20 -13 20 -7 0 -13 -9 -14 -20z"/>
 <path d="M1960 1360 c0 -5 7 -10 15 -10 8 0 15 5 15 10 0 6 -7 10 -15 10 -8 0 -15 -4 -15 -10z"/>
 </g>
<g id="layer103" fill="#90b2e8" stroke="none">
 <path d="M0 920 l0 -920 1380 0 1380 0 0 920 0 920 -1380 0 -1380 0 0 -920z m2740 0 l0 -900 -1360 0 -1360 0 0 900 0 900 1360 0 1360 0 0 -900z"/>
 <path d="M1803 1508 c2 -28 6 -33 30 -34 24 -1 24 -1 3 3 -18 3 -26 12 -30 34 -6 28 -6 27 -3 -3z"/>
 <path d="M1931 1518 c-1 -21 4 -28 17 -28 11 0 13 3 6 8 -7 4 -14 16 -17 27 -4 15 -5 14 -6 -7z"/>
 <path d="M2130 1525 c-6 -8 -10 -20 -7 -27 4 -8 6 -7 6 4 1 9 9 22 19 27 9 6 12 11 6 11 -6 0 -17 -7 -24 -15z"/>
 <path d="M1980 1510 c0 -5 7 -10 15 -10 8 0 15 5 15 10 0 6 -7 10 -15 10 -8 0 -15 -4 -15 -10z"/>
 <path d="M2160 1415 c0 -37 4 -65 10 -65 6 0 10 28 10 65 0 37 -4 65 -10 65 -6 0 -10 -28 -10 -65z"/>
 <path d="M2243 1415 c0 -38 2 -53 4 -32 2 20 2 52 0 70 -2 17 -4 1 -4 -38z"/>
 <path d="M1946 1437 c-11 -8 -16 -20 -13 -28 4 -11 6 -11 6 2 1 9 11 21 24 27 12 6 17 11 11 11 -5 1 -18 -5 -28 -12z"/>
 <path d="M1800 1410 c0 -28 3 -31 28 -28 21 2 27 8 27 28 0 20 -6 26 -27 28 -25 3 -28 0 -28 -28z"/>
 <path d="M2057 1370 c3 -11 9 -20 14 -20 5 0 9 9 9 20 0 11 -6 20 -14 20 -9 0 -12 -7 -9 -20z"/>
 </g>
<g id="layer104" fill="#abe8f9" stroke="none">
 <path d="M0 920 l0 -920 1380 0 1380 0 0 920 0 920 -1380 0 -1380 0 0 -920z m2740 0 l0 -900 -1360 0 -1360 0 0 900 0 900 1360 0 1360 0 0 -900z"/>
 <path d="M1803 1508 c2 -28 6 -33 30 -34 24 -1 24 -1 3 3 -18 3 -26 12 -30 34 -6 28 -6 27 -3 -3z"/>
 <path d="M1980 1510 c0 -5 7 -10 15 -10 8 0 15 5 15 10 0 6 -7 10 -15 10 -8 0 -15 -4 -15 -10z"/>
 <path d="M2160 1415 c0 -37 4 -65 10 -65 6 0 10 28 10 65 0 37 -4 65 -10 65 -6 0 -10 -28 -10 -65z"/>
 <path d="M1800 1410 c0 -28 3 -31 28 -28 21 2 27 8 27 28 0 20 -6 26 -27 28 -25 3 -28 0 -28 -28z"/>
 <path d="M2057 1370 c3 -11 9 -20 14 -20 5 0 9 9 9 20 0 11 -6 20 -14 20 -9 0 -12 -7 -9 -20z"/>
 </g>
<g id="layer105" fill="#feffff" stroke="none">
 <path d="M0 920 l0 -920 1380 0 1380 0 0 920 0 920 -1380 0 -1380 0 0 -920z m2740 0 l0 -900 -1360 0 -1360 0 0 900 0 900 1360 0 1360 0 0 -900z"/>
 <path d="M1810 1410 c0 -23 4 -30 20 -30 25 0 36 25 20 45 -21 25 -40 18 -40 -15z"/>
 </g>

</svg>