<svg class="ldi-eto9og" width="100%" height="100%" xmlns="http://www.w3.org/2000/svg" xmlns:xlink="http://www.w3.org/1999/xlink" viewBox="0 0 100 100" preserveAspectRatio="xMidYMid"><!--?xml version="1.0" encoding="utf-8"?--><!--Generator: Adobe Illustrator 21.0.0, SVG Export Plug-In . SVG Version: 6.00 Build 0)--><svg version="1.1" id="Layer_1" xmlns="http://www.w3.org/2000/svg" xmlns:xlink="http://www.w3.org/1999/xlink" x="0px" y="0px" viewBox="0 0 100 100" style="transform-origin: 50px 50px 0px;" xml:space="preserve"><g style="transform-origin: 50px 50px 0px;"><g style="transform-origin: 50px 50px 0px; transform: scale(0.6);"><g class="ld ld-static" style="transform-origin: 50px 50px 0px; animation-duration: 1s; animation-delay: -1s; animation-direction: normal;"><g><style type="text/css" style="transform-origin: 50px 50px 0px;">.st0{fill:#999998;} .st1{fill:#323232;} .st2{fill:#CCCCCB;} .st3{fill:#ACBD81;} .st4{fill:#849B87;}</style><g style="transform-origin: 50px 50px 0px;"><polygon class="st2" points="55.359,24.07 44.641,24.07 44.641,56.888 24.217,37.801 24.217,51.621 50,77.403 75.782,51.621 75.782,37.801 55.359,56.888 " fill="none" style="fill: none;"></polygon></g><g style="transform-origin: 50px 50px 0px;"><path class="st1" d="M50,10c-22.091,0-40,17.909-40,40c0,22.091,17.909,40,40,40c22.091,0,40-17.909,40-40 C90,27.909,72.091,10,50,10z M75.782,51.621L50,77.403L24.217,51.621v-13.82l20.424,19.087V24.07h10.718v32.818l20.423-19.087 V51.621z" fill="#0096e5" style="fill: rgb(0, 150, 229);"></path></g><metadata xmlns:d="https://loading.io/stock/" style="transform-origin: 50px 50px 0px;">
<d:name style="transform-origin: 50px 50px 0px;">down</d:name>
<d:tags style="transform-origin: 50px 50px 0px;">south,download,bottom,direction,way,circle,down,arrow</d:tags>
<d:license style="transform-origin: 50px 50px 0px;">cc-by</d:license>
<d:slug style="transform-origin: 50px 50px 0px;">eto9og</d:slug>
</metadata></g></g></g></g><style type="text/css" style="transform-origin: 50px 50px 0px;"></style></svg></svg>
