<svg xmlns="http://www.w3.org/2000/svg" viewBox="0 0 108.133 108.133">
  <ellipse cx="97.459" cy="32.497" rx="1.253" ry=".63" fill="#010002"/>
  <path d="M92.413 68.2c-1.7.977-2.945 1.993-3.876 3.021-.422-.222-.898-.361-1.417-.376.165-1.342.691-2.913 1.961-4.971h-4.137c-.286 2.444-.097 4.144.315 5.472-.426.268-.784.63-1.049 1.056-1.081-.787-2.172-1.893-3.303-3.454-.569 1.267-1.131 2.119-2.083 2.845 1.958 1.464 3.529 2.162 4.899 2.473.021.519.157.991.383 1.417-1.253.533-2.888.859-5.286.795 1.142 1.457 2.169 2.527 2.788 3.593 1.7-.973 2.945-1.997 3.869-3.024.426.222.902.365 1.421.379-.161 1.342-.691 2.917-1.958 4.975h4.137c.283-2.448.093-4.144-.319-5.468.426-.272.787-.633 1.049-1.059 1.084.791 2.172 1.9 3.307 3.457.565-1.263 1.127-2.115 2.083-2.849-1.961-1.46-3.532-2.162-4.899-2.473-.021-.515-.157-.991-.39-1.417 1.256-.53 2.892-.855 5.293-.791-1.145-1.461-2.172-2.531-2.788-3.601zm-5.4 6.968c-.569 0-1.031-.462-1.031-1.034s.462-1.034 1.031-1.034c.573 0 1.034.462 1.034 1.034-.004.576-.465 1.034-1.034 1.034z" fill="#010002"/>
  <path d="M106.041 51.565l2.072-23.853c.122-1.374-.909-2.502-2.29-2.502h-.58l.251-3.772c.183-2.756-1.925-5.007-4.688-5.007H73.213c-2.759 0-4.86 2.255-4.685 5.007l.247 3.772h-.587c-1.378 0-2.409 1.124-2.294 2.502l.229 2.623h7.083v-3.006h27.6v7.53H75.152v49.159h-6.449l-.179 2.677c-.183 2.756 1.925 5.003 4.685 5.003h27.6c2.759 0 4.867-2.251 4.688-5.003l-.251-3.776h.587c1.378 0 2.409-1.124 2.29-2.502l-2.072-23.849c-.124-1.381-.124-3.625-.01-5.003zM93.773 22.551c-.787 0-1.428-.637-1.428-1.428 0-.787.644-1.428 1.428-1.428.791 0 1.428.641 1.428 1.428 0 .795-.644 1.428-1.428 1.428zm4.942.451c-1.038 0-1.875-.841-1.875-1.882s.837-1.882 1.875-1.882 1.882.841 1.882 1.882c.001 1.041-.844 1.882-1.882 1.882zm-8.564 18.124c0-.347.279-.626.626-.626s.626.283.626.626v20.077c0 .344-.279.623-.626.623s-.626-.279-.626-.623V41.126zm-7.53 0c0-.347.279-.626.623-.626.351 0 .63.283.63.626v20.077c0 .344-.279.623-.63.623-.344 0-.623-.279-.623-.623V41.126zm4.392 43.046c-5.54 0-10.039-4.488-10.039-10.035 0-5.544 4.499-10.035 10.039-10.035 5.544 0 10.039 4.491 10.039 10.035-.004 5.547-4.499 10.035-10.039 10.035z" fill="#010002"/>
  <path fill="#010002" d="M0 33.918h71.577v46.525H0zM25.052 84.544l-7.158 7.158h35.789l-7.158-7.158z"/>
</svg>
