<?xml version="1.0" ?><svg enable-background="new 0 0 52 52" id="Layer_1" version="1.1" viewBox="0 0 52 52" xml:space="preserve" xmlns="http://www.w3.org/2000/svg" xmlns:xlink="http://www.w3.org/1999/xlink"><g><g><g><path d="M2,16v20h48V16H2z M48,34H4V18h44V34z" fill="#0096E6"/></g></g><g><g><path d="M6,20v8h6v-8H6z M10,26H8v-4h2V26z" fill="#0096E6"/></g><g><rect fill="#D0E8F9" height="4" width="2" x="8" y="22"/></g></g><g><g><path d="M20.2587891,27.9978638h-6v-8h6V27.9978638z M16.2587891,25.9978638h2v-4h-2V25.9978638z" fill="#0096E6"/></g></g><g><g><path d="M23,20v8h6v-8H23z M27,26h-2v-4h2V26z" fill="#0096E6"/></g><g><rect fill="#D0E8F9" height="4" width="2" x="25" y="22"/></g></g><g><g><path d="M37.4912109,27.9978638h-6v-8h6V27.9978638z M33.4912109,25.9978638h2v-4h-2V25.9978638z" fill="#0096E6"/></g></g><g><g><path d="M40,20v8h6v-8H40z M44,26h-2v-4h2V26z" fill="#0096E6"/></g><g><rect fill="#D0E8F9" height="4" width="2" x="42" y="22"/></g></g><g><g><rect fill="#0096E6" height="5.0004883" width="2" x="44" y="29.9978638"/></g></g><g><g><rect fill="#0096E6" height="5.0004883" width="2" x="39.777832" y="29.9978638"/></g></g><g><g><rect fill="#0096E6" height="5.0004883" width="2" x="35.5556641" y="29.9978638"/></g></g><g><g><rect fill="#0096E6" height="5.0004883" width="2" x="31.3334961" y="29.9978638"/></g></g><g><g><rect fill="#0096E6" height="5.0004883" width="2" x="27.1108398" y="29.9978638"/></g></g><g><g><rect fill="#0096E6" height="5.0004883" width="2" x="22.8886719" y="29.9978638"/></g></g><g><g><rect fill="#0096E6" height="5.0004883" width="2" x="18.6665039" y="29.9978638"/></g></g><g><g><rect fill="#0096E6" height="5.0004883" width="2" x="14.4443359" y="29.9978638"/></g></g><g><g><rect fill="#0096E6" height="5.0004883" width="2" x="10.222168" y="29.9978638"/></g></g><g><g><rect fill="#0096E6" height="5.0004883" width="2" x="6" y="29.9978638"/></g></g></g></svg>