<?xml version="1.0" ?><svg enable-background="new 0 0 52 52" id="Layer_1" version="1.1" viewBox="0 0 52 52" xml:space="preserve" xmlns="http://www.w3.org/2000/svg" xmlns:xlink="http://www.w3.org/1999/xlink"><g><g><g><path d="M15,2v48h22V2H15z M35,48H17V4h18V48z" fill="#0096E6"/></g></g><g><g><rect fill="#0096E6" height="2" width="12" x="19.9984131" y="6.0010376"/></g></g><g><g><rect fill="#0096E6" height="2" width="12" x="19.9984131" y="12.0010376"/></g></g><g><g><rect fill="#0096E6" height="2" width="12" x="19.9984131" y="18.0010376"/></g></g><g><g><rect fill="#0096E6" height="2" width="12" x="19.9984131" y="26.0010376"/></g></g><g><g><path d="M26,33c-2.7600098,0-5,2.2399902-5,5s2.2399902,5,5,5s5-2.2399902,5-5S28.7600098,33,26,33z M26,41     c-1.6599731,0-3-1.3400269-3-3c0-1.6500244,1.3400269-3,3-3c1.6500244,0,3,1.3499756,3,3C29,39.6599731,27.6500244,41,26,41z" fill="#0096E6"/></g><g><path d="M29,38c0,1.6599731-1.3499756,3-3,3c-1.6599731,0-3-1.3400269-3-3c0-1.6500244,1.3400269-3,3-3     C27.6500244,35,29,36.3499756,29,38z" fill="#D0E8F9"/></g></g></g></svg>