<?xml version="1.0" ?><svg enable-background="new 0 0 52 52" id="Layer_1" version="1.1" viewBox="0 0 52 52" xml:space="preserve" xmlns="http://www.w3.org/2000/svg" xmlns:xlink="http://www.w3.org/1999/xlink"><g><g><g><polygon fill="#0096E6" points="50.3300171,36 1.6699829,36 2.0100098,34.8499756 2.2600098,34 10.2600098,7 26.9099731,7      26.9099731,9 11.7600098,9 4.3499756,34 47.6900024,34 43.2199707,18 43.0199585,17.2699585 44.9500122,16.7299805      45.2999878,18 49.7699585,34 50.0100098,34.8499756    "/></g></g><g><g><path d="M2.0100098,34v16h48V34H2.0100098z M48.0100098,48h-44V36h44V48z" fill="#0096E6"/></g><g><path d="M4.0100098,36v12h44V36H4.0100098z M11.0100098,46h-4v-2h4V46z M45.0100098,41h-38v-2h38V41z" fill="#D0E8F9"/></g></g><g><g><rect fill="#0096E6" height="2" width="4" x="7.0100098" y="44"/></g></g><g><g><rect fill="#0096E6" height="2" width="38" x="7.0100098" y="39"/></g></g><g><g><path d="M26.0100098,2v16h24V2H26.0100098z M48.0100098,16h-20V4h20V16z" fill="#0096E6"/></g><g><path d="M28.0100098,4v12h20V4H28.0100098z M34.3999634,13.0299683     C34.0700073,13.3399658,33.6400146,13.5,33.0999756,13.5c-0.7799683,0-1.4799805-0.3099976-2.0899658-0.9400024     l0.5299683-0.7300415c0.5100098,0.5100098,1.0400391,0.7600098,1.5800171,0.7600098     c0.2799683,0,0.4899902-0.0700073,0.6499634-0.2000122c0.1600342-0.1399536,0.2400513-0.3199463,0.2400513-0.539978     c0-0.2299805-0.0700073-0.3999634-0.2200317-0.5200195c-0.1499634-0.1299438-0.4099731-0.2399902-0.7799683-0.3399658     c-0.3699951-0.1099854-0.6500244-0.2000122-0.8400269-0.289978c-0.1900024-0.0800171-0.3699951-0.1900024-0.5100098-0.3300171     c-0.2999878-0.2600098-0.4500122-0.6600342-0.4500122-1.1900024c0-0.5400391,0.1700439-0.9500122,0.5100098-1.2399902     c0.3400269-0.2900391,0.75-0.4400024,1.25-0.4400024c0.3200073,0,0.6400146,0.0599976,0.960022,0.1799927     C34.2399902,7.7999878,34.5199585,7.9799805,34.75,8.2000122l-0.4500122,0.7299805     c-0.1500244-0.1500244-0.3499756-0.2800293-0.6099854-0.3800049c-0.25-0.0999756-0.5-0.1500244-0.75-0.1500244     s-0.4500122,0.0599976-0.6099854,0.1799927c-0.1600342,0.1100464-0.2400513,0.2900391-0.2400513,0.5200195     c0,0.2399902,0.0800171,0.4199829,0.2400513,0.539978c0.1599731,0.1300049,0.5,0.2600098,1.0099487,0.4100342     c0.5200195,0.1400146,0.9100342,0.3399658,1.1700439,0.5999756c0.2599487,0.2600098,0.3899536,0.6400146,0.3899536,1.1500244     C34.8999634,12.2999878,34.7299805,12.7099609,34.3999634,13.0299683z M38.9299927,13.0299683     C38.5999756,13.3399658,38.1699829,13.5,37.6300049,13.5c-0.7800293,0-1.4800415-0.3099976-2.0900269-0.9400024     l0.5300293-0.7300415c0.5100098,0.5100098,1.039978,0.7600098,1.5799561,0.7600098     c0.2800293,0,0.4900513-0.0700073,0.6500244-0.2000122c0.1599731-0.1399536,0.2399902-0.3199463,0.2399902-0.539978     c0-0.2299805-0.0700073-0.3999634-0.2199707-0.5200195c-0.1500244-0.1299438-0.4100342-0.2399902-0.7800293-0.3399658     c-0.3699951-0.1099854-0.6499634-0.2000122-0.8399658-0.289978C36.5,10.6199951,36.3300171,10.5100098,36.1900024,10.3699951     c-0.2999878-0.2600098-0.4500122-0.6600342-0.4500122-1.1900024c0-0.5400391,0.1699829-0.9500122,0.5100098-1.2399902     C36.5899658,7.6499634,37,7.5,37.5,7.5c0.3200073,0,0.6400146,0.0599976,0.9599609,0.1799927     c0.3099976,0.1199951,0.5900269,0.2999878,0.8200073,0.5200195l-0.4499512,0.7299805     c-0.1500244-0.1500244-0.3500366-0.2800293-0.6100464-0.3800049c-0.25-0.0999756-0.5-0.1500244-0.75-0.1500244     s-0.4500122,0.0599976-0.6099854,0.1799927c-0.1599731,0.1100464-0.2399902,0.2900391-0.2399902,0.5200195     c0,0.2399902,0.0800171,0.4199829,0.2399902,0.539978c0.1599731,0.1300049,0.5,0.2600098,1.0100098,0.4100342     c0.5200195,0.1400146,0.9099731,0.3399658,1.1699829,0.5999756s0.3900146,0.6400146,0.3900146,1.1500244     C39.4299927,12.2999878,39.2600098,12.7099609,38.9299927,13.0299683z M44.2999878,12.6499634     c-0.4699707,0.5200195-1.1799927,0.7800293-2.1500244,0.7800293h-1.6699829V7.6399536h1.7299805     c0.9000244,0,1.5900269,0.25,2.0700073,0.7600098c0.4899902,0.5100098,0.7300415,1.210022,0.7300415,2.1100464     C45.0100098,11.4099731,44.7699585,12.1199951,44.2999878,12.6499634z" fill="#D0E8F9"/></g></g><g><g><g><g><path d="M34.5100098,10.6499634c-0.2600098-0.2600098-0.6500244-0.4599609-1.1700439-0.5999756       c-0.5099487-0.1500244-0.8499756-0.2800293-1.0099487-0.4100342c-0.1600342-0.1199951-0.2400513-0.2999878-0.2400513-0.539978       c0-0.2299805,0.0800171-0.4099731,0.2400513-0.5200195c0.1599731-0.1199951,0.3599854-0.1799927,0.6099854-0.1799927       s0.5,0.0500488,0.75,0.1500244c0.2600098,0.0999756,0.4599609,0.2299805,0.6099854,0.3800049L34.75,8.2000122       c-0.2300415-0.2200317-0.5100098-0.4000244-0.8200073-0.5200195C33.6099854,7.5599976,33.289978,7.5,32.9699707,7.5       c-0.5,0-0.9099731,0.1499634-1.25,0.4400024c-0.3399658,0.289978-0.5100098,0.6999512-0.5100098,1.2399902       c0,0.5299683,0.1500244,0.9299927,0.4500122,1.1900024c0.1400146,0.1400146,0.3200073,0.25,0.5100098,0.3300171       c0.1900024,0.0899658,0.4700317,0.1799927,0.8400269,0.289978c0.3699951,0.0999756,0.6300049,0.210022,0.7799683,0.3399658       c0.1500244,0.1200562,0.2200317,0.2900391,0.2200317,0.5200195c0,0.2200317-0.0800171,0.4000244-0.2400513,0.539978       c-0.1599731,0.1300049-0.3699951,0.2000122-0.6499634,0.2000122c-0.539978,0-1.0700073-0.25-1.5800171-0.7600098       l-0.5299683,0.7300415C31.6199951,13.1900024,32.3200073,13.5,33.0999756,13.5       c0.5400391,0,0.9700317-0.1600342,1.2999878-0.4700317c0.3300171-0.3200073,0.5-0.7299805,0.5-1.2299805       C34.8999634,11.289978,34.7699585,10.9099731,34.5100098,10.6499634z" fill="#0096E6"/></g></g><g><g><path d="M39.039978,10.6499634c-0.2600098-0.2600098-0.6499634-0.4599609-1.1699829-0.5999756       c-0.5100098-0.1500244-0.8500366-0.2800293-1.0100098-0.4100342c-0.1599731-0.1199951-0.2399902-0.2999878-0.2399902-0.539978       c0-0.2299805,0.0800171-0.4099731,0.2399902-0.5200195c0.1599731-0.1199951,0.3599854-0.1799927,0.6099854-0.1799927       s0.5,0.0500488,0.75,0.1500244c0.2600098,0.0999756,0.460022,0.2299805,0.6100464,0.3800049l0.4499512-0.7299805       c-0.2299805-0.2200317-0.5100098-0.4000244-0.8200073-0.5200195C38.1400146,7.5599976,37.8200073,7.5,37.5,7.5       c-0.5,0-0.9100342,0.1499634-1.25,0.4400024c-0.3400269,0.289978-0.5100098,0.6999512-0.5100098,1.2399902       c0,0.5299683,0.1500244,0.9299927,0.4500122,1.1900024c0.1400146,0.1400146,0.3099976,0.25,0.5100098,0.3300171       c0.1900024,0.0899658,0.4699707,0.1799927,0.8399658,0.289978c0.3699951,0.0999756,0.6300049,0.210022,0.7800293,0.3399658       c0.1499634,0.1200562,0.2199707,0.2900391,0.2199707,0.5200195c0,0.2200317-0.0800171,0.4000244-0.2399902,0.539978       c-0.1599731,0.1300049-0.3699951,0.2000122-0.6500244,0.2000122c-0.539978,0-1.0699463-0.25-1.5799561-0.7600098       l-0.5300293,0.7300415C36.1499634,13.1900024,36.8499756,13.5,37.6300049,13.5       c0.539978,0,0.9699707-0.1600342,1.2999878-0.4700317c0.3300171-0.3200073,0.5-0.7299805,0.5-1.2299805       C39.4299927,11.289978,39.2999878,10.9099731,39.039978,10.6499634z" fill="#0096E6"/></g></g><g><g><path d="M44.2799683,8.3999634c-0.4799805-0.5100098-1.1699829-0.7600098-2.0700073-0.7600098h-1.7299805       v5.7900391h1.6699829c0.9700317,0,1.6800537-0.2600098,2.1500244-0.7800293       c0.4699707-0.5299683,0.710022-1.2399902,0.710022-2.1399536C45.0100098,9.6099854,44.7699585,8.9099731,44.2799683,8.3999634z        M43.6699829,12.0100098c-0.3200073,0.3399658-0.789978,0.5-1.4000244,0.5h-0.9399414v-3.960022h0.8499756       c1.3099976,0,1.9699707,0.6599731,1.9699707,1.9799805C44.1499634,11.1900024,43.9899902,11.6799927,43.6699829,12.0100098z" fill="#0096E6"/></g><g><path d="M44.1499634,10.5299683c0,0.6600342-0.1599731,1.1500244-0.4799805,1.4800415       c-0.3200073,0.3399658-0.789978,0.5-1.4000244,0.5h-0.9399414v-3.960022h0.8499756       C43.4899902,8.5499878,44.1499634,9.2099609,44.1499634,10.5299683z" fill="#D0E8F9"/></g></g></g></g></g></svg>