<?xml version="1.0" ?><svg enable-background="new 0 0 52 52" id="Layer_1" version="1.1" viewBox="0 0 52 52" xml:space="preserve" xmlns="http://www.w3.org/2000/svg" xmlns:xlink="http://www.w3.org/1999/xlink"><g><g><g><polygon fill="#0096E6" points="7.5079041,44.5 5.5079041,44.5 5.5079041,9.5419922 2.4942322,9.5 2.5215759,7.5      7.5079041,7.5703125    "/></g></g><g><g><path d="M5.5057678,13.4978638v28h44v-28H5.5057678z M47.5057678,39.4978638h-40v-24h40V39.4978638z" fill="#0096E6"/></g></g><g><g><path d="M10.5057678,19.4978638v15h14v-15H10.5057678z M12.5057678,32.4978638v-11h10v11H12.5057678z" fill="#0096E6"/></g><g><rect fill="#D0E8F9" height="11" width="10" x="12.5057678" y="21.4978638"/></g></g><g><g><rect fill="#0096E6" height="3" width="2" x="21.5079041" y="17.5"/></g></g><g><g><rect fill="#0096E6" height="3" width="2" x="11.5079041" y="17.5"/></g></g><g><g><rect fill="#0096E6" height="3" width="2" x="16.5079041" y="17.5"/></g></g><g><g><rect fill="#0096E6" height="3" width="2" x="21.5079041" y="33.5"/></g></g><g><g><rect fill="#0096E6" height="3" width="2" x="11.5079041" y="33.5"/></g></g><g><g><rect fill="#0096E6" height="3" width="2" x="16.5079041" y="33.5"/></g></g><g><g><rect fill="#0096E6" height="2" width="10" x="32.5079041" y="28.5"/></g></g><g><g><rect fill="#0096E6" height="2" width="10" x="32.5079041" y="32.5"/></g></g></g></svg>