<!DOCTYPE svg PUBLIC "-//W3C//DTD SVG 20010904//EN" "http://www.w3.org/TR/2001/REC-SVG-20010904/DTD/svg10.dtd">
<svg version="1.0" xmlns="http://www.w3.org/2000/svg" width="418px" height="277px" viewBox="0 0 4180 2770" preserveAspectRatio="xMidYMid meet">
<g id="layer101" fill="#00a2e8" stroke="none">
 <path d="M771 2681 c-8 -14 -11 -361 -11 -1125 l0 -1106 -200 0 c-188 0 -200 -1 -210 -20 -8 -15 -6 -24 10 -40 19 -19 30 -20 248 -18 l227 3 3 98 3 97 1609 0 1610 0 0 840 0 840 -1610 0 -1610 0 -2 223 -3 222 -27 3 c-18 2 -30 -3 -37 -17z m3209 -1271 l0 -760 -1570 0 -1570 0 0 760 0 760 1570 0 1570 0 0 -760z"/>
 <path d="M3154 1966 c-16 -12 -19 -27 -19 -90 0 -93 18 -116 89 -116 51 0 96 32 96 69 0 17 -6 21 -35 21 -21 0 -35 -5 -35 -12 0 -7 -5 -20 -10 -28 -9 -13 -11 -13 -20 0 -5 8 -10 23 -10 33 0 14 9 17 55 17 l55 0 0 60 0 60 -73 0 c-47 0 -80 -5 -93 -14z"/>
 <path d="M3340 1870 l0 -110 70 0 c57 0 74 4 90 20 44 44 14 120 -47 120 -32 0 -33 1 -33 40 l0 40 -40 0 -40 0 0 -110z"/>
 <path d="M3548 1969 c-15 -8 -18 -25 -18 -109 l0 -100 35 0 34 0 3 88 c2 69 6 87 18 87 12 0 16 -18 18 -87 l3 -88 35 0 36 0 -4 95 c-2 80 -6 96 -23 109 -23 18 -111 21 -137 5z"/>
 <path d="M923 1924 c-3 -8 -1 -20 4 -25 5 -5 341 -8 864 -7 846 3 854 3 854 23 0 20 -8 20 -858 23 -772 2 -858 1 -864 -14z"/>
 <path d="M943 1824 c-3 -8 -1 -20 4 -25 5 -5 391 -8 994 -7 976 3 984 3 984 23 0 20 -8 20 -988 23 -890 2 -988 1 -994 -14z"/>
 <path d="M924 1725 c-3 -8 -3 -19 1 -25 4 -7 330 -10 1041 -10 l1034 0 0 25 0 25 -1035 0 c-896 0 -1036 -2 -1041 -15z"/>
 <path d="M2245 1547 c-85 -28 -174 -102 -218 -181 -36 -65 -50 -127 -45 -213 9 -199 162 -352 361 -361 125 -6 216 28 300 114 24 24 57 70 73 101 27 54 29 66 29 168 0 102 -2 114 -29 168 -38 74 -109 145 -183 182 -49 26 -70 30 -153 32 -59 2 -110 -2 -135 -10z m260 -97 c63 -31 70 -42 40 -70 l-25 -24 -43 25 c-59 34 -165 34 -222 1 l-39 -24 -23 28 c-12 15 -20 31 -18 34 2 3 24 16 50 29 86 43 192 43 280 1z m-193 -252 c-7 -7 -12 -24 -12 -38 0 -17 -13 -39 -39 -64 l-39 -38 -15 23 c-35 55 -32 147 5 195 l21 26 46 -46 c36 -36 43 -48 33 -58z m229 35 c14 -44 7 -114 -16 -149 l-17 -26 -38 37 c-26 26 -40 48 -43 74 -4 32 0 41 36 78 46 48 58 45 78 -14z m-216 -288 c60 -9 118 2 161 32 l37 24 25 -25 c31 -30 24 -41 -45 -76 -69 -35 -183 -40 -249 -10 -27 11 -60 28 -73 36 l-23 16 27 28 27 28 35 -23 c19 -13 54 -27 78 -30z"/>
 <path d="M3225 1547 c-85 -28 -174 -102 -218 -181 -36 -65 -50 -127 -45 -213 9 -199 162 -352 361 -361 125 -6 216 28 300 114 24 24 57 70 73 101 27 54 29 66 29 168 0 102 -2 114 -29 168 -38 74 -109 145 -183 182 -49 26 -70 30 -153 32 -59 2 -110 -2 -135 -10z m-55 -208 c0 -5 -11 -24 -24 -44 -45 -66 -46 -173 -1 -238 l23 -35 -28 -27 -28 -27 -16 23 c-8 13 -25 46 -36 73 -40 90 -18 235 48 309 15 16 17 16 39 -5 13 -12 23 -25 23 -29z m466 -61 c30 -90 18 -191 -33 -272 l-25 -38 -28 27 -28 27 23 35 c44 63 44 160 2 235 l-21 38 25 26 24 25 22 -28 c13 -15 30 -49 39 -75z m-201 58 l27 -18 -43 -44 c-56 -57 -81 -58 -137 -1 -23 23 -42 46 -42 50 0 5 15 15 33 23 41 18 126 13 162 -10z m16 -310 c-32 -38 -147 -44 -200 -10 l-23 16 37 38 c32 33 42 38 70 33 20 -3 35 -1 40 7 5 8 20 0 48 -28 34 -35 39 -43 28 -56z"/>
 <path d="M1235 1537 c-85 -28 -174 -102 -218 -181 -36 -65 -50 -127 -45 -213 9 -199 162 -352 361 -361 125 -6 216 28 300 114 24 24 57 70 73 101 27 54 29 66 29 168 0 102 -2 114 -29 168 -38 74 -109 145 -183 182 -49 26 -70 30 -153 32 -59 2 -110 -2 -135 -10z m-55 -208 c0 -5 -11 -24 -24 -44 -45 -66 -46 -173 -1 -238 l23 -35 -28 -27 -28 -27 -16 23 c-8 13 -25 46 -36 73 -40 90 -18 235 48 309 15 16 17 16 39 -5 13 -12 23 -25 23 -29z m466 -61 c30 -90 18 -191 -33 -272 l-25 -38 -28 27 -28 27 23 35 c44 63 44 160 2 235 l-21 38 25 26 24 25 22 -28 c13 -15 30 -49 39 -75z m-201 58 l27 -18 -43 -44 c-56 -57 -81 -58 -137 -1 -23 23 -42 46 -42 50 0 5 15 15 33 23 41 18 126 13 162 -10z m16 -310 c-32 -38 -147 -44 -200 -10 l-23 16 37 38 c32 33 42 38 70 33 20 -3 35 -1 40 7 5 8 20 0 48 -28 34 -35 39 -43 28 -56z"/>
 </g>
<g id="layer102" fill="#45ccf9" stroke="none">
 <path d="M3157 1968 c-9 -7 -18 -26 -22 -43 l-5 -30 12 30 c6 17 18 35 27 42 9 7 13 13 10 13 -3 0 -13 -6 -22 -12z"/>
 <path d="M3344 1870 c0 -63 1 -89 3 -57 2 31 2 83 0 115 -2 31 -3 5 -3 -58z"/>
 <path d="M3546 1967 c-12 -9 -16 -22 -13 -38 4 -24 4 -24 6 3 1 19 9 29 29 36 15 6 20 11 11 11 -8 1 -23 -5 -33 -12z"/>
 <path d="M3650 1973 c8 -3 21 -12 27 -21 7 -9 16 -12 20 -9 9 9 -27 37 -47 36 -13 -1 -13 -1 0 -6z"/>
 <path d="M3207 1933 c-12 -11 -8 -111 5 -119 7 -4 8 -3 4 4 -10 17 4 82 18 82 6 0 18 5 26 10 13 9 13 11 0 20 -17 11 -44 13 -53 3z"/>
 <path d="M3495 1830 c0 -34 4 -46 13 -43 6 3 12 22 12 43 0 21 -6 40 -12 43 -9 3 -13 -9 -13 -43z"/>
 <path d="M3410 1830 c0 -34 5 -37 26 -16 21 21 17 46 -6 46 -16 0 -20 -7 -20 -30z"/>
 <path d="M3280 1840 c0 -5 7 -10 15 -10 26 0 16 -28 -15 -42 -16 -7 -30 -16 -30 -20 0 -15 19 -8 44 16 32 29 35 66 6 66 -11 0 -20 -4 -20 -10z"/>
 <path d="M3298 1479 c-43 -7 -134 -44 -143 -59 -2 -3 6 -19 18 -34 l23 -28 39 24 c57 33 163 33 222 -1 l43 -25 25 24 c30 28 23 39 -40 70 -55 27 -127 38 -187 29z"/>
 <path d="M1308 1469 c-43 -7 -134 -44 -143 -59 -2 -3 6 -19 18 -34 l23 -28 39 24 c57 33 163 33 222 -1 l43 -25 25 24 c30 28 23 39 -40 70 -55 27 -127 38 -187 29z"/>
 <path d="M2128 1373 c-66 -74 -88 -219 -48 -309 11 -27 28 -60 36 -73 l16 -23 28 27 28 27 -23 35 c-45 65 -44 172 1 238 30 44 30 46 1 73 -22 21 -24 21 -39 5z"/>
 <path d="M2571 1356 l-25 -26 21 -38 c42 -75 42 -172 -2 -235 l-23 -35 28 -27 28 -27 25 38 c13 22 29 56 36 76 27 82 7 210 -42 271 l-22 28 -24 -25z"/>
 <path d="M2293 1346 c-18 -8 -33 -18 -33 -23 0 -4 19 -27 42 -50 56 -57 81 -56 137 1 l43 44 -27 18 c-36 23 -121 28 -162 10z"/>
 <path d="M3192 1276 c-37 -48 -40 -140 -5 -195 l15 -23 39 38 c26 25 39 47 39 64 0 14 5 31 12 38 10 10 3 22 -33 58 l-46 46 -21 -26z"/>
 <path d="M1202 1266 c-37 -48 -40 -140 -5 -195 l15 -23 39 38 c26 25 39 47 39 64 0 14 5 31 12 38 10 10 3 22 -33 58 l-46 46 -21 -26z"/>
 <path d="M3443 1247 c-36 -37 -40 -46 -36 -78 3 -26 17 -48 43 -74 l38 -37 17 26 c23 35 30 105 16 149 -20 59 -32 62 -78 14z"/>
 <path d="M1453 1237 c-36 -37 -40 -46 -36 -78 3 -26 17 -48 43 -74 l38 -37 17 26 c23 35 30 105 16 149 -20 59 -32 62 -78 14z"/>
 <path d="M2395 1110 c-5 -8 -20 -10 -40 -7 -28 5 -38 0 -70 -33 l-37 -38 23 -16 c53 -34 168 -28 200 10 11 13 6 21 -28 56 -28 28 -43 36 -48 28z"/>
 <path d="M3165 970 l-27 -28 23 -16 c13 -8 46 -25 73 -36 66 -30 180 -25 249 10 69 35 76 46 45 76 l-25 25 -37 -24 c-67 -46 -173 -47 -239 -2 l-35 23 -27 -28z"/>
 <path d="M1175 960 l-27 -28 23 -16 c13 -8 46 -25 73 -36 66 -30 180 -25 249 10 69 35 76 46 45 76 l-25 25 -37 -24 c-67 -46 -173 -47 -239 -2 l-35 23 -27 -28z"/>
 </g>
<g id="layer103" fill="#d1e8f9" stroke="none">
 <path d="M3344 1870 c0 -63 1 -89 3 -57 2 31 2 83 0 115 -2 31 -3 5 -3 -58z"/>
 <path d="M3205 1906 c-9 -48 0 -82 10 -38 4 17 14 32 21 32 8 0 14 9 14 20 0 13 -7 20 -20 20 -14 0 -21 -9 -25 -34z"/>
 <path d="M3410 1830 c0 -34 5 -37 26 -16 21 21 17 46 -6 46 -16 0 -20 -7 -20 -30z"/>
 <path d="M3298 1479 c-43 -7 -134 -44 -143 -59 -2 -3 6 -19 18 -34 l23 -28 39 24 c57 33 163 33 222 -1 l43 -25 25 24 c30 28 23 39 -40 70 -55 27 -127 38 -187 29z"/>
 <path d="M1308 1469 c-43 -7 -134 -44 -143 -59 -2 -3 6 -19 18 -34 l23 -28 39 24 c57 33 163 33 222 -1 l43 -25 25 24 c30 28 23 39 -40 70 -55 27 -127 38 -187 29z"/>
 <path d="M2128 1373 c-66 -74 -88 -219 -48 -309 11 -27 28 -60 36 -73 l16 -23 28 27 28 27 -23 35 c-45 65 -44 172 1 238 30 44 30 46 1 73 -22 21 -24 21 -39 5z"/>
 <path d="M2571 1356 l-25 -26 21 -38 c42 -75 42 -172 -2 -235 l-23 -35 28 -27 28 -27 25 38 c13 22 29 56 36 76 27 82 7 210 -42 271 l-22 28 -24 -25z"/>
 <path d="M2293 1346 c-18 -8 -33 -18 -33 -23 0 -4 19 -27 42 -50 56 -57 81 -56 137 1 l43 44 -27 18 c-36 23 -121 28 -162 10z"/>
 <path d="M3192 1276 c-37 -48 -40 -140 -5 -195 l15 -23 39 38 c26 25 39 47 39 64 0 14 5 31 12 38 10 10 3 22 -33 58 l-46 46 -21 -26z"/>
 <path d="M1202 1266 c-37 -48 -40 -140 -5 -195 l15 -23 39 38 c26 25 39 47 39 64 0 14 5 31 12 38 10 10 3 22 -33 58 l-46 46 -21 -26z"/>
 <path d="M3443 1247 c-36 -37 -40 -46 -36 -78 3 -26 17 -48 43 -74 l38 -37 17 26 c23 35 30 105 16 149 -20 59 -32 62 -78 14z"/>
 <path d="M1453 1237 c-36 -37 -40 -46 -36 -78 3 -26 17 -48 43 -74 l38 -37 17 26 c23 35 30 105 16 149 -20 59 -32 62 -78 14z"/>
 <path d="M2395 1110 c-5 -8 -20 -10 -40 -7 -28 5 -38 0 -70 -33 l-37 -38 23 -16 c53 -34 168 -28 200 10 11 13 6 21 -28 56 -28 28 -43 36 -48 28z"/>
 <path d="M3165 970 l-27 -28 23 -16 c13 -8 46 -25 73 -36 66 -30 180 -25 249 10 69 35 76 46 45 76 l-25 25 -37 -24 c-67 -46 -173 -47 -239 -2 l-35 23 -27 -28z"/>
 <path d="M1175 960 l-27 -28 23 -16 c13 -8 46 -25 73 -36 66 -30 180 -25 249 10 69 35 76 46 45 76 l-25 25 -37 -24 c-67 -46 -173 -47 -239 -2 l-35 23 -27 -28z"/>
 </g>

</svg>