<svg id="svg" version="1.1" width="400" height="342.85714285714283" viewBox="0 0 400 342.85714285714283" xmlns="http://www.w3.org/2000/svg" xmlns:xlink="http://www.w3.org/1999/xlink" ><g id="svgg"><path id="path0" d="M50.587 122.212 C 50.497 122.448,50.463 134.760,50.512 149.571 L 50.600 176.501 185.763 176.501 L 320.926 176.501 320.926 149.228 L 320.926 121.955 185.838 121.869 C 77.948 121.800,50.718 121.869,50.587 122.212 M96.316 135.791 C 96.655 136.006,96.730 138.965,96.659 149.422 L 96.569 162.779 80.617 162.869 C 65.925 162.952,64.632 162.913,64.237 162.374 C 63.683 161.619,63.614 137.195,64.163 136.170 C 64.540 135.465,95.233 135.104,96.316 135.791 M148.117 135.791 C 148.456 136.006,148.531 138.965,148.460 149.422 L 148.370 162.779 132.419 162.869 C 117.727 162.952,116.433 162.913,116.038 162.374 C 115.484 161.619,115.415 137.195,115.964 136.170 C 116.341 135.465,147.034 135.104,148.117 135.791 M199.918 135.791 C 200.257 136.006,200.332 138.965,200.261 149.422 L 200.172 162.779 184.220 162.869 C 169.528 162.952,168.234 162.913,167.839 162.374 C 167.285 161.619,167.216 137.195,167.765 136.170 C 168.142 135.465,198.835 135.104,199.918 135.791 M257.221 135.918 C 257.812 136.508,257.812 161.948,257.221 162.539 C 256.629 163.131,225.704 163.131,225.111 162.539 C 224.806 162.233,224.700 158.803,224.700 149.228 C 224.700 139.653,224.806 136.223,225.111 135.918 C 225.704 135.325,256.629 135.325,257.221 135.918 M309.022 135.918 C 309.613 136.508,309.613 161.948,309.022 162.539 C 308.314 163.246,276.982 163.119,276.709 162.408 C 276.285 161.303,276.477 136.354,276.913 135.918 C 277.505 135.325,308.430 135.325,309.022 135.918 M73.907 145.556 C 73.810 145.809,73.775 147.626,73.830 149.594 L 73.928 153.173 80.446 153.173 L 86.964 153.173 86.964 149.228 L 86.964 145.283 80.524 145.190 C 75.392 145.115,74.048 145.190,73.907 145.556 M125.708 145.556 C 125.611 145.809,125.576 147.626,125.631 149.594 L 125.729 153.173 132.247 153.173 L 138.765 153.173 138.765 149.228 L 138.765 145.283 132.325 145.190 C 127.194 145.115,125.849 145.190,125.708 145.556 M177.509 145.556 C 177.412 145.809,177.377 147.626,177.432 149.594 L 177.530 153.173 184.048 153.173 L 190.566 153.173 190.566 149.228 L 190.566 145.283 184.126 145.190 C 178.995 145.115,177.650 145.190,177.509 145.556 M234.722 145.402 C 234.396 145.608,234.307 146.662,234.379 149.427 L 234.477 153.173 241.166 153.173 L 247.856 153.173 247.954 149.427 C 248.075 144.801,248.581 145.122,241.166 145.122 C 237.864 145.122,234.964 145.248,234.722 145.402 M286.254 145.564 C 286.159 145.812,286.125 147.626,286.179 149.594 L 286.278 153.173 292.967 153.173 L 299.657 153.173 299.755 149.427 C 299.827 146.662,299.737 145.608,299.412 145.402 C 298.617 144.897,286.453 145.047,286.254 145.564 M50.582 192.205 C 50.490 192.446,50.456 195.803,50.507 199.666 L 50.600 206.690 61.664 206.780 L 72.727 206.871 72.727 199.319 L 72.727 191.767 61.739 191.767 C 53.141 191.767,50.714 191.862,50.582 192.205 M87.977 192.200 C 87.883 192.443,87.849 195.803,87.900 199.666 L 87.993 206.690 98.285 206.690 L 108.576 206.690 108.576 199.314 L 108.576 191.938 98.362 191.847 C 90.264 191.775,88.112 191.848,87.977 192.200 M123.653 192.205 C 123.560 192.446,123.526 195.803,123.578 199.666 L 123.671 206.690 132.161 206.781 L 140.652 206.873 140.652 199.320 L 140.652 191.767 132.236 191.767 C 125.725 191.767,123.783 191.866,123.653 192.205 M155.902 192.199 C 155.808 192.443,155.773 195.803,155.825 199.666 L 155.918 206.690 165.180 206.690 L 174.443 206.690 174.443 199.314 L 174.443 191.938 165.257 191.847 C 157.995 191.775,156.036 191.848,155.902 192.199 M189.864 192.198 C 189.771 192.443,189.736 195.803,189.787 199.666 L 189.880 206.690 197.427 206.690 L 204.974 206.690 204.974 199.314 L 204.974 191.938 197.505 191.846 C 191.635 191.773,189.999 191.849,189.864 192.198 M220.240 199.314 L 220.240 206.874 227.702 206.782 L 235.163 206.690 235.163 199.314 L 235.163 191.938 227.702 191.846 L 220.240 191.753 220.240 199.314 M250.585 192.198 C 250.491 192.443,250.456 195.803,250.507 199.666 L 250.600 206.690 258.148 206.690 L 265.695 206.690 265.695 199.314 L 265.695 191.938 258.225 191.846 C 252.356 191.773,250.719 191.849,250.585 192.198 M280.961 199.314 L 280.961 206.876 287.564 206.783 L 294.168 206.690 294.168 199.314 L 294.168 191.938 287.564 191.845 L 280.961 191.752 280.961 199.314 M309.434 199.314 L 309.434 206.878 315.180 206.784 L 320.926 206.690 320.926 199.314 L 320.926 191.938 315.180 191.844 L 309.434 191.750 309.434 199.314 " stroke="none" fill="#ecfcfc" fill-rule="evenodd"></path><path id="path1" d="M34.991 143.910 L 34.991 181.475 34.134 181.475 C 33.333 181.475,33.276 181.589,33.276 183.190 C 33.276 184.791,33.333 184.906,34.134 184.906 L 34.991 184.906 34.991 203.602 L 34.991 222.298 184.906 222.298 L 334.820 222.298 334.820 220.583 C 334.820 218.982,334.877 218.868,335.678 218.868 L 336.535 218.868 336.535 163.465 L 336.535 108.062 335.701 108.062 C 335.098 108.062,334.837 107.849,334.758 107.290 L 334.648 106.518 184.820 106.432 L 34.991 106.346 34.991 143.910 M321.772 121.761 C 322.264 122.681,322.264 175.775,321.772 176.695 C 321.212 177.741,50.314 177.741,49.755 176.695 C 49.263 175.775,49.263 122.681,49.755 121.761 C 50.314 120.716,321.212 120.716,321.772 121.761 M64.995 136.619 C 64.903 136.858,64.869 142.687,64.918 149.573 L 65.009 162.093 80.446 162.093 L 95.883 162.093 95.883 149.228 L 95.883 136.364 80.522 136.274 C 68.389 136.204,65.126 136.276,64.995 136.619 M116.796 136.619 C 116.704 136.858,116.670 142.687,116.719 149.573 L 116.810 162.093 132.247 162.093 L 147.684 162.093 147.684 149.228 L 147.684 136.364 132.323 136.274 C 120.190 136.204,116.927 136.276,116.796 136.619 M168.597 136.619 C 168.505 136.858,168.471 142.687,168.521 149.573 L 168.611 162.093 184.048 162.093 L 199.485 162.093 199.485 149.228 L 199.485 136.364 184.124 136.274 C 171.991 136.204,168.728 136.276,168.597 136.619 M225.729 149.228 L 225.729 162.271 241.081 162.182 L 256.432 162.093 256.432 149.228 L 256.432 136.364 241.081 136.274 L 225.729 136.185 225.729 149.228 M277.345 136.619 C 277.253 136.858,277.219 142.687,277.268 149.573 L 277.358 162.093 292.796 162.093 L 308.233 162.093 308.233 149.228 L 308.233 136.364 292.872 136.274 C 280.739 136.204,277.476 136.276,277.345 136.619 M87.810 145.089 C 88.411 146.212,88.264 153.197,87.626 153.835 C 86.978 154.482,74.556 154.643,73.391 154.019 C 72.586 153.588,72.367 145.609,73.139 144.837 C 73.931 144.045,87.375 144.276,87.810 145.089 M139.611 145.089 C 140.212 146.212,140.065 153.197,139.427 153.835 C 138.779 154.482,126.357 154.643,125.192 154.019 C 124.387 153.588,124.168 145.609,124.940 144.837 C 125.732 144.045,139.176 144.276,139.611 145.089 M191.412 145.089 C 192.013 146.212,191.866 153.197,191.228 153.835 C 190.580 154.482,178.158 154.643,176.993 154.019 C 176.188 153.588,175.970 145.609,176.741 144.837 C 177.533 144.045,190.977 144.276,191.412 145.089 M248.639 149.053 C 248.723 152.945,248.660 153.564,248.144 153.942 C 247.398 154.488,235.285 154.555,234.283 154.019 C 233.606 153.657,233.223 145.279,233.855 144.647 C 233.984 144.518,237.342 144.454,241.316 144.505 L 248.542 144.597 248.639 149.053 M300.306 144.968 C 300.885 146.475,300.523 153.659,299.851 154.019 C 298.874 154.542,286.361 154.491,285.832 153.962 C 285.390 153.520,285.224 145.079,285.649 144.654 C 286.198 144.106,300.090 144.403,300.306 144.968 M73.345 191.149 C 74.140 191.944,73.907 207.099,73.093 207.535 C 71.898 208.174,50.593 208.005,49.939 207.351 C 49.290 206.702,49.127 192.575,49.755 191.401 C 50.192 190.584,72.541 190.345,73.345 191.149 M109.022 191.149 C 109.817 191.944,109.584 207.099,108.770 207.535 C 108.357 207.756,104.399 207.890,98.285 207.890 C 92.170 207.890,88.212 207.756,87.799 207.535 C 86.985 207.099,86.752 191.944,87.547 191.149 C 87.849 190.847,90.711 190.738,98.285 190.738 C 105.859 190.738,108.720 190.847,109.022 191.149 M141.269 191.149 C 142.064 191.944,141.831 207.099,141.017 207.535 C 140.614 207.751,137.179 207.890,132.247 207.890 C 127.315 207.890,123.880 207.751,123.477 207.535 C 122.663 207.099,122.430 191.944,123.225 191.149 C 123.523 190.851,126.007 190.738,132.247 190.738 C 138.487 190.738,140.971 190.851,141.269 191.149 M175.288 191.401 C 175.916 192.575,175.753 206.702,175.104 207.351 C 174.401 208.054,156.165 208.172,155.472 207.479 C 154.888 206.895,154.888 191.733,155.472 191.149 C 156.272 190.349,174.851 190.585,175.288 191.401 M205.420 191.149 C 206.215 191.944,205.982 207.099,205.168 207.535 C 203.995 208.163,189.868 208.000,189.218 207.351 C 188.569 206.702,188.406 192.575,189.034 191.401 C 189.470 190.587,204.625 190.354,205.420 191.149 M236.009 191.401 C 236.637 192.575,236.474 206.702,235.825 207.351 C 235.175 208.000,221.048 208.163,219.875 207.535 C 219.061 207.099,218.828 191.944,219.623 191.149 C 220.418 190.354,235.573 190.587,236.009 191.401 M266.141 191.149 C 266.936 191.944,266.703 207.099,265.889 207.535 C 264.715 208.163,250.588 208.000,249.939 207.351 C 249.290 206.702,249.127 192.575,249.755 191.401 C 250.190 190.587,265.346 190.354,266.141 191.149 M295.014 191.401 C 295.642 192.575,295.479 206.702,294.830 207.351 C 294.183 207.998,281.760 208.159,280.595 207.535 C 279.781 207.099,279.548 191.944,280.343 191.149 C 281.135 190.358,294.579 190.588,295.014 191.401 M321.772 191.401 C 322.400 192.575,322.237 206.702,321.588 207.351 C 320.789 208.150,309.743 208.150,308.944 207.351 C 308.295 206.702,308.132 192.575,308.760 191.401 C 309.091 190.783,309.536 190.738,315.266 190.738 C 320.996 190.738,321.441 190.783,321.772 191.401 " stroke="none" fill="#04a4ec" fill-rule="evenodd"></path><path id="path2" d="M63.963 149.228 C 63.963 156.304,64.009 159.198,64.065 155.660 C 64.120 152.123,64.120 146.334,64.065 142.796 C 64.009 139.258,63.963 142.153,63.963 149.228 M115.764 149.228 C 115.764 156.304,115.810 159.198,115.866 155.660 C 115.921 152.123,115.921 146.334,115.866 142.796 C 115.810 139.258,115.764 142.153,115.764 149.228 M167.565 149.228 C 167.565 156.304,167.611 159.198,167.667 155.660 C 167.723 152.123,167.723 146.334,167.667 142.796 C 167.611 139.258,167.565 142.153,167.565 149.228 M73.642 145.340 C 73.326 145.656,73.353 152.924,73.671 153.120 C 73.812 153.208,73.928 151.442,73.928 149.195 C 73.928 146.949,73.915 145.111,73.899 145.111 C 73.884 145.111,73.768 145.214,73.642 145.340 M125.443 145.340 C 125.127 145.656,125.154 152.924,125.472 153.120 C 125.613 153.208,125.729 151.442,125.729 149.195 C 125.729 146.949,125.716 145.111,125.700 145.111 C 125.685 145.111,125.569 145.214,125.443 145.340 M177.244 145.340 C 176.928 145.656,176.955 152.924,177.273 153.120 C 177.414 153.208,177.530 151.442,177.530 149.195 C 177.530 146.949,177.517 145.111,177.501 145.111 C 177.486 145.111,177.370 145.214,177.244 145.340 M50.653 191.681 C 50.565 191.822,53.759 191.899,57.751 191.851 C 71.287 191.688,72.590 191.571,61.684 191.497 C 55.705 191.457,50.741 191.539,50.653 191.681 M93.417 191.680 C 96.212 191.738,100.689 191.738,103.366 191.680 C 106.043 191.622,103.756 191.575,98.285 191.575 C 92.813 191.575,90.623 191.623,93.417 191.680 M128.236 191.680 C 130.558 191.740,134.263 191.739,136.469 191.680 C 138.675 191.620,136.775 191.571,132.247 191.572 C 127.719 191.572,125.914 191.621,128.236 191.680 M155.971 191.681 C 155.883 191.822,160.027 191.938,165.180 191.938 C 170.333 191.938,174.477 191.822,174.390 191.681 C 174.302 191.539,170.158 191.424,165.180 191.424 C 160.202 191.424,156.058 191.539,155.971 191.681 M189.932 191.681 C 189.844 191.822,191.958 191.898,194.629 191.849 C 203.717 191.683,204.645 191.562,197.362 191.493 C 193.363 191.455,190.020 191.539,189.932 191.681 M222.985 191.661 C 229.341 191.907,235.257 191.916,235.111 191.681 C 235.023 191.539,231.680 191.455,227.681 191.493 C 223.683 191.531,221.569 191.606,222.985 191.661 M250.653 191.681 C 250.565 191.822,252.678 191.898,255.349 191.849 C 264.437 191.683,265.366 191.562,258.082 191.493 C 254.084 191.455,250.740 191.539,250.653 191.681 M283.362 191.659 C 288.819 191.905,294.262 191.917,294.116 191.681 C 294.028 191.539,291.071 191.454,287.544 191.491 C 284.017 191.528,282.136 191.603,283.362 191.659 M311.492 191.656 C 316.057 191.904,321.021 191.917,320.874 191.681 C 320.786 191.539,318.215 191.453,315.160 191.489 C 312.105 191.524,310.455 191.600,311.492 191.656 M72.873 199.314 C 72.873 203.370,72.923 205.030,72.983 203.002 C 73.044 200.973,73.044 197.654,72.983 195.626 C 72.923 193.598,72.873 195.257,72.873 199.314 M140.798 199.314 C 140.798 203.370,140.847 205.030,140.908 203.002 C 140.968 200.973,140.968 197.654,140.908 195.626 C 140.847 193.598,140.798 195.257,140.798 199.314 M220.043 199.314 C 220.043 203.370,220.092 205.030,220.153 203.002 C 220.214 200.973,220.214 197.654,220.153 195.626 C 220.092 193.598,220.043 195.257,220.043 199.314 M280.763 199.314 C 280.763 203.370,280.813 205.030,280.873 203.002 C 280.934 200.973,280.934 197.654,280.873 195.626 C 280.813 193.598,280.763 195.257,280.763 199.314 M50.725 206.952 C 50.869 207.096,55.840 207.173,61.772 207.123 L 72.556 207.032 61.509 206.861 C 55.433 206.767,50.581 206.808,50.725 206.952 M155.971 206.947 C 156.058 207.088,160.202 207.204,165.180 207.204 C 170.158 207.204,174.302 207.088,174.390 206.947 C 174.477 206.805,170.333 206.690,165.180 206.690 C 160.027 206.690,155.883 206.805,155.971 206.947 M190.007 206.954 C 190.152 207.099,193.503 207.176,197.451 207.125 L 204.631 207.031 197.186 206.860 C 193.092 206.766,189.861 206.809,190.007 206.954 M227.787 206.861 L 220.412 207.053 227.681 207.129 C 232.241 207.176,235.030 207.076,235.163 206.861 C 235.280 206.672,235.327 206.552,235.269 206.593 C 235.211 206.635,231.844 206.755,227.787 206.861 M250.727 206.954 C 250.873 207.099,254.223 207.176,258.172 207.125 L 265.352 207.031 257.907 206.860 C 253.812 206.766,250.581 206.809,250.727 206.954 M287.650 206.861 L 281.132 207.056 287.544 207.130 C 291.531 207.176,294.036 207.074,294.168 206.861 C 294.285 206.672,294.332 206.551,294.274 206.592 C 294.216 206.633,291.235 206.754,287.650 206.861 M315.266 206.861 L 309.605 207.058 315.160 207.131 C 318.574 207.176,320.796 207.072,320.926 206.861 C 321.043 206.672,321.091 206.551,321.032 206.591 C 320.974 206.631,318.379 206.752,315.266 206.861 M93.417 207.118 C 96.212 207.175,100.689 207.175,103.366 207.117 C 106.043 207.060,103.756 207.012,98.285 207.012 C 92.813 207.013,90.623 207.060,93.417 207.118 M128.236 207.117 C 130.558 207.177,134.263 207.177,136.469 207.117 C 138.675 207.057,136.775 207.009,132.247 207.009 C 127.719 207.009,125.914 207.058,128.236 207.117 " stroke="none" fill="#f0d0f4" fill-rule="evenodd"></path><path id="path3" d="M49.755 121.761 C 49.263 122.681,49.263 175.775,49.755 176.695 C 50.314 177.741,321.212 177.741,321.772 176.695 C 322.264 175.775,322.264 122.681,321.772 121.761 C 321.212 120.716,50.314 120.716,49.755 121.761 M320.926 149.228 L 320.926 176.501 185.763 176.501 L 50.600 176.501 50.512 149.571 C 50.463 134.760,50.497 122.448,50.587 122.212 C 50.718 121.869,77.948 121.800,185.838 121.869 L 320.926 121.955 320.926 149.228 M64.751 135.877 C 63.990 136.320,63.809 161.785,64.563 162.539 C 65.155 163.131,95.737 163.131,96.329 162.539 C 97.136 161.732,96.896 136.299,96.077 135.861 C 95.177 135.379,65.581 135.394,64.751 135.877 M116.552 135.877 C 115.791 136.320,115.610 161.785,116.364 162.539 C 116.956 163.131,147.538 163.131,148.130 162.539 C 148.937 161.732,148.697 136.299,147.878 135.861 C 146.978 135.379,117.382 135.394,116.552 135.877 M168.353 135.877 C 167.592 136.320,167.411 161.785,168.165 162.539 C 168.757 163.131,199.339 163.131,199.931 162.539 C 200.738 161.732,200.498 136.299,199.679 135.861 C 198.779 135.379,169.183 135.394,168.353 135.877 M225.239 136.045 C 224.424 136.860,224.424 161.597,225.239 162.411 C 226.056 163.228,256.277 163.228,257.094 162.411 C 257.909 161.597,257.909 136.860,257.094 136.045 C 256.277 135.228,226.056 135.228,225.239 136.045 M277.040 136.045 C 276.385 136.700,276.214 161.087,276.856 162.287 C 277.354 163.216,307.971 163.335,308.895 162.411 C 309.710 161.597,309.710 136.860,308.895 136.045 C 308.078 135.228,277.857 135.228,277.040 136.045 M95.883 149.228 L 95.883 162.093 80.446 162.093 L 65.009 162.093 64.918 149.573 C 64.869 142.687,64.903 136.858,64.995 136.619 C 65.126 136.276,68.389 136.204,80.522 136.274 L 95.883 136.364 95.883 149.228 M147.684 149.228 L 147.684 162.093 132.247 162.093 L 116.810 162.093 116.719 149.573 C 116.670 142.687,116.704 136.858,116.796 136.619 C 116.927 136.276,120.190 136.204,132.323 136.274 L 147.684 136.364 147.684 149.228 M199.485 149.228 L 199.485 162.093 184.048 162.093 L 168.611 162.093 168.521 149.573 C 168.471 142.687,168.505 136.858,168.597 136.619 C 168.728 136.276,171.991 136.204,184.124 136.274 L 199.485 136.364 199.485 149.228 M256.432 149.228 L 256.432 162.093 241.081 162.182 L 225.729 162.271 225.729 149.228 L 225.729 136.185 241.081 136.274 L 256.432 136.364 256.432 149.228 M308.233 149.228 L 308.233 162.093 292.796 162.093 L 277.358 162.093 277.268 149.573 C 277.219 142.687,277.253 136.858,277.345 136.619 C 277.476 136.276,280.739 136.204,292.872 136.274 L 308.233 136.364 308.233 149.228 M73.139 144.837 C 72.367 145.609,72.586 153.588,73.391 154.019 C 74.556 154.643,86.978 154.482,87.626 153.835 C 88.264 153.197,88.411 146.212,87.810 145.089 C 87.375 144.276,73.931 144.045,73.139 144.837 M124.940 144.837 C 124.168 145.609,124.387 153.588,125.192 154.019 C 126.357 154.643,138.779 154.482,139.427 153.835 C 140.065 153.197,140.212 146.212,139.611 145.089 C 139.176 144.276,125.732 144.045,124.940 144.837 M176.741 144.837 C 175.970 145.609,176.188 153.588,176.993 154.019 C 178.158 154.643,190.580 154.482,191.228 153.835 C 191.866 153.197,192.013 146.212,191.412 145.089 C 190.977 144.276,177.533 144.045,176.741 144.837 M233.855 144.647 C 233.223 145.279,233.606 153.657,234.283 154.019 C 235.285 154.555,247.398 154.488,248.144 153.942 C 248.660 153.564,248.723 152.945,248.639 149.053 L 248.542 144.597 241.316 144.505 C 237.342 144.454,233.984 144.518,233.855 144.647 M285.649 144.654 C 285.224 145.079,285.390 153.520,285.832 153.962 C 286.361 154.491,298.874 154.542,299.851 154.019 C 300.523 153.659,300.885 146.475,300.306 144.968 C 300.090 144.403,286.198 144.106,285.649 144.654 M87.061 149.321 L 87.157 153.359 80.371 153.266 L 73.585 153.173 73.486 149.594 C 73.350 144.641,72.664 145.081,80.352 145.190 L 86.964 145.283 87.061 149.321 M138.862 149.321 L 138.958 153.359 132.172 153.266 L 125.386 153.173 125.287 149.594 C 125.151 144.641,124.465 145.081,132.153 145.190 L 138.765 145.283 138.862 149.321 M190.663 149.321 L 190.759 153.359 183.973 153.266 L 177.187 153.173 177.089 149.594 C 176.952 144.641,176.266 145.081,183.954 145.190 L 190.566 145.283 190.663 149.321 M247.856 149.228 L 247.856 153.173 241.166 153.173 L 234.477 153.173 234.378 149.594 C 234.242 144.641,233.556 145.081,241.244 145.190 L 247.856 145.283 247.856 149.228 M299.657 149.228 L 299.657 153.173 292.882 153.266 L 286.106 153.359 286.106 149.464 C 286.106 144.647,285.395 145.080,293.118 145.190 L 299.657 145.283 299.657 149.228 M49.755 191.401 C 49.127 192.575,49.290 206.702,49.939 207.351 C 50.593 208.005,71.898 208.174,73.093 207.535 C 73.907 207.099,74.140 191.944,73.345 191.149 C 72.541 190.345,50.192 190.584,49.755 191.401 M87.547 191.149 C 86.752 191.944,86.985 207.099,87.799 207.535 C 88.212 207.756,92.170 207.890,98.285 207.890 C 104.399 207.890,108.357 207.756,108.770 207.535 C 109.584 207.099,109.817 191.944,109.022 191.149 C 108.720 190.847,105.859 190.738,98.285 190.738 C 90.711 190.738,87.849 190.847,87.547 191.149 M123.225 191.149 C 122.430 191.944,122.663 207.099,123.477 207.535 C 123.880 207.751,127.315 207.890,132.247 207.890 C 137.179 207.890,140.614 207.751,141.017 207.535 C 141.831 207.099,142.064 191.944,141.269 191.149 C 140.971 190.851,138.487 190.738,132.247 190.738 C 126.007 190.738,123.523 190.851,123.225 191.149 M155.472 191.149 C 154.888 191.733,154.888 206.895,155.472 207.479 C 156.165 208.172,174.401 208.054,175.104 207.351 C 175.753 206.702,175.916 192.575,175.288 191.401 C 174.851 190.585,156.272 190.349,155.472 191.149 M189.034 191.401 C 188.406 192.575,188.569 206.702,189.218 207.351 C 189.868 208.000,203.995 208.163,205.168 207.535 C 205.982 207.099,206.215 191.944,205.420 191.149 C 204.625 190.354,189.470 190.587,189.034 191.401 M219.623 191.149 C 218.828 191.944,219.061 207.099,219.875 207.535 C 221.048 208.163,235.175 208.000,235.825 207.351 C 236.474 206.702,236.637 192.575,236.009 191.401 C 235.573 190.587,220.418 190.354,219.623 191.149 M249.755 191.401 C 249.127 192.575,249.290 206.702,249.939 207.351 C 250.588 208.000,264.715 208.163,265.889 207.535 C 266.703 207.099,266.936 191.944,266.141 191.149 C 265.346 190.354,250.190 190.587,249.755 191.401 M280.343 191.149 C 279.548 191.944,279.781 207.099,280.595 207.535 C 281.760 208.159,294.183 207.998,294.830 207.351 C 295.479 206.702,295.642 192.575,295.014 191.401 C 294.579 190.588,281.135 190.358,280.343 191.149 M308.760 191.401 C 308.132 192.575,308.295 206.702,308.944 207.351 C 309.743 208.150,320.789 208.150,321.588 207.351 C 322.237 206.702,322.400 192.575,321.772 191.401 C 321.441 190.783,320.996 190.738,315.266 190.738 C 309.536 190.738,309.091 190.783,308.760 191.401 M72.659 191.835 C 73.291 192.467,73.237 206.296,72.600 206.824 C 72.266 207.101,69.023 207.188,61.365 207.123 L 50.600 207.033 50.508 199.665 C 50.456 195.613,50.490 192.101,50.583 191.861 C 50.818 191.247,72.046 191.222,72.659 191.835 M108.205 191.632 C 109.025 191.947,109.025 206.681,108.205 206.996 C 107.907 207.110,103.443 207.204,98.285 207.204 C 93.127 207.204,88.663 207.110,88.364 206.996 C 87.643 206.719,87.533 191.940,88.250 191.651 C 88.869 191.401,107.558 191.384,108.205 191.632 M140.583 191.835 C 141.166 192.418,141.166 206.210,140.583 206.792 C 140.148 207.228,125.127 207.412,124.042 206.996 C 123.320 206.719,123.210 191.940,123.928 191.651 C 124.910 191.255,140.171 191.424,140.583 191.835 M174.443 199.314 L 174.443 207.033 165.180 207.033 L 155.918 207.033 155.825 199.665 C 155.774 195.613,155.809 192.099,155.902 191.855 C 156.036 191.506,158.003 191.432,165.257 191.504 L 174.443 191.595 174.443 199.314 M204.603 191.632 C 205.075 191.813,205.146 192.818,205.146 199.344 C 205.146 208.278,206.240 207.264,196.741 207.130 L 189.880 207.033 189.787 199.665 C 189.736 195.613,189.770 192.101,189.862 191.861 C 190.039 191.401,203.457 191.192,204.603 191.632 M235.163 199.314 L 235.163 207.033 228.003 207.125 C 223.010 207.190,220.699 207.100,220.370 206.826 C 219.725 206.291,219.675 192.469,220.315 191.829 C 220.624 191.520,222.625 191.435,227.948 191.503 L 235.163 191.595 235.163 199.314 M265.324 191.632 C 265.796 191.813,265.866 192.818,265.866 199.344 C 265.866 208.278,266.960 207.264,257.461 207.130 L 250.600 207.033 250.508 199.665 C 250.456 195.613,250.490 192.101,250.583 191.861 C 250.759 191.401,264.178 191.192,265.324 191.632 M294.168 199.314 L 294.168 207.033 287.866 207.126 C 279.866 207.245,280.617 208.052,280.617 199.340 C 280.617 190.571,279.869 191.386,287.812 191.502 L 294.168 191.595 294.168 199.314 M320.926 199.314 L 320.926 207.033 315.266 207.033 L 309.605 207.033 309.513 199.665 C 309.462 195.613,309.497 192.098,309.591 191.852 C 309.724 191.506,311.013 191.428,315.344 191.501 L 320.926 191.595 320.926 199.314 " stroke="none" fill="#40d0f4" fill-rule="evenodd"></path><path id="path4" d="" stroke="none" fill="#04d4f4" fill-rule="evenodd"></path></g></svg>