<svg class="ldi-dbxtmb" width="100%" height="100%" xmlns="http://www.w3.org/2000/svg" xmlns:xlink="http://www.w3.org/1999/xlink" viewBox="0 0 100 100" preserveAspectRatio="xMidYMid"><!--?xml version="1.0" encoding="utf-8"?--><!--Generator: Adobe Illustrator 21.0.0, SVG Export Plug-In . SVG Version: 6.00 Build 0)--><svg version="1.1" id="Layer_1" xmlns="http://www.w3.org/2000/svg" xmlns:xlink="http://www.w3.org/1999/xlink" x="0px" y="0px" viewBox="0 0 100 100" style="transform-origin: 50px 50px 0px;" xml:space="preserve"><g style="transform-origin: 50px 50px 0px;"><g style="transform-origin: 50px 50px 0px; transform: scale(0.6);"><g class="ld ld-static" style="transform-origin: 50px 50px 0px; animation-duration: 1s; animation-delay: -1s; animation-direction: normal;"><g><style type="text/css" style="transform-origin: 50px 50px 0px;">.st0{fill:#999998;} .st1{fill:#323232;} .st2{fill:#CCCCCB;} .st3{fill:#ACBD81;} .st4{fill:#849B87;}</style><g style="transform-origin: 50px 50px 0px;"><polygon class="st2" points="24.218,48.379 24.218,62.199 44.641,43.112 44.641,75.93 55.359,75.93 55.359,43.112 75.783,62.199 75.783,48.379 50,22.597 " fill="none" style="fill: none;"></polygon></g><g style="transform-origin: 50px 50px 0px;"><path class="st1" d="M50,10c-22.091,0-40,17.909-40,40c0,22.091,17.909,40,40,40c22.091,0,40-17.909,40-40 C90,27.909,72.091,10,50,10z M75.783,62.199L55.359,43.112V75.93H44.641V43.112L24.218,62.199v-13.82L50,22.597l25.782,25.782 V62.199z" fill="#0096e5" style="fill: rgb(0, 150, 229);"></path></g><metadata xmlns:d="https://loading.io/stock/" style="transform-origin: 50px 50px 0px;">
<d:name style="transform-origin: 50px 50px 0px;">up</d:name>
<d:tags style="transform-origin: 50px 50px 0px;">north,upload,top,direction,way,circle,up,arrow</d:tags>
<d:license style="transform-origin: 50px 50px 0px;">cc-by</d:license>
<d:slug style="transform-origin: 50px 50px 0px;">dbxtmb</d:slug>
</metadata></g></g></g></g><style type="text/css" style="transform-origin: 50px 50px 0px;"></style></svg></svg>
