<svg id="svg" version="1.1" width="400" height="283.3333333333333" viewBox="0 0 400 283.3333333333333" xmlns="http://www.w3.org/2000/svg" xmlns:xlink="http://www.w3.org/1999/xlink" ><g id="svgg"><path id="path0" d="M47.357 31.287 C 47.071 32.039,46.534 32.318,45.367 32.318 C 44.832 32.318,44.421 32.549,44.108 33.026 C 43.786 33.518,43.387 33.735,42.804 33.735 C 41.555 33.735,35.152 40.131,35.152 41.378 C 35.152 41.970,34.938 42.367,34.444 42.691 C 33.888 43.055,33.735 43.394,33.735 44.263 C 33.735 45.169,33.606 45.429,33.026 45.693 L 32.318 46.016 32.318 134.940 L 32.318 223.864 33.026 224.187 C 33.669 224.479,33.735 224.670,33.735 226.229 C 33.735 227.936,33.746 227.959,35.294 229.495 C 36.152 230.346,36.853 231.161,36.853 231.306 C 36.853 231.452,37.116 231.654,37.437 231.756 C 37.757 231.857,38.137 232.249,38.280 232.625 C 38.423 233.002,38.738 233.310,38.979 233.310 C 39.221 233.310,39.540 233.629,39.688 234.018 C 39.836 234.408,40.155 234.727,40.396 234.727 C 40.637 234.727,40.980 235.046,41.157 235.436 C 41.419 236.009,41.684 236.145,42.549 236.145 C 43.414 236.145,43.734 236.307,44.224 236.995 C 44.694 237.655,45.046 237.845,45.796 237.845 C 46.514 237.845,46.882 238.028,47.227 238.554 L 47.691 239.263 195.464 239.263 L 343.237 239.263 343.702 238.554 C 344.069 237.994,344.403 237.845,345.301 237.845 C 346.232 237.845,346.481 237.726,346.690 237.175 C 346.968 236.443,347.513 236.145,348.573 236.145 C 349.244 236.145,354.642 231.081,354.642 230.451 C 354.642 230.308,354.837 230.191,355.074 230.191 C 355.312 230.191,355.624 229.883,355.767 229.507 C 355.910 229.130,356.289 228.739,356.610 228.637 C 357.119 228.476,357.193 228.220,357.193 226.637 C 357.193 224.949,357.253 224.778,358.044 224.193 L 358.894 223.565 358.894 134.940 L 358.894 46.315 358.044 45.686 C 357.393 45.205,357.193 44.834,357.193 44.106 C 357.193 43.405,357.008 43.033,356.485 42.691 C 355.924 42.324,355.776 41.989,355.776 41.092 C 355.776 40.143,355.660 39.914,355.067 39.688 C 354.678 39.540,354.359 39.221,354.359 38.979 C 354.359 38.738,354.051 38.423,353.674 38.280 C 353.298 38.137,352.908 37.764,352.809 37.451 C 352.710 37.138,352.373 36.801,352.060 36.702 C 351.747 36.603,351.374 36.213,351.231 35.837 C 351.088 35.460,350.773 35.152,350.532 35.152 C 350.290 35.152,349.971 34.833,349.823 34.444 C 349.597 33.851,349.368 33.735,348.419 33.735 C 347.522 33.735,347.187 33.587,346.820 33.026 C 346.421 32.418,346.143 32.318,344.852 32.318 C 342.968 32.318,342.474 32.129,342.154 31.287 L 341.899 30.617 194.755 30.617 L 47.612 30.617 47.357 31.287 M330.404 137.208 L 330.404 222.962 313.143 223.036 C 300.630 223.089,295.776 223.020,295.496 222.788 C 294.957 222.341,294.914 52.188,295.452 51.649 C 295.714 51.388,299.876 51.324,313.099 51.380 L 330.404 51.453 330.404 137.208 M79.933 97.501 C 80.679 98.894,80.337 99.504,78.809 99.504 C 77.395 99.504,77.392 99.502,77.392 98.568 C 77.392 96.999,79.247 96.219,79.933 97.501 M92.275 97.443 C 93.601 97.647,93.698 97.718,93.779 98.550 C 93.881 99.605,94.454 99.787,97.662 99.787 C 99.135 99.787,99.817 99.907,100.067 100.208 C 100.566 100.809,100.366 112.930,99.849 113.447 C 99.299 113.996,98.538 113.370,98.370 112.231 L 98.228 111.269 95.819 111.084 C 91.369 110.743,81.223 110.811,80.850 111.184 C 80.663 111.371,80.510 112.047,80.510 112.686 C 80.510 114.088,80.128 114.529,78.912 114.529 C 78.041 114.529,77.984 114.595,77.803 115.801 C 77.558 117.431,77.763 117.931,78.677 117.931 C 79.996 117.931,80.510 118.408,80.510 119.634 C 80.510 120.588,80.634 120.815,81.361 121.191 C 81.828 121.433,82.211 121.737,82.211 121.868 C 82.211 121.998,82.926 122.189,83.800 122.292 C 86.064 122.558,86.464 122.836,86.464 124.147 C 86.464 125.428,86.724 125.585,88.852 125.585 C 90.548 125.585,91.177 126.053,91.330 127.427 C 91.420 128.237,91.504 128.288,93.089 128.485 C 95.089 128.733,95.535 129.053,95.535 130.240 C 95.535 131.409,95.978 131.821,97.233 131.821 C 98.619 131.821,100.354 133.631,100.354 135.075 C 100.354 135.756,100.543 136.173,100.992 136.488 C 102.232 137.355,102.335 152.350,101.113 154.075 C 100.781 154.543,100.443 155.498,100.361 156.198 C 100.240 157.234,100.068 157.540,99.433 157.844 C 98.819 158.138,98.653 158.412,98.653 159.139 C 98.653 160.523,98.160 160.933,96.281 161.112 C 95.140 161.220,94.453 161.446,94.097 161.827 C 93.356 162.623,90.638 162.781,79.566 162.672 L 70.259 162.580 69.691 161.800 C 69.284 161.241,68.877 161.021,68.248 161.021 C 66.492 161.021,66.336 160.585,66.336 155.678 C 66.336 149.323,66.805 147.057,68.153 146.897 C 69.197 146.772,69.738 147.296,69.738 148.430 C 69.738 149.561,70.202 149.874,72.340 150.179 C 73.829 150.392,73.849 150.408,73.935 151.441 C 74.054 152.859,74.104 152.868,81.829 152.850 C 89.171 152.833,89.015 152.862,89.015 151.528 C 89.015 150.847,89.218 150.413,89.724 150.015 C 90.876 149.109,90.788 144.772,89.582 143.019 C 89.114 142.339,88.731 141.455,88.731 141.055 C 88.731 140.490,88.589 140.326,88.099 140.326 C 86.455 140.326,84.479 139.137,84.479 138.148 C 84.479 137.281,84.407 137.206,83.558 137.185 C 81.364 137.131,79.809 136.309,79.714 135.152 C 79.636 134.210,79.539 134.089,78.863 134.088 C 77.554 134.085,75.915 133.501,74.861 132.661 C 74.216 132.148,73.437 131.823,72.714 131.767 C 71.629 131.683,71.577 131.635,71.493 130.624 C 71.434 129.912,71.180 129.391,70.713 129.024 C 70.275 128.679,70.018 128.183,70.011 127.670 C 70.006 127.225,69.819 126.541,69.596 126.152 C 69.373 125.762,69.186 124.972,69.181 124.397 C 69.171 123.395,69.126 123.347,68.108 123.263 C 66.147 123.101,65.750 117.563,67.114 109.426 C 67.307 108.274,67.411 108.142,68.179 108.062 C 69.219 107.953,69.738 107.329,69.738 106.183 C 69.738 105.054,71.575 103.189,72.686 103.189 C 74.314 103.189,75.408 102.459,75.408 101.371 C 75.408 100.090,75.965 99.787,78.330 99.787 C 81.290 99.787,81.882 99.588,81.983 98.558 C 82.121 97.146,86.952 96.623,92.275 97.443 M133.522 97.323 C 134.335 97.600,134.530 97.820,134.600 98.542 L 134.686 99.423 136.840 99.605 C 138.025 99.705,139.652 99.787,140.456 99.787 C 143.012 99.787,142.958 99.632,142.837 106.641 C 142.716 113.600,142.669 113.760,140.776 113.621 C 139.655 113.539,139.613 113.500,139.476 112.403 L 139.334 111.269 136.782 111.086 C 133.359 110.841,124.955 110.805,123.104 111.027 L 121.616 111.206 121.616 112.262 C 121.616 112.915,121.382 113.615,121.004 114.096 C 120.106 115.238,119.963 117.346,120.736 118.046 C 121.101 118.376,121.332 118.931,121.332 119.477 C 121.332 120.587,121.774 121.049,122.836 121.049 C 123.302 121.049,124.027 121.358,124.502 121.758 C 125.135 122.290,125.674 122.467,126.670 122.471 C 128.415 122.476,128.768 122.745,128.964 124.214 L 129.128 125.443 130.999 125.585 C 133.185 125.750,133.806 126.158,133.806 127.427 C 133.806 128.425,134.396 128.703,136.518 128.703 C 137.577 128.703,137.814 128.965,138.046 130.388 C 138.154 131.058,138.430 131.494,138.889 131.723 C 139.265 131.910,139.684 132.264,139.821 132.509 C 139.958 132.755,140.392 132.955,140.784 132.955 C 142.078 132.955,142.594 133.439,142.594 134.655 C 142.594 135.504,142.778 135.938,143.373 136.490 L 144.153 137.213 144.153 145.408 C 144.153 153.516,144.146 153.610,143.515 154.282 C 143.097 154.728,142.877 155.315,142.877 155.987 C 142.877 157.255,142.267 157.902,141.071 157.902 C 139.917 157.902,139.476 158.340,139.476 159.483 C 139.476 160.658,139.013 161.004,137.167 161.209 C 136.200 161.317,135.408 161.596,134.987 161.979 C 134.336 162.570,134.145 162.580,122.797 162.580 L 111.269 162.580 110.027 161.372 L 108.785 160.165 108.912 153.951 C 109.006 149.391,109.139 147.618,109.412 147.288 C 109.951 146.639,110.560 147.245,110.560 148.430 C 110.560 149.575,111.145 149.963,112.880 149.969 C 114.481 149.975,114.855 150.248,115.069 151.565 L 115.246 152.658 119.115 152.851 C 121.242 152.957,124.557 152.957,126.481 152.851 L 129.979 152.658 130.071 151.527 C 130.192 150.036,130.535 149.681,131.856 149.681 L 132.955 149.681 132.955 147.153 C 132.955 144.065,132.842 143.728,131.801 143.728 C 130.846 143.728,129.554 142.086,129.554 140.873 C 129.554 139.989,128.632 139.476,127.045 139.476 C 125.775 139.476,125.301 139.074,125.301 137.994 C 125.301 137.051,124.508 136.643,122.660 136.636 C 121.105 136.631,120.721 136.351,120.513 135.070 C 120.354 134.091,120.234 133.976,118.994 133.614 C 118.253 133.398,117.647 133.098,117.647 132.947 C 117.647 132.796,117.323 132.672,116.927 132.672 C 115.487 132.672,113.962 131.623,113.962 130.633 C 113.962 129.377,113.254 128.703,111.933 128.703 C 110.895 128.703,110.843 128.660,110.833 127.782 C 110.828 127.275,110.641 126.541,110.418 126.152 C 110.195 125.762,110.008 124.965,110.003 124.380 C 109.997 123.795,109.871 123.317,109.723 123.317 C 108.414 123.317,108.689 109.477,110.032 107.758 C 110.322 107.386,110.560 106.678,110.560 106.184 C 110.560 105.040,111.003 104.607,112.173 104.607 C 112.814 104.607,113.218 104.422,113.463 104.019 C 113.911 103.282,115.435 102.622,116.689 102.622 C 117.594 102.622,117.647 102.567,117.647 101.637 C 117.647 100.246,118.382 99.883,121.671 99.649 L 124.419 99.453 124.506 98.557 C 124.624 97.336,125.751 96.985,129.554 96.985 C 131.191 96.985,132.977 97.137,133.522 97.323 M120.995 98.463 C 121.076 99.414,121.020 99.504,120.357 99.504 C 119.751 99.504,119.631 99.373,119.631 98.710 C 119.631 97.025,120.855 96.803,120.995 98.463 M182.566 100.153 C 183.057 100.401,183.318 100.813,183.416 101.496 L 183.558 102.481 185.676 102.670 C 187.301 102.815,187.902 102.990,188.253 103.424 C 188.697 103.972,190.184 104.521,191.637 104.674 C 192.230 104.736,192.360 104.916,192.432 105.778 C 192.491 106.492,192.774 107.036,193.353 107.552 C 193.965 108.098,194.189 108.551,194.189 109.252 C 194.189 110.361,194.564 110.756,195.748 110.889 C 196.414 110.964,196.615 111.139,196.676 111.694 C 196.839 113.184,197.412 114.977,197.899 115.521 C 198.696 116.412,199.126 124.261,198.904 133.897 C 198.730 141.433,198.583 142.685,197.809 143.192 C 197.664 143.286,197.442 144.201,197.315 145.225 C 197.027 147.540,196.929 147.697,195.761 147.697 C 194.885 147.697,194.803 147.775,194.658 148.760 C 194.119 152.408,194.036 152.647,192.929 153.721 C 192.123 154.503,191.592 154.784,190.920 154.784 C 189.851 154.784,189.456 155.170,189.323 156.343 C 189.247 157.024,188.990 157.306,188.033 157.760 C 187.014 158.244,186.837 158.456,186.828 159.205 C 186.813 160.486,186.112 160.936,183.841 161.123 C 180.773 161.376,179.634 161.612,179.063 162.116 C 178.411 162.692,154.693 162.996,153.658 162.442 C 152.955 162.066,152.725 100.826,153.423 100.128 C 153.926 99.624,181.566 99.649,182.566 100.153 M73.936 101.434 L 74.024 102.655 72.661 102.568 C 71.165 102.472,70.781 101.866,71.439 100.636 C 72.096 99.409,73.830 99.963,73.936 101.434 M115.039 101.606 C 114.975 102.263,114.813 102.481,114.387 102.481 C 113.711 102.481,113.436 101.129,113.979 100.475 C 114.500 99.848,115.144 100.534,115.039 101.606 M152.374 131.254 L 152.374 162.296 151.751 162.385 C 149.810 162.661,149.965 165.357,149.965 131.301 C 149.965 98.242,149.878 99.968,151.522 100.129 L 152.374 100.213 152.374 131.254 M70.691 103.614 C 70.804 103.909,70.672 104.040,70.261 104.040 C 69.766 104.040,69.727 103.969,70.021 103.614 C 70.215 103.381,70.409 103.189,70.451 103.189 C 70.493 103.189,70.601 103.381,70.691 103.614 M113.111 103.614 C 113.111 103.931,112.777 104.040,111.801 104.040 C 110.668 104.040,110.538 103.982,110.843 103.614 C 111.037 103.381,111.627 103.189,112.154 103.189 C 112.816 103.189,113.111 103.320,113.111 103.614 M69.171 106.024 C 69.171 107.551,68.561 107.894,67.168 107.148 C 65.957 106.500,66.718 104.607,68.189 104.607 L 69.171 104.607 69.171 106.024 M109.993 106.015 C 109.993 107.151,109.911 107.392,109.568 107.261 C 109.053 107.063,108.993 105.436,109.483 104.947 C 109.980 104.450,109.993 104.477,109.993 106.015 M66.092 115.261 C 65.986 122.949,65.988 122.919,65.504 122.620 C 65.166 122.410,65.062 108.243,65.397 107.908 C 66.092 107.213,66.190 108.247,66.092 115.261 M108.575 115.237 L 108.575 122.750 107.640 122.750 C 106.037 122.750,106.024 122.689,106.024 115.237 C 106.024 107.786,106.037 107.725,107.640 107.725 L 108.575 107.725 108.575 115.237 M164.328 111.316 C 163.864 111.780,164.119 152.448,164.587 152.627 C 165.172 152.852,173.595 152.852,174.180 152.627 C 174.512 152.500,174.628 152.059,174.628 150.926 L 174.628 149.398 170.234 149.398 L 165.840 149.398 165.840 130.434 C 165.840 113.404,165.794 111.453,165.391 111.299 C 164.815 111.078,164.562 111.082,164.328 111.316 M173.836 111.361 C 173.439 111.621,173.431 113.608,173.825 114.132 C 173.954 114.303,174.795 114.466,175.694 114.493 L 177.329 114.542 177.183 112.905 L 177.038 111.269 175.620 111.195 C 174.841 111.154,174.038 111.229,173.836 111.361 M179.022 114.164 C 178.183 114.366,177.951 114.685,178.162 115.351 C 178.464 116.299,181.715 116.247,181.715 115.294 C 181.715 114.114,180.810 113.734,179.022 114.164 M186.038 123.221 C 185.108 123.596,185.689 129.634,186.642 129.498 C 187.389 129.391,187.509 128.570,187.244 125.372 C 187.055 123.083,186.930 122.861,186.038 123.221 M69.171 127.569 L 69.171 128.987 68.189 128.987 C 66.832 128.987,66.051 127.401,66.960 126.492 C 67.959 125.492,69.171 126.082,69.171 127.569 M109.993 127.604 C 109.993 128.862,109.936 129.009,109.568 128.703 C 109.142 128.349,108.976 126.696,109.331 126.341 C 109.795 125.877,109.993 126.255,109.993 127.604 M70.872 130.708 C 70.872 131.655,70.782 131.846,70.376 131.769 C 69.584 131.619,69.502 129.554,70.288 129.554 C 70.782 129.554,70.872 129.731,70.872 130.708 M113.111 130.829 C 113.111 132.206,112.450 132.530,111.108 131.811 C 109.865 131.146,110.378 129.554,111.836 129.554 L 113.111 129.554 113.111 130.829 M73.848 132.955 C 73.848 133.455,72.089 133.719,71.654 133.284 C 71.156 132.786,71.749 132.355,72.812 132.444 C 73.506 132.502,73.848 132.671,73.848 132.955 M114.654 132.563 C 115.009 132.699,115.037 132.826,114.782 133.134 C 114.419 133.571,113.547 133.113,113.840 132.640 C 114.025 132.341,114.065 132.337,114.654 132.563 M186.251 132.951 C 186.251 133.128,186.138 133.202,186.000 133.117 C 185.861 133.031,185.729 134.291,185.705 135.935 L 185.661 138.909 186.359 138.909 C 187.506 138.909,187.881 132.939,186.747 132.724 C 186.474 132.673,186.251 132.775,186.251 132.951 M77.108 135.065 C 77.108 136.172,76.711 136.567,76.104 136.063 C 75.368 135.453,75.573 134.089,76.400 134.089 C 77.018 134.089,77.108 134.213,77.108 135.065 M119.578 135.152 C 119.508 135.997,119.373 136.215,118.923 136.215 C 118.472 136.215,118.338 135.997,118.268 135.152 C 118.187 134.172,118.238 134.089,118.923 134.089 C 119.608 134.089,119.659 134.172,119.578 135.152 M81.644 138.183 C 81.644 139.290,81.247 139.686,80.640 139.182 C 79.904 138.571,80.108 137.208,80.936 137.208 C 81.554 137.208,81.644 137.332,81.644 138.183 M124.163 137.987 C 124.152 139.945,121.547 140.211,121.386 138.271 L 121.298 137.208 122.733 137.208 C 124.110 137.208,124.167 137.239,124.163 137.987 M86.038 141.322 C 86.038 142.656,85.357 142.894,84.939 141.706 C 84.605 140.757,84.899 139.973,85.541 140.096 C 85.916 140.168,86.038 140.470,86.038 141.322 M128.561 141.318 C 128.561 142.546,127.251 143.105,126.275 142.295 C 125.150 141.361,125.865 139.986,127.417 140.100 C 128.549 140.183,128.561 140.196,128.561 141.318 M182.755 141.932 C 182.651 142.036,182.566 142.419,182.566 142.783 C 182.566 143.242,182.402 143.444,182.032 143.444 C 181.469 143.444,181.159 144.164,181.152 145.485 C 181.148 146.207,181.065 146.254,179.660 146.335 L 178.172 146.421 178.086 147.909 L 178.000 149.398 179.574 149.398 C 181.124 149.398,181.148 149.385,181.148 148.570 C 181.148 147.404,181.415 146.846,181.972 146.846 C 182.781 146.846,183.133 146.228,183.133 144.805 L 183.133 143.444 184.408 143.444 C 185.637 143.444,185.684 143.413,185.684 142.594 C 185.684 141.760,183.435 141.252,182.755 141.932 M88.844 143.045 C 89.110 143.738,88.790 144.011,87.714 144.011 C 86.650 144.011,86.073 143.298,86.777 142.853 C 87.426 142.442,88.656 142.556,88.844 143.045 M129.837 143.444 C 129.837 143.756,129.725 144.011,129.588 144.011 C 129.216 144.011,128.680 143.279,128.894 143.064 C 129.283 142.676,129.837 142.900,129.837 143.444 M66.052 153.922 C 66.052 160.362,66.082 160.743,66.623 161.246 C 67.192 161.777,67.192 161.777,66.516 162.086 C 66.023 162.310,65.752 162.307,65.520 162.076 C 65.172 161.727,65.048 147.661,65.391 147.319 C 65.956 146.754,66.052 147.721,66.052 153.922 M108.575 153.982 C 108.575 159.740,108.645 160.911,109.010 161.314 C 109.609 161.977,108.079 162.672,106.919 162.264 L 106.166 161.999 106.090 154.924 C 106.002 146.760,105.939 147.130,107.433 147.130 L 108.575 147.130 108.575 153.982 " stroke="none" fill="#ccf3fb" fill-rule="evenodd"></path><path id="path1" d="M44.791 22.809 C 44.791 23.482,44.716 23.508,42.594 23.588 C 40.431 23.670,40.395 23.683,40.307 24.451 C 40.222 25.195,40.147 25.230,38.677 25.230 C 37.223 25.230,37.137 25.270,37.137 25.939 C 37.137 26.506,36.995 26.648,36.428 26.648 C 35.861 26.648,35.719 26.790,35.719 27.356 C 35.719 27.923,35.578 28.065,35.011 28.065 C 34.412 28.065,34.302 28.197,34.302 28.916 C 34.302 29.758,34.286 29.766,32.743 29.766 L 31.184 29.766 31.184 31.184 C 31.184 32.506,31.136 32.601,30.475 32.601 C 29.876 32.601,29.766 32.733,29.766 33.451 C 29.766 34.207,29.672 34.302,28.916 34.302 C 28.197 34.302,28.065 34.412,28.065 35.011 C 28.065 35.578,27.923 35.719,27.356 35.719 C 26.686 35.719,26.648 35.804,26.648 37.279 C 26.648 38.753,26.609 38.838,25.939 38.838 C 25.242 38.838,25.230 38.876,25.230 41.106 L 25.230 43.373 24.380 43.373 L 23.529 43.373 23.529 134.940 L 23.529 226.506 24.380 226.506 L 25.230 226.506 25.230 228.916 C 25.230 231.297,25.239 231.325,25.939 231.325 C 26.601 231.325,26.648 231.420,26.648 232.743 C 26.648 234.055,26.699 234.160,27.338 234.160 C 27.880 234.160,28.047 234.327,28.117 234.940 C 28.188 235.552,28.374 235.739,28.987 235.809 C 29.720 235.893,29.766 235.982,29.766 237.297 C 29.766 238.590,29.818 238.696,30.456 238.696 C 30.998 238.696,31.165 238.863,31.236 239.476 C 31.319 240.203,31.425 240.261,32.814 240.341 C 34.180 240.420,34.302 240.483,34.302 241.120 C 34.302 241.672,34.448 241.814,35.011 241.814 C 35.578 241.814,35.719 241.956,35.719 242.523 C 35.719 243.085,35.862 243.232,36.409 243.232 C 36.951 243.232,37.118 243.399,37.189 244.011 C 37.272 244.738,37.379 244.797,38.767 244.877 C 40.134 244.955,40.255 245.019,40.255 245.656 C 40.255 246.335,40.306 246.350,42.523 246.350 C 44.753 246.350,44.791 246.362,44.791 247.059 L 44.791 247.768 194.755 247.768 L 344.720 247.768 344.720 247.059 L 344.720 246.350 347.697 246.350 C 350.661 246.350,350.673 246.347,350.673 245.660 C 350.673 245.118,350.841 244.951,351.453 244.881 C 352.065 244.810,352.252 244.624,352.322 244.011 C 352.407 243.278,352.495 243.232,353.810 243.232 C 355.103 243.232,355.209 243.179,355.209 242.542 C 355.209 242.000,355.376 241.833,355.989 241.762 C 356.547 241.698,356.794 241.491,356.859 241.035 C 356.939 240.472,357.113 240.397,358.347 240.397 L 359.745 240.397 359.745 238.857 C 359.745 237.387,359.781 237.312,360.524 237.226 C 361.075 237.163,361.330 236.955,361.392 236.516 C 361.447 236.130,361.715 235.863,362.101 235.808 C 362.539 235.745,362.748 235.491,362.811 234.940 C 362.882 234.327,363.049 234.160,363.591 234.160 C 364.228 234.160,364.281 234.054,364.281 232.762 C 364.281 231.447,364.327 231.358,365.060 231.273 C 365.833 231.184,365.841 231.162,365.922 228.845 C 366.002 226.572,366.024 226.506,366.702 226.506 L 367.399 226.506 367.399 134.940 L 367.399 43.373 366.690 43.373 C 365.993 43.373,365.982 43.336,365.982 41.106 L 365.982 38.838 365.131 38.838 C 364.289 38.838,364.281 38.822,364.281 37.279 C 364.281 35.804,364.242 35.719,363.572 35.719 C 363.005 35.719,362.863 35.578,362.863 35.011 C 362.863 34.449,362.720 34.302,362.173 34.302 C 361.631 34.302,361.464 34.135,361.394 33.522 C 361.323 32.910,361.137 32.723,360.524 32.653 C 359.912 32.583,359.745 32.415,359.745 31.873 C 359.745 31.327,359.598 31.184,359.036 31.184 C 358.469 31.184,358.327 31.042,358.327 30.475 C 358.327 29.913,358.184 29.766,357.638 29.766 C 357.096 29.766,356.928 29.599,356.858 28.987 C 356.787 28.374,356.601 28.188,355.989 28.117 C 355.376 28.047,355.209 27.880,355.209 27.338 C 355.209 26.699,355.104 26.648,353.792 26.648 C 352.469 26.648,352.374 26.601,352.374 25.939 C 352.374 25.270,352.288 25.230,350.834 25.230 C 349.364 25.230,349.289 25.195,349.204 24.451 C 349.116 23.683,349.080 23.670,346.917 23.588 C 344.795 23.508,344.720 23.482,344.720 22.809 L 344.720 22.112 194.755 22.112 L 44.791 22.112 44.791 22.809 M342.063 29.936 C 342.395 30.025,342.804 30.400,342.972 30.769 C 343.244 31.365,343.494 31.450,345.204 31.525 C 346.887 31.598,347.165 31.689,347.410 32.247 C 347.623 32.732,347.927 32.886,348.685 32.889 C 349.826 32.894,350.210 33.095,350.483 33.833 C 350.589 34.120,350.931 34.422,351.242 34.504 C 351.553 34.585,351.807 34.761,351.807 34.894 C 351.807 35.211,354.300 37.704,354.616 37.704 C 354.750 37.704,354.926 37.958,355.007 38.269 C 355.089 38.580,355.391 38.922,355.678 39.028 C 356.416 39.301,356.617 39.685,356.622 40.826 C 356.625 41.584,356.779 41.888,357.264 42.101 C 357.759 42.318,357.922 42.656,357.990 43.600 C 358.060 44.567,358.212 44.869,358.731 45.066 C 359.779 45.464,359.745 42.478,359.745 134.940 C 359.745 227.601,359.781 224.414,358.714 224.820 C 358.104 225.052,358.044 225.241,358.044 226.918 C 358.044 228.563,357.969 228.810,357.346 229.218 C 356.963 229.469,356.573 229.912,356.481 230.202 C 356.389 230.492,356.072 230.806,355.776 230.900 C 355.480 230.994,355.157 231.327,355.058 231.640 C 354.958 231.952,354.569 232.325,354.193 232.468 C 353.816 232.612,353.508 232.926,353.508 233.167 C 353.508 233.408,353.192 233.750,352.805 233.926 C 352.418 234.102,352.029 234.475,351.940 234.756 C 351.851 235.036,351.549 235.338,351.269 235.427 C 350.989 235.516,350.615 235.905,350.439 236.292 C 350.175 236.872,349.917 236.995,348.972 236.995 C 348.036 236.995,347.769 237.120,347.514 237.680 C 347.193 238.384,346.529 238.685,345.283 238.692 C 344.819 238.695,344.474 238.918,344.291 239.334 L 344.011 239.972 196.031 240.049 C 41.194 240.130,46.918 240.160,46.633 239.262 C 46.500 238.841,46.204 238.696,45.481 238.696 C 44.539 238.696,43.373 237.912,43.373 237.279 C 43.373 237.123,42.866 236.995,42.246 236.995 C 41.361 236.995,41.020 236.845,40.662 236.297 C 40.410 235.914,39.974 235.527,39.693 235.438 C 39.412 235.348,39.114 235.015,39.031 234.697 C 38.948 234.378,38.615 234.049,38.292 233.964 C 37.968 233.880,37.704 233.701,37.704 233.568 C 37.704 233.250,35.210 230.758,34.892 230.758 C 34.757 230.758,34.575 230.471,34.486 230.120 C 34.398 229.770,34.033 229.355,33.676 229.199 C 33.106 228.950,33.016 228.684,32.943 227.027 C 32.870 225.381,32.770 225.079,32.163 224.681 L 31.467 224.225 31.467 134.940 L 31.467 45.654 32.176 45.190 C 32.696 44.849,32.884 44.476,32.884 43.786 C 32.884 42.891,33.474 41.956,34.039 41.956 C 34.183 41.956,34.302 41.510,34.302 40.964 C 34.302 40.025,35.075 38.838,35.686 38.838 C 35.824 38.838,36.006 38.573,36.090 38.250 C 36.175 37.926,36.497 37.596,36.806 37.515 C 37.115 37.434,37.434 37.115,37.515 36.806 C 37.596 36.497,37.911 36.179,38.215 36.100 C 38.520 36.020,38.904 35.658,39.069 35.295 C 39.235 34.932,39.602 34.561,39.886 34.471 C 40.170 34.381,40.528 34.019,40.683 33.667 C 40.898 33.177,41.238 33.006,42.130 32.941 C 43.047 32.874,43.363 32.708,43.612 32.161 C 43.872 31.591,44.133 31.467,45.074 31.467 C 46.016 31.467,46.277 31.343,46.537 30.772 C 46.712 30.389,47.060 30.021,47.311 29.954 C 48.006 29.768,341.372 29.750,342.063 29.936 M295.960 137.208 L 295.960 222.254 312.828 222.254 L 329.695 222.254 329.695 137.208 L 329.695 52.162 312.828 52.162 L 295.960 52.162 295.960 137.208 M322.041 70.446 L 322.041 81.077 312.970 81.077 L 303.898 81.077 303.898 70.446 L 303.898 59.816 312.970 59.816 L 322.041 59.816 322.041 70.446 M322.041 99.362 L 322.041 108.575 312.970 108.575 L 303.898 108.575 303.898 99.362 L 303.898 90.149 312.970 90.149 L 322.041 90.149 322.041 99.362 M80.794 100.603 L 77.250 100.780 77.154 101.630 C 77.025 102.778,76.683 103.127,75.303 103.519 C 74.659 103.702,74.011 103.958,73.863 104.087 C 73.714 104.217,73.306 104.323,72.956 104.323 C 72.118 104.323,70.872 105.498,70.872 106.288 C 70.872 106.631,70.719 107.190,70.531 107.531 C 70.344 107.872,70.096 108.788,69.980 109.568 C 69.463 113.040,69.378 113.246,68.417 113.340 C 67.302 113.448,67.194 113.815,67.194 117.505 C 67.194 121.173,67.317 121.616,68.333 121.616 C 69.453 121.616,70.305 122.777,70.305 124.303 C 70.305 125.137,70.476 125.652,70.872 126.010 C 71.184 126.292,71.439 126.860,71.439 127.273 C 71.439 128.232,71.917 128.703,72.893 128.703 C 73.900 128.703,74.557 129.385,74.557 130.431 C 74.557 131.058,74.731 131.335,75.249 131.531 C 75.629 131.676,76.080 132.056,76.251 132.375 C 76.508 132.855,76.842 132.956,78.181 132.960 C 80.235 132.965,80.570 133.190,80.772 134.703 L 80.936 135.932 82.917 136.017 C 85.177 136.115,86.180 136.747,86.180 138.074 C 86.180 138.904,86.712 139.181,88.320 139.188 C 89.449 139.193,89.865 139.646,89.865 140.868 C 89.865 141.602,90.060 142.019,90.606 142.455 C 91.996 143.563,91.959 150.005,90.559 150.537 C 89.990 150.754,89.865 150.996,89.865 151.885 C 89.865 153.407,89.495 153.650,87.179 153.650 C 85.751 153.650,84.974 153.789,84.486 154.131 C 83.538 154.795,78.714 154.817,77.675 154.162 C 77.234 153.884,75.951 153.646,74.274 153.531 C 71.342 153.330,70.872 153.066,70.872 151.628 C 70.872 150.684,70.718 150.577,69.025 150.345 C 67.223 150.098,67.196 150.176,67.191 155.527 L 67.186 160.098 68.582 160.232 C 69.542 160.324,70.256 160.601,70.871 161.119 L 71.766 161.871 81.061 161.871 C 89.927 161.871,90.389 161.845,91.077 161.304 C 91.473 160.992,92.072 160.737,92.407 160.737 C 94.295 160.737,95.535 160.128,95.535 159.201 C 95.535 158.118,95.971 157.619,96.918 157.619 C 98.818 157.619,99.434 157.081,99.562 155.309 C 99.648 154.115,99.853 153.475,100.301 152.998 C 101.086 152.163,101.285 140.130,100.525 139.499 C 100.144 139.184,99.948 138.318,99.610 135.470 C 99.487 134.440,99.307 134.090,98.770 133.846 C 98.394 133.675,98.086 133.358,98.086 133.143 C 98.086 132.882,97.597 132.693,96.630 132.578 C 94.844 132.367,94.118 131.767,94.118 130.502 C 94.118 129.575,94.090 129.553,92.913 129.553 C 91.058 129.552,89.754 128.776,89.582 127.569 C 89.443 126.596,89.411 126.574,87.881 126.426 C 85.706 126.216,85.100 125.816,84.992 124.521 C 84.908 123.500,84.860 123.456,83.770 123.383 C 81.946 123.261,81.447 123.080,80.463 122.181 C 79.950 121.713,79.212 121.330,78.817 121.328 C 77.435 121.320,77.245 120.831,76.926 116.471 C 76.744 113.975,77.228 113.111,78.809 113.111 C 79.521 113.111,79.660 112.999,79.660 112.421 C 79.660 111.133,80.138 110.365,81.055 110.182 C 81.789 110.035,81.928 109.876,81.928 109.184 C 81.928 107.758,82.357 107.640,88.036 107.497 C 93.824 107.352,94.118 107.425,94.118 109.005 C 94.118 110.161,94.402 110.276,97.259 110.276 L 99.504 110.276 99.504 105.457 L 99.504 100.638 97.165 100.637 C 95.879 100.637,92.466 100.589,89.582 100.532 C 86.697 100.474,82.743 100.506,80.794 100.603 M123.033 100.536 C 119.634 100.680,119.348 100.773,119.348 101.733 C 119.348 102.861,118.611 103.373,116.725 103.557 C 114.877 103.737,113.661 104.784,113.395 106.426 C 113.276 107.159,113.111 107.314,112.372 107.386 C 111.370 107.483,110.955 108.107,110.729 109.851 C 110.437 112.105,110.209 113.119,109.962 113.272 C 109.289 113.688,109.679 121.356,110.418 122.235 C 110.865 122.765,111.127 123.427,111.127 124.024 C 111.127 125.506,111.372 125.868,112.376 125.868 C 113.521 125.868,113.962 126.308,113.962 127.451 C 113.962 128.096,114.160 128.484,114.653 128.807 C 115.144 129.129,115.370 129.569,115.433 130.328 C 115.512 131.285,115.609 131.404,116.371 131.474 C 117.957 131.619,118.459 131.821,118.639 132.389 C 118.770 132.802,119.069 132.955,119.738 132.955 C 121.026 132.955,121.573 133.477,121.672 134.798 L 121.758 135.932 124.002 136.074 C 125.438 136.164,126.289 136.343,126.365 136.570 C 126.429 136.765,126.918 136.924,127.451 136.924 C 128.359 136.924,128.420 136.983,128.420 137.866 C 128.420 138.719,128.520 138.833,129.483 139.071 C 130.388 139.295,130.557 139.460,130.623 140.184 C 130.804 142.164,130.906 142.310,132.100 142.310 C 133.627 142.310,133.806 142.764,133.806 146.629 C 133.806 150.238,133.676 150.532,132.085 150.532 C 131.058 150.532,131.043 150.549,130.897 151.842 C 130.713 153.474,130.449 153.640,128.039 153.646 C 126.533 153.649,125.938 153.777,125.379 154.217 C 124.363 155.016,121.263 155.016,120.057 154.217 C 119.401 153.782,118.720 153.652,117.080 153.648 C 114.359 153.640,113.564 153.259,113.451 151.909 C 113.368 150.923,113.323 150.885,112.033 150.731 C 111.301 150.644,110.478 150.485,110.206 150.380 C 109.745 150.201,109.709 150.538,109.709 155.124 L 109.709 160.061 110.797 160.541 C 111.395 160.805,112.214 161.021,112.616 161.021 C 113.018 161.021,113.401 161.180,113.465 161.375 C 113.556 161.647,115.824 161.748,123.235 161.811 L 132.887 161.892 133.774 161.146 C 134.440 160.585,135.084 160.361,136.359 160.245 L 138.058 160.091 138.058 159.159 C 138.058 157.946,139.141 157.052,140.611 157.052 L 141.670 157.052 141.866 155.321 C 142.014 154.009,142.229 153.436,142.753 152.950 L 143.444 152.309 143.444 146.214 C 143.444 140.548,143.404 140.068,142.877 139.398 C 142.566 139.002,142.310 138.471,142.310 138.219 C 142.310 135.987,141.597 134.089,140.757 134.085 C 139.737 134.080,139.389 133.877,138.941 133.026 C 138.756 132.675,138.380 132.388,138.105 132.388 C 137.830 132.388,137.483 132.270,137.335 132.125 C 137.187 131.980,136.619 131.821,136.074 131.771 C 135.153 131.686,135.075 131.604,134.994 130.626 C 134.915 129.674,134.813 129.555,133.928 129.389 C 133.390 129.288,132.879 129.093,132.794 128.954 C 132.708 128.816,132.202 128.703,131.668 128.703 C 130.840 128.703,130.673 128.589,130.527 127.923 C 130.433 127.495,130.314 127.000,130.261 126.825 C 130.172 126.526,129.580 126.351,127.366 125.967 C 126.277 125.778,125.950 125.433,125.822 124.338 C 125.726 123.511,124.274 122.790,122.608 122.742 C 122.296 122.733,121.496 122.246,120.829 121.661 L 119.617 120.596 119.441 117.312 L 119.265 114.029 120.015 113.538 C 120.602 113.153,120.765 112.818,120.765 112.001 C 120.765 110.731,121.171 110.278,122.310 110.273 C 124.031 110.265,124.451 110.007,124.451 108.961 C 124.451 107.611,125.081 107.442,130.095 107.442 C 134.727 107.442,135.079 107.567,135.270 109.284 L 135.365 110.135 138.479 110.327 C 140.745 110.468,141.651 110.429,141.806 110.186 C 142.083 109.749,142.092 100.994,141.814 100.826 C 141.523 100.649,126.017 100.410,123.033 100.536 M154.406 100.827 C 154.302 100.931,154.217 114.639,154.217 131.289 L 154.217 161.562 155.138 161.731 C 156.839 162.042,177.183 161.756,177.402 161.417 C 177.754 160.875,178.809 160.454,179.814 160.454 C 182.557 160.454,183.416 160.154,183.416 159.196 C 183.416 158.111,183.853 157.619,184.819 157.617 C 186.803 157.613,187.668 157.095,187.668 155.912 C 187.668 154.977,187.797 154.732,188.469 154.385 C 188.909 154.157,189.435 153.771,189.637 153.527 C 189.840 153.283,190.382 153.083,190.842 153.083 C 191.880 153.083,192.488 152.505,192.488 151.518 C 192.488 151.103,192.743 150.438,193.055 150.042 C 193.387 149.619,193.622 148.892,193.622 148.282 C 193.622 146.970,194.030 146.563,195.348 146.563 L 196.394 146.563 196.564 144.507 C 196.867 140.839,197.074 139.722,197.479 139.566 C 198.062 139.343,198.067 121.467,197.484 121.243 C 197.224 121.144,197.031 120.356,196.905 118.874 C 196.524 114.413,196.478 114.245,195.637 114.245 C 194.376 114.245,193.622 113.513,193.622 112.289 C 193.622 111.575,193.431 111.043,193.055 110.702 C 192.734 110.412,192.488 109.828,192.488 109.362 C 192.488 108.313,191.904 107.725,190.864 107.725 C 189.845 107.725,189.369 107.265,189.369 106.279 C 189.369 105.704,189.122 105.367,188.377 104.928 C 187.831 104.606,187.385 104.229,187.385 104.091 C 187.385 103.953,186.284 103.763,184.939 103.668 C 182.116 103.469,181.432 103.063,181.432 101.586 L 181.432 100.638 168.013 100.638 C 160.633 100.638,154.510 100.723,154.406 100.827 M165.622 110.843 C 166.179 111.735,173.314 111.709,173.793 110.814 C 174.663 109.188,179.164 110.446,179.164 112.315 C 179.164 113.045,179.252 113.112,180.227 113.115 C 181.560 113.121,182.598 113.634,183.030 114.502 C 183.475 115.394,183.935 115.653,185.080 115.658 L 186.035 115.663 185.833 118.356 L 185.631 121.049 186.615 121.049 C 187.997 121.049,188.137 121.359,188.352 124.897 C 188.552 128.183,188.311 129.554,187.534 129.554 C 186.767 129.554,186.941 132.495,187.739 133.029 C 188.430 133.490,188.606 139.218,187.949 139.875 C 187.795 140.029,187.668 140.561,187.668 141.057 C 187.668 141.552,187.477 142.116,187.243 142.310 C 187.009 142.505,186.818 142.894,186.818 143.175 C 186.818 143.976,186.019 144.578,184.955 144.578 C 184.033 144.578,183.983 144.629,183.983 145.571 C 183.983 146.531,183.206 147.697,182.566 147.697 C 182.410 147.697,182.282 148.191,182.282 148.796 C 182.282 150.170,181.922 150.472,180.149 150.584 C 178.775 150.671,178.735 150.699,178.597 151.665 C 178.344 153.438,177.473 153.649,170.428 153.649 C 166.804 153.650,164.166 153.532,163.837 153.356 C 163.158 152.993,162.955 111.290,163.629 110.617 C 164.154 110.091,165.229 110.214,165.622 110.843 M322.041 125.018 L 322.041 132.672 313.678 132.672 L 305.315 132.672 305.315 125.018 L 305.315 117.364 313.678 117.364 L 322.041 117.364 322.041 125.018 M322.041 151.665 L 322.041 161.588 313.678 161.588 L 305.315 161.588 305.315 151.665 L 305.315 141.743 313.678 141.743 L 322.041 141.743 322.041 151.665 M322.041 179.022 L 322.041 187.385 312.970 187.385 L 303.898 187.385 303.898 179.022 L 303.898 170.659 312.970 170.659 L 322.041 170.659 322.041 179.022 M322.041 205.528 L 322.041 214.600 312.970 214.600 L 303.898 214.600 303.898 205.528 L 303.898 196.456 312.970 196.456 L 322.041 196.456 322.041 205.528 " stroke="none" fill="#04a4ec" fill-rule="evenodd"></path><path id="path2" d="M47.311 29.954 C 47.060 30.021,46.712 30.389,46.537 30.772 C 46.277 31.343,46.016 31.467,45.074 31.467 C 44.133 31.467,43.872 31.591,43.612 32.161 C 43.363 32.708,43.047 32.874,42.130 32.941 C 41.238 33.006,40.898 33.177,40.683 33.667 C 40.528 34.019,40.170 34.381,39.886 34.471 C 39.602 34.561,39.235 34.932,39.069 35.295 C 38.904 35.658,38.520 36.020,38.215 36.100 C 37.911 36.179,37.596 36.497,37.515 36.806 C 37.434 37.115,37.115 37.434,36.806 37.515 C 36.497 37.596,36.175 37.926,36.090 38.250 C 36.006 38.573,35.824 38.838,35.686 38.838 C 35.075 38.838,34.302 40.025,34.302 40.964 C 34.302 41.510,34.183 41.956,34.039 41.956 C 33.474 41.956,32.884 42.891,32.884 43.786 C 32.884 44.476,32.696 44.849,32.176 45.190 L 31.467 45.654 31.467 134.940 L 31.467 224.225 32.163 224.681 C 32.770 225.079,32.870 225.381,32.943 227.027 C 33.016 228.684,33.106 228.950,33.676 229.199 C 34.033 229.355,34.398 229.770,34.486 230.120 C 34.575 230.471,34.757 230.758,34.892 230.758 C 35.210 230.758,37.704 233.250,37.704 233.568 C 37.704 233.701,37.968 233.880,38.292 233.964 C 38.615 234.049,38.948 234.378,39.031 234.697 C 39.114 235.015,39.412 235.348,39.693 235.438 C 39.974 235.527,40.410 235.914,40.662 236.297 C 41.020 236.845,41.361 236.995,42.246 236.995 C 42.866 236.995,43.373 237.123,43.373 237.279 C 43.373 237.912,44.539 238.696,45.481 238.696 C 46.204 238.696,46.500 238.841,46.633 239.262 C 46.918 240.160,41.194 240.130,196.031 240.049 L 344.011 239.972 344.291 239.334 C 344.474 238.918,344.819 238.695,345.283 238.692 C 346.529 238.685,347.193 238.384,347.514 237.680 C 347.769 237.120,348.036 236.995,348.972 236.995 C 349.917 236.995,350.175 236.872,350.439 236.292 C 350.615 235.905,350.989 235.516,351.269 235.427 C 351.549 235.338,351.851 235.036,351.940 234.756 C 352.029 234.475,352.418 234.102,352.805 233.926 C 353.192 233.750,353.508 233.408,353.508 233.167 C 353.508 232.926,353.816 232.612,354.193 232.468 C 354.569 232.325,354.958 231.952,355.058 231.640 C 355.157 231.327,355.480 230.994,355.776 230.900 C 356.072 230.806,356.389 230.492,356.481 230.202 C 356.573 229.912,356.963 229.469,357.346 229.218 C 357.969 228.810,358.044 228.563,358.044 226.918 C 358.044 225.241,358.104 225.052,358.714 224.820 C 359.781 224.414,359.745 227.601,359.745 134.940 C 359.745 42.478,359.779 45.464,358.731 45.066 C 358.212 44.869,358.060 44.567,357.990 43.600 C 357.922 42.656,357.759 42.318,357.264 42.101 C 356.779 41.888,356.625 41.584,356.622 40.826 C 356.617 39.685,356.416 39.301,355.678 39.028 C 355.391 38.922,355.089 38.580,355.007 38.269 C 354.926 37.958,354.750 37.704,354.616 37.704 C 354.300 37.704,351.807 35.211,351.807 34.894 C 351.807 34.761,351.553 34.585,351.242 34.504 C 350.931 34.422,350.589 34.120,350.483 33.833 C 350.210 33.095,349.826 32.894,348.685 32.889 C 347.927 32.886,347.623 32.732,347.410 32.247 C 347.165 31.689,346.887 31.598,345.204 31.525 C 343.494 31.450,343.244 31.365,342.972 30.769 C 342.804 30.400,342.395 30.025,342.063 29.936 C 341.372 29.750,48.006 29.768,47.311 29.954 M342.620 31.042 C 343.034 31.673,343.279 31.751,344.862 31.751 C 346.445 31.751,346.690 31.828,347.104 32.459 C 347.430 32.957,347.824 33.168,348.426 33.168 C 349.699 33.168,356.343 39.812,356.343 41.085 C 356.343 41.687,356.554 42.081,357.052 42.407 C 357.564 42.743,357.760 43.124,357.760 43.782 C 357.760 44.386,357.999 44.916,358.469 45.358 L 359.178 46.024 359.178 134.940 L 359.178 223.856 358.469 224.522 C 357.881 225.074,357.760 225.451,357.760 226.732 L 357.760 228.276 353.579 232.490 C 349.971 236.127,349.276 236.705,348.509 236.708 C 347.876 236.711,347.486 236.916,347.156 237.420 C 346.818 237.936,346.440 238.129,345.769 238.129 C 345.099 238.129,344.642 238.362,344.100 238.979 L 343.354 239.830 195.537 239.830 L 47.720 239.830 46.962 238.979 C 46.403 238.352,45.953 238.129,45.247 238.129 C 44.538 238.129,44.168 237.945,43.825 237.420 C 43.497 236.919,43.106 236.712,42.492 236.712 C 41.748 236.712,41.012 236.096,37.395 232.453 L 33.168 228.194 33.168 226.532 C 33.168 225.072,33.082 224.814,32.459 224.406 L 31.751 223.942 31.751 134.940 L 31.751 45.938 32.459 45.474 C 32.972 45.137,33.168 44.757,33.168 44.096 C 33.168 43.440,33.406 42.971,34.018 42.426 C 34.603 41.906,34.869 41.404,34.869 40.826 C 34.869 39.566,41.303 33.168,42.570 33.168 C 43.154 33.168,43.614 32.938,43.991 32.459 C 44.385 31.958,44.824 31.751,45.488 31.751 C 46.176 31.751,46.550 31.562,46.891 31.042 L 47.355 30.333 194.755 30.333 L 342.156 30.333 342.620 31.042 M296.017 51.935 C 295.521 52.430,295.521 221.985,296.017 222.481 C 296.508 222.972,329.431 222.972,329.922 222.481 C 330.418 221.985,330.418 52.430,329.922 51.935 C 329.431 51.444,296.508 51.444,296.017 51.935 M329.695 137.208 L 329.695 222.254 312.828 222.254 L 295.960 222.254 295.960 137.208 L 295.960 52.162 312.828 52.162 L 329.695 52.162 329.695 137.208 M84.763 99.787 C 84.217 99.921,82.367 100.110,80.652 100.207 C 76.405 100.448,76.259 100.488,76.254 101.423 C 76.246 102.718,74.666 103.756,72.701 103.756 C 71.822 103.756,70.305 105.313,70.305 106.216 C 70.305 106.609,70.119 107.333,69.893 107.824 C 69.666 108.315,69.443 109.164,69.397 109.709 C 69.321 110.606,69.217 110.715,68.320 110.843 L 67.328 110.985 67.149 112.828 C 66.581 118.656,66.971 122.284,68.180 122.421 C 69.376 122.556,69.736 122.949,69.748 124.131 C 69.753 124.697,69.940 125.478,70.163 125.868 C 70.386 126.258,70.573 126.904,70.578 127.303 C 70.591 128.258,71.953 129.554,72.943 129.554 C 73.600 129.554,73.707 129.670,73.707 130.394 C 73.707 130.979,73.900 131.334,74.344 131.563 C 74.695 131.743,75.303 132.189,75.696 132.555 C 76.203 133.026,76.901 133.274,78.105 133.409 C 80.159 133.640,80.510 133.885,80.510 135.086 C 80.510 136.166,80.846 136.357,82.738 136.357 C 84.405 136.357,85.330 136.960,85.330 138.046 C 85.330 138.925,86.321 139.476,87.903 139.476 C 88.931 139.476,89.582 140.154,89.582 141.227 C 89.582 141.731,89.875 142.436,90.291 142.929 C 90.946 143.708,90.999 143.991,90.999 146.675 C 90.999 149.419,90.960 149.613,90.291 150.195 C 89.789 150.631,89.582 151.099,89.582 151.795 C 89.582 153.053,89.028 153.359,86.695 153.390 C 85.710 153.403,84.139 153.534,83.203 153.680 C 81.087 154.012,81.282 154.017,77.534 153.526 C 71.225 152.701,71.722 152.850,71.722 151.784 C 71.722 150.940,71.589 150.783,70.446 150.277 C 69.279 149.761,69.171 149.627,69.171 148.705 C 69.171 147.782,69.102 147.697,68.350 147.697 C 67.302 147.697,67.190 148.308,67.003 155.016 C 66.850 160.489,66.917 160.737,68.549 160.737 C 69.207 160.737,69.797 160.960,70.239 161.375 L 70.919 162.013 81.929 162.013 L 92.939 162.013 93.637 161.356 C 94.072 160.947,94.991 160.575,96.070 160.370 C 97.564 160.086,97.803 159.955,97.803 159.420 C 97.803 158.413,98.104 157.907,98.971 157.459 C 99.643 157.112,99.787 156.855,99.787 156.006 C 99.787 155.439,100.088 154.454,100.457 153.817 C 101.781 151.524,101.686 138.412,100.334 136.692 C 100.033 136.310,99.787 135.594,99.787 135.101 C 99.787 133.800,98.008 132.105,96.643 132.105 C 95.409 132.105,94.968 131.687,94.968 130.517 C 94.968 129.522,94.053 128.987,92.356 128.987 C 91.015 128.987,90.432 128.521,90.432 127.448 C 90.432 126.348,90.104 126.152,88.264 126.152 C 86.416 126.152,85.897 125.784,85.897 124.474 C 85.897 123.267,85.541 123.045,83.595 123.037 C 82.015 123.031,79.660 121.063,79.660 119.749 C 79.660 118.838,79.603 118.781,78.702 118.781 C 77.457 118.781,76.949 117.720,77.244 115.737 C 77.489 114.093,77.800 113.678,78.787 113.678 C 79.789 113.678,80.227 113.197,80.227 112.097 C 80.227 110.967,80.727 110.545,82.271 110.375 C 84.628 110.116,84.763 110.049,84.763 109.137 L 84.763 108.292 89.015 108.292 L 93.267 108.292 93.267 109.149 C 93.267 110.220,94.027 110.560,96.423 110.560 C 97.358 110.560,98.387 110.701,98.708 110.873 C 99.157 111.113,99.349 111.096,99.536 110.802 C 99.945 110.156,99.850 100.638,99.433 100.517 C 98.966 100.380,90.909 99.760,88.023 99.638 C 86.775 99.586,85.308 99.652,84.763 99.787 M125.868 99.760 C 125.478 99.883,123.889 100.076,122.337 100.190 C 119.025 100.433,118.498 100.647,118.498 101.747 C 118.498 102.808,118.101 103.077,116.230 103.284 C 115.000 103.420,114.542 103.617,114.061 104.213 C 113.673 104.696,113.058 105.034,112.367 105.146 C 111.345 105.313,111.271 105.394,111.069 106.574 C 110.952 107.263,110.725 107.956,110.566 108.116 C 110.407 108.275,110.276 108.865,110.276 109.426 C 110.276 109.987,110.127 110.596,109.945 110.778 C 109.245 111.478,109.254 121.527,109.955 122.475 C 110.288 122.926,110.560 123.694,110.560 124.183 C 110.560 125.544,111.376 126.719,112.322 126.719 C 112.983 126.719,113.111 126.838,113.111 127.457 C 113.111 127.908,113.388 128.414,113.820 128.754 C 114.301 129.132,114.529 129.591,114.529 130.181 C 114.529 131.256,115.198 131.800,116.535 131.812 C 117.241 131.819,117.750 132.036,118.214 132.530 C 118.580 132.920,119.148 133.239,119.476 133.239 C 120.442 133.239,121.332 134.035,121.332 134.899 C 121.332 136.036,121.824 136.356,123.586 136.366 C 125.453 136.377,126.152 136.817,126.152 137.982 C 126.152 138.777,126.234 138.844,127.375 138.973 C 129.293 139.189,130.249 139.762,130.343 140.753 C 130.487 142.268,130.968 142.877,132.018 142.877 C 133.271 142.877,133.522 143.557,133.522 146.950 C 133.522 149.847,133.333 150.248,131.963 150.248 C 130.850 150.248,130.404 150.694,130.404 151.807 C 130.404 153.097,129.959 153.366,127.828 153.366 C 126.786 153.366,125.268 153.581,124.456 153.844 C 123.071 154.291,122.866 154.291,121.187 153.844 C 120.203 153.581,118.550 153.366,117.516 153.366 C 115.095 153.366,113.962 152.825,113.962 151.668 C 113.962 150.708,113.319 150.248,111.977 150.248 C 110.551 150.248,109.998 149.800,109.955 148.608 C 109.851 145.716,109.473 150.824,109.451 155.431 C 109.428 159.989,109.473 160.488,109.922 160.646 C 110.195 160.743,110.715 161.090,111.079 161.417 C 112.150 162.383,133.254 162.345,134.488 161.375 C 134.947 161.014,135.695 160.737,136.211 160.737 C 138.007 160.737,138.909 160.218,138.909 159.185 C 138.909 158.039,139.457 157.555,140.988 157.351 L 142.169 157.193 142.315 155.776 C 142.404 154.914,142.723 154.008,143.128 153.464 L 143.795 152.569 143.683 145.040 C 143.574 137.692,143.556 137.496,142.941 136.923 C 142.505 136.517,142.310 136.006,142.310 135.269 C 142.310 133.971,141.908 133.522,140.746 133.522 C 140.193 133.522,139.639 133.283,139.269 132.884 C 138.943 132.534,138.346 132.017,137.942 131.737 C 137.456 131.400,137.208 130.967,137.208 130.456 C 137.208 129.736,137.091 129.661,135.492 129.357 C 133.403 128.960,132.955 128.621,132.955 127.433 C 132.955 126.518,132.952 126.516,131.203 126.333 C 128.903 126.092,128.136 125.584,128.136 124.302 C 128.136 123.382,128.075 123.316,127.215 123.304 C 126.103 123.289,124.070 122.601,123.934 122.193 C 123.881 122.032,123.429 121.899,122.931 121.899 C 121.642 121.899,120.765 121.200,120.765 120.171 C 120.765 119.706,120.494 118.958,120.163 118.510 C 119.340 117.398,119.490 114.670,120.425 113.735 C 120.816 113.344,121.049 112.762,121.049 112.176 C 121.049 111.027,121.480 110.560,122.539 110.560 C 124.532 110.560,125.868 109.977,125.868 109.109 L 125.868 108.292 130.120 108.292 L 134.373 108.292 134.373 109.132 C 134.373 110.240,135.024 110.560,137.277 110.560 C 138.427 110.560,139.284 110.711,139.634 110.976 C 140.430 111.578,141.665 111.519,142.017 110.862 C 142.463 110.029,142.407 100.648,141.956 100.517 C 140.356 100.049,126.949 99.419,125.868 99.760 M97.165 100.637 L 99.504 100.638 99.504 105.457 L 99.504 110.276 97.259 110.276 C 94.402 110.276,94.118 110.161,94.118 109.005 C 94.118 107.425,93.824 107.352,88.036 107.497 C 82.357 107.640,81.928 107.758,81.928 109.184 C 81.928 109.876,81.789 110.035,81.055 110.182 C 80.138 110.365,79.660 111.133,79.660 112.421 C 79.660 112.999,79.521 113.111,78.809 113.111 C 77.228 113.111,76.744 113.975,76.926 116.471 C 77.245 120.831,77.435 121.320,78.817 121.328 C 79.212 121.330,79.950 121.713,80.463 122.181 C 81.447 123.080,81.946 123.261,83.770 123.383 C 84.860 123.456,84.908 123.500,84.992 124.521 C 85.100 125.816,85.706 126.216,87.881 126.426 C 89.411 126.574,89.443 126.596,89.582 127.569 C 89.754 128.776,91.058 129.552,92.913 129.553 C 94.090 129.553,94.118 129.575,94.118 130.502 C 94.118 131.767,94.844 132.367,96.630 132.578 C 97.597 132.693,98.086 132.882,98.086 133.143 C 98.086 133.358,98.394 133.675,98.770 133.846 C 99.307 134.090,99.487 134.440,99.610 135.470 C 99.948 138.318,100.144 139.184,100.525 139.499 C 101.285 140.130,101.086 152.163,100.301 152.998 C 99.853 153.475,99.648 154.115,99.562 155.309 C 99.434 157.081,98.818 157.619,96.918 157.619 C 95.971 157.619,95.535 158.118,95.535 159.201 C 95.535 160.128,94.295 160.737,92.407 160.737 C 92.072 160.737,91.473 160.992,91.077 161.304 C 90.389 161.845,89.927 161.871,81.061 161.871 L 71.766 161.871 70.871 161.119 C 70.256 160.601,69.542 160.324,68.582 160.232 L 67.186 160.098 67.191 155.527 C 67.196 150.176,67.223 150.098,69.025 150.345 C 70.718 150.577,70.872 150.684,70.872 151.628 C 70.872 153.066,71.342 153.330,74.274 153.531 C 75.951 153.646,77.234 153.884,77.675 154.162 C 78.714 154.817,83.538 154.795,84.486 154.131 C 84.974 153.789,85.751 153.650,87.179 153.650 C 89.495 153.650,89.865 153.407,89.865 151.885 C 89.865 150.996,89.990 150.754,90.559 150.537 C 91.959 150.005,91.996 143.563,90.606 142.455 C 90.060 142.019,89.865 141.602,89.865 140.868 C 89.865 139.646,89.449 139.193,88.320 139.188 C 86.712 139.181,86.180 138.904,86.180 138.074 C 86.180 136.747,85.177 136.115,82.917 136.017 L 80.936 135.932 80.772 134.703 C 80.570 133.190,80.235 132.965,78.181 132.960 C 76.842 132.956,76.508 132.855,76.251 132.375 C 76.080 132.056,75.629 131.676,75.249 131.531 C 74.731 131.335,74.557 131.058,74.557 130.431 C 74.557 129.385,73.900 128.703,72.893 128.703 C 71.917 128.703,71.439 128.232,71.439 127.273 C 71.439 126.860,71.184 126.292,70.872 126.010 C 70.476 125.652,70.305 125.137,70.305 124.303 C 70.305 122.777,69.453 121.616,68.333 121.616 C 67.317 121.616,67.194 121.173,67.194 117.505 C 67.194 113.815,67.302 113.448,68.417 113.340 C 69.378 113.246,69.463 113.040,69.980 109.568 C 70.096 108.788,70.344 107.872,70.531 107.531 C 70.719 107.190,70.872 106.631,70.872 106.288 C 70.872 105.498,72.118 104.323,72.956 104.323 C 73.306 104.323,73.714 104.217,73.863 104.087 C 74.011 103.958,74.659 103.702,75.303 103.519 C 76.683 103.127,77.025 102.778,77.154 101.630 L 77.250 100.780 80.794 100.603 C 82.743 100.506,86.697 100.474,89.582 100.532 C 92.466 100.589,95.879 100.637,97.165 100.637 M141.814 100.826 C 142.092 100.994,142.083 109.749,141.806 110.186 C 141.651 110.429,140.745 110.468,138.479 110.327 L 135.365 110.135 135.270 109.284 C 135.079 107.567,134.727 107.442,130.095 107.442 C 125.081 107.442,124.451 107.611,124.451 108.961 C 124.451 110.007,124.031 110.265,122.310 110.273 C 121.171 110.278,120.765 110.731,120.765 112.001 C 120.765 112.818,120.602 113.153,120.015 113.538 L 119.265 114.029 119.441 117.312 L 119.617 120.596 120.829 121.661 C 121.496 122.246,122.296 122.733,122.608 122.742 C 124.274 122.790,125.726 123.511,125.822 124.338 C 125.950 125.433,126.277 125.778,127.366 125.967 C 129.580 126.351,130.172 126.526,130.261 126.825 C 130.314 127.000,130.433 127.495,130.527 127.923 C 130.673 128.589,130.840 128.703,131.668 128.703 C 132.202 128.703,132.708 128.816,132.794 128.954 C 132.879 129.093,133.390 129.288,133.928 129.389 C 134.813 129.555,134.915 129.674,134.994 130.626 C 135.075 131.604,135.153 131.686,136.074 131.771 C 136.619 131.821,137.187 131.980,137.335 132.125 C 137.483 132.270,137.830 132.388,138.105 132.388 C 138.380 132.388,138.756 132.675,138.941 133.026 C 139.389 133.877,139.737 134.080,140.757 134.085 C 141.597 134.089,142.310 135.987,142.310 138.219 C 142.310 138.471,142.566 139.002,142.877 139.398 C 143.404 140.068,143.444 140.548,143.444 146.214 L 143.444 152.309 142.753 152.950 C 142.229 153.436,142.014 154.009,141.866 155.321 L 141.670 157.052 140.611 157.052 C 139.141 157.052,138.058 157.946,138.058 159.159 L 138.058 160.091 136.359 160.245 C 135.084 160.361,134.440 160.585,133.774 161.146 L 132.887 161.892 123.235 161.811 C 115.824 161.748,113.556 161.647,113.465 161.375 C 113.401 161.180,113.018 161.021,112.616 161.021 C 112.214 161.021,111.395 160.805,110.797 160.541 L 109.709 160.061 109.709 155.124 C 109.709 150.538,109.745 150.201,110.206 150.380 C 110.478 150.485,111.301 150.644,112.033 150.731 C 113.323 150.885,113.368 150.923,113.451 151.909 C 113.564 153.259,114.359 153.640,117.080 153.648 C 118.720 153.652,119.401 153.782,120.057 154.217 C 121.263 155.016,124.363 155.016,125.379 154.217 C 125.938 153.777,126.533 153.649,128.039 153.646 C 130.449 153.640,130.713 153.474,130.897 151.842 C 131.043 150.549,131.058 150.532,132.085 150.532 C 133.676 150.532,133.806 150.238,133.806 146.629 C 133.806 142.764,133.627 142.310,132.100 142.310 C 130.906 142.310,130.804 142.164,130.623 140.184 C 130.557 139.460,130.388 139.295,129.483 139.071 C 128.520 138.833,128.420 138.719,128.420 137.866 C 128.420 136.983,128.359 136.924,127.451 136.924 C 126.918 136.924,126.429 136.765,126.365 136.570 C 126.289 136.343,125.438 136.164,124.002 136.074 L 121.758 135.932 121.672 134.798 C 121.573 133.477,121.026 132.955,119.738 132.955 C 119.069 132.955,118.770 132.802,118.639 132.389 C 118.459 131.821,117.957 131.619,116.371 131.474 C 115.609 131.404,115.512 131.285,115.433 130.328 C 115.370 129.569,115.144 129.129,114.653 128.807 C 114.160 128.484,113.962 128.096,113.962 127.451 C 113.962 126.308,113.521 125.868,112.376 125.868 C 111.372 125.868,111.127 125.506,111.127 124.024 C 111.127 123.427,110.865 122.765,110.418 122.235 C 109.679 121.356,109.289 113.688,109.962 113.272 C 110.209 113.119,110.437 112.105,110.729 109.851 C 110.955 108.107,111.370 107.483,112.372 107.386 C 113.111 107.314,113.276 107.159,113.395 106.426 C 113.661 104.784,114.877 103.737,116.725 103.557 C 118.611 103.373,119.348 102.861,119.348 101.733 C 119.348 100.773,119.634 100.680,123.033 100.536 C 126.017 100.410,141.523 100.649,141.814 100.826 M154.004 100.542 C 153.724 100.655,153.650 107.062,153.650 131.245 L 153.650 161.805 154.288 161.976 C 154.639 162.070,159.914 162.149,166.010 162.151 L 177.095 162.155 178.428 161.446 C 179.161 161.056,180.167 160.737,180.665 160.737 C 181.162 160.737,182.552 160.582,183.755 160.393 L 185.940 160.049 186.025 159.047 C 186.096 158.201,186.275 157.967,187.172 157.546 C 188.047 157.136,188.235 156.899,188.235 156.213 C 188.235 155.220,189.713 153.933,190.854 153.933 C 191.253 153.933,191.955 153.581,192.419 153.147 C 193.237 152.383,193.377 151.961,193.806 148.972 C 194.012 147.534,194.345 147.130,195.322 147.130 C 196.372 147.130,196.634 146.719,196.825 144.769 C 196.914 143.860,197.170 142.837,197.395 142.495 C 198.435 140.907,198.839 126.161,197.987 120.882 C 197.738 119.337,197.440 117.498,197.326 116.797 C 196.947 114.465,196.341 113.446,195.274 113.344 C 194.427 113.262,194.321 113.153,194.237 112.277 C 194.186 111.741,193.963 111.043,193.741 110.726 C 193.520 110.409,193.338 109.747,193.338 109.254 C 193.338 108.616,193.138 108.226,192.647 107.904 C 192.155 107.582,191.930 107.142,191.867 106.383 C 191.784 105.372,191.719 105.307,190.645 105.158 C 189.389 104.984,188.256 104.451,187.786 103.814 C 187.586 103.542,186.688 103.327,185.212 103.198 C 182.543 102.963,182.282 102.840,182.282 101.812 C 182.282 100.322,182.591 100.353,167.980 100.377 C 160.488 100.389,154.199 100.463,154.004 100.542 M181.432 101.586 C 181.432 103.063,182.116 103.469,184.939 103.668 C 186.284 103.763,187.385 103.953,187.385 104.091 C 187.385 104.229,187.831 104.606,188.377 104.928 C 189.122 105.367,189.369 105.704,189.369 106.279 C 189.369 107.265,189.845 107.725,190.864 107.725 C 191.904 107.725,192.488 108.313,192.488 109.362 C 192.488 109.828,192.734 110.412,193.055 110.702 C 193.431 111.043,193.622 111.575,193.622 112.289 C 193.622 113.513,194.376 114.245,195.637 114.245 C 196.478 114.245,196.524 114.413,196.905 118.874 C 197.031 120.356,197.224 121.144,197.484 121.243 C 198.067 121.467,198.062 139.343,197.479 139.566 C 197.074 139.722,196.867 140.839,196.564 144.507 L 196.394 146.563 195.348 146.563 C 194.030 146.563,193.622 146.970,193.622 148.282 C 193.622 148.892,193.387 149.619,193.055 150.042 C 192.743 150.438,192.488 151.103,192.488 151.518 C 192.488 152.505,191.880 153.083,190.842 153.083 C 190.382 153.083,189.840 153.283,189.637 153.527 C 189.435 153.771,188.909 154.157,188.469 154.385 C 187.797 154.732,187.668 154.977,187.668 155.912 C 187.668 157.095,186.803 157.613,184.819 157.617 C 183.853 157.619,183.416 158.111,183.416 159.196 C 183.416 160.154,182.557 160.454,179.814 160.454 C 178.809 160.454,177.754 160.875,177.402 161.417 C 177.183 161.756,156.839 162.042,155.138 161.731 L 154.217 161.562 154.217 131.289 C 154.217 114.639,154.302 100.931,154.406 100.827 C 154.510 100.723,160.633 100.638,168.013 100.638 L 181.432 100.638 181.432 101.586 M163.629 110.617 C 162.955 111.290,163.158 152.993,163.837 153.356 C 164.166 153.532,166.804 153.650,170.428 153.649 C 177.473 153.649,178.344 153.438,178.597 151.665 C 178.735 150.699,178.775 150.671,180.149 150.584 C 181.922 150.472,182.282 150.170,182.282 148.796 C 182.282 148.191,182.410 147.697,182.566 147.697 C 183.206 147.697,183.983 146.531,183.983 145.571 C 183.983 144.629,184.033 144.578,184.955 144.578 C 186.019 144.578,186.818 143.976,186.818 143.175 C 186.818 142.894,187.009 142.505,187.243 142.310 C 187.477 142.116,187.668 141.552,187.668 141.057 C 187.668 140.561,187.795 140.029,187.949 139.875 C 188.328 139.496,188.456 133.637,188.094 133.270 C 187.904 133.078,187.842 133.911,187.907 135.775 C 188.019 139.029,187.766 139.759,186.524 139.759 C 185.539 139.759,185.341 141.018,186.097 142.476 C 186.627 143.496,186.242 144.011,184.950 144.011 C 183.871 144.011,183.416 144.596,183.416 145.983 C 183.416 146.642,183.240 146.938,182.707 147.181 C 182.167 147.427,181.999 147.719,181.999 148.407 C 181.999 149.780,181.187 150.361,179.600 150.123 C 178.892 150.017,178.313 149.810,178.313 149.664 C 178.313 149.517,178.122 149.398,177.888 149.398 C 177.562 149.398,177.463 149.759,177.463 150.947 C 177.463 153.115,177.356 153.151,170.441 153.311 C 165.204 153.432,164.644 153.398,164.133 152.936 C 163.584 152.439,163.572 151.994,163.572 131.812 C 163.572 109.163,163.504 110.050,165.187 110.817 C 165.852 111.120,165.895 111.109,165.569 110.717 C 165.134 110.193,164.106 110.140,163.629 110.617 M173.774 110.851 C 173.442 111.470,173.449 111.474,174.094 111.022 C 175.717 109.885,178.313 110.724,178.313 112.386 C 178.313 113.429,178.738 113.667,180.617 113.674 C 181.909 113.679,182.168 114.005,182.425 115.946 C 182.831 119.008,182.708 118.806,184.290 118.989 C 185.716 119.154,185.957 118.869,185.963 117.009 C 185.967 115.679,185.956 115.663,185.046 115.658 C 183.934 115.653,183.472 115.388,183.030 114.502 C 182.598 113.634,181.560 113.121,180.227 113.115 C 179.252 113.112,179.164 113.045,179.164 112.315 C 179.164 110.415,174.662 109.191,173.774 110.851 M185.684 121.332 C 185.684 121.488,186.070 121.616,186.541 121.616 C 187.201 121.616,187.463 121.784,187.675 122.343 C 188.080 123.406,188.030 128.795,187.612 129.213 C 187.347 129.478,187.349 129.554,187.619 129.554 C 188.510 129.554,188.737 122.484,187.880 121.403 C 187.547 120.983,185.684 120.923,185.684 121.332 " stroke="none" fill="#3cb9f1" fill-rule="evenodd"></path><path id="path3" d="M46.891 31.042 C 46.550 31.562,46.176 31.751,45.488 31.751 C 44.824 31.751,44.385 31.958,43.991 32.459 C 43.614 32.938,43.154 33.168,42.570 33.168 C 41.303 33.168,34.869 39.566,34.869 40.826 C 34.869 41.404,34.603 41.906,34.018 42.426 C 33.406 42.971,33.168 43.440,33.168 44.096 C 33.168 44.757,32.972 45.137,32.459 45.474 L 31.751 45.938 31.751 134.940 L 31.751 223.942 32.459 224.406 C 33.082 224.814,33.168 225.072,33.168 226.532 L 33.168 228.194 37.395 232.453 C 41.012 236.096,41.748 236.712,42.492 236.712 C 43.106 236.712,43.497 236.919,43.825 237.420 C 44.168 237.945,44.538 238.129,45.247 238.129 C 45.953 238.129,46.403 238.352,46.962 238.979 L 47.720 239.830 195.537 239.830 L 343.354 239.830 344.100 238.979 C 344.642 238.362,345.099 238.129,345.769 238.129 C 346.440 238.129,346.818 237.936,347.156 237.420 C 347.486 236.916,347.876 236.711,348.509 236.708 C 349.276 236.705,349.971 236.127,353.579 232.490 L 357.760 228.276 357.760 226.732 C 357.760 225.451,357.881 225.074,358.469 224.522 L 359.178 223.856 359.178 134.940 L 359.178 46.024 358.469 45.358 C 357.999 44.916,357.760 44.386,357.760 43.782 C 357.760 43.124,357.564 42.743,357.052 42.407 C 356.554 42.081,356.343 41.687,356.343 41.085 C 356.343 39.812,349.699 33.168,348.426 33.168 C 347.824 33.168,347.430 32.957,347.104 32.459 C 346.690 31.828,346.445 31.751,344.862 31.751 C 343.279 31.751,343.034 31.673,342.620 31.042 L 342.156 30.333 194.755 30.333 L 47.355 30.333 46.891 31.042 M342.154 31.287 C 342.474 32.129,342.968 32.318,344.852 32.318 C 346.143 32.318,346.421 32.418,346.820 33.026 C 347.187 33.587,347.522 33.735,348.419 33.735 C 349.368 33.735,349.597 33.851,349.823 34.444 C 349.971 34.833,350.290 35.152,350.532 35.152 C 350.773 35.152,351.088 35.460,351.231 35.837 C 351.374 36.213,351.747 36.603,352.060 36.702 C 352.373 36.801,352.710 37.138,352.809 37.451 C 352.908 37.764,353.298 38.137,353.674 38.280 C 354.051 38.423,354.359 38.738,354.359 38.979 C 354.359 39.221,354.678 39.540,355.067 39.688 C 355.660 39.914,355.776 40.143,355.776 41.092 C 355.776 41.989,355.924 42.324,356.485 42.691 C 357.008 43.033,357.193 43.405,357.193 44.106 C 357.193 44.834,357.393 45.205,358.044 45.686 L 358.894 46.315 358.894 134.940 L 358.894 223.565 358.044 224.193 C 357.253 224.778,357.193 224.949,357.193 226.637 C 357.193 228.220,357.119 228.476,356.610 228.637 C 356.289 228.739,355.910 229.130,355.767 229.507 C 355.624 229.883,355.312 230.191,355.074 230.191 C 354.837 230.191,354.642 230.308,354.642 230.451 C 354.642 231.081,349.244 236.145,348.573 236.145 C 347.513 236.145,346.968 236.443,346.690 237.175 C 346.481 237.726,346.232 237.845,345.301 237.845 C 344.403 237.845,344.069 237.994,343.702 238.554 L 343.237 239.263 195.464 239.263 L 47.691 239.263 47.227 238.554 C 46.882 238.028,46.514 237.845,45.796 237.845 C 45.046 237.845,44.694 237.655,44.224 236.995 C 43.734 236.307,43.414 236.145,42.549 236.145 C 41.684 236.145,41.419 236.009,41.157 235.436 C 40.980 235.046,40.637 234.727,40.396 234.727 C 40.155 234.727,39.836 234.408,39.688 234.018 C 39.540 233.629,39.221 233.310,38.979 233.310 C 38.738 233.310,38.423 233.002,38.280 232.625 C 38.137 232.249,37.757 231.857,37.437 231.756 C 37.116 231.654,36.853 231.452,36.853 231.306 C 36.853 231.161,36.152 230.346,35.294 229.495 C 33.746 227.959,33.735 227.936,33.735 226.229 C 33.735 224.670,33.669 224.479,33.026 224.187 L 32.318 223.864 32.318 134.940 L 32.318 46.016 33.026 45.693 C 33.606 45.429,33.735 45.169,33.735 44.263 C 33.735 43.394,33.888 43.055,34.444 42.691 C 34.938 42.367,35.152 41.970,35.152 41.378 C 35.152 40.131,41.555 33.735,42.804 33.735 C 43.387 33.735,43.786 33.518,44.108 33.026 C 44.421 32.549,44.832 32.318,45.367 32.318 C 46.534 32.318,47.071 32.039,47.357 31.287 L 47.612 30.617 194.755 30.617 L 341.899 30.617 342.154 31.287 M295.452 51.649 C 294.914 52.188,294.957 222.341,295.496 222.788 C 295.776 223.020,300.630 223.089,313.143 223.036 L 330.404 222.962 330.404 137.208 L 330.404 51.453 313.099 51.380 C 299.876 51.324,295.714 51.388,295.452 51.649 M329.922 51.935 C 330.418 52.430,330.418 221.985,329.922 222.481 C 329.431 222.972,296.508 222.972,296.017 222.481 C 295.521 221.985,295.521 52.430,296.017 51.935 C 296.508 51.444,329.431 51.444,329.922 51.935 M83.912 97.339 C 82.142 97.663,82.066 97.711,81.983 98.558 C 81.882 99.588,81.290 99.787,78.330 99.787 C 75.965 99.787,75.408 100.090,75.408 101.371 C 75.408 102.459,74.314 103.189,72.686 103.189 C 71.575 103.189,69.738 105.054,69.738 106.183 C 69.738 107.329,69.219 107.953,68.179 108.062 C 67.411 108.142,67.307 108.274,67.114 109.426 C 65.750 117.563,66.147 123.101,68.108 123.263 C 69.126 123.347,69.171 123.395,69.181 124.397 C 69.186 124.972,69.373 125.762,69.596 126.152 C 69.819 126.541,70.006 127.225,70.011 127.670 C 70.018 128.183,70.275 128.679,70.713 129.024 C 71.180 129.391,71.434 129.912,71.493 130.624 C 71.577 131.635,71.629 131.683,72.714 131.767 C 73.437 131.823,74.216 132.148,74.861 132.661 C 75.915 133.501,77.554 134.085,78.863 134.088 C 79.539 134.089,79.636 134.210,79.714 135.152 C 79.809 136.309,81.364 137.131,83.558 137.185 C 84.407 137.206,84.479 137.281,84.479 138.148 C 84.479 139.137,86.455 140.326,88.099 140.326 C 88.589 140.326,88.731 140.490,88.731 141.055 C 88.731 141.455,89.114 142.339,89.582 143.019 C 90.788 144.772,90.876 149.109,89.724 150.015 C 89.218 150.413,89.015 150.847,89.015 151.528 C 89.015 152.862,89.171 152.833,81.829 152.850 C 74.104 152.868,74.054 152.859,73.935 151.441 C 73.849 150.408,73.829 150.392,72.340 150.179 C 70.202 149.874,69.738 149.561,69.738 148.430 C 69.738 147.296,69.197 146.772,68.153 146.897 C 66.805 147.057,66.336 149.323,66.336 155.678 C 66.336 160.585,66.492 161.021,68.248 161.021 C 68.877 161.021,69.284 161.241,69.691 161.800 L 70.259 162.580 79.566 162.672 C 90.638 162.781,93.356 162.623,94.097 161.827 C 94.453 161.446,95.140 161.220,96.281 161.112 C 98.160 160.933,98.653 160.523,98.653 159.139 C 98.653 158.412,98.819 158.138,99.433 157.844 C 100.068 157.540,100.240 157.234,100.361 156.198 C 100.443 155.498,100.781 154.543,101.113 154.075 C 102.335 152.350,102.232 137.355,100.992 136.488 C 100.543 136.173,100.354 135.756,100.354 135.075 C 100.354 133.631,98.619 131.821,97.233 131.821 C 95.978 131.821,95.535 131.409,95.535 130.240 C 95.535 129.053,95.089 128.733,93.089 128.485 C 91.504 128.288,91.420 128.237,91.330 127.427 C 91.177 126.053,90.548 125.585,88.852 125.585 C 86.724 125.585,86.464 125.428,86.464 124.147 C 86.464 122.836,86.064 122.558,83.800 122.292 C 82.926 122.189,82.211 121.998,82.211 121.868 C 82.211 121.737,81.828 121.433,81.361 121.191 C 80.634 120.815,80.510 120.588,80.510 119.634 C 80.510 118.408,79.996 117.931,78.677 117.931 C 77.763 117.931,77.558 117.431,77.803 115.801 C 77.984 114.595,78.041 114.529,78.912 114.529 C 80.128 114.529,80.510 114.088,80.510 112.686 C 80.510 112.047,80.663 111.371,80.850 111.184 C 81.223 110.811,91.369 110.743,95.819 111.084 L 98.228 111.269 98.370 112.231 C 98.538 113.370,99.299 113.996,99.849 113.447 C 100.366 112.930,100.566 100.809,100.067 100.208 C 99.817 99.907,99.135 99.787,97.662 99.787 C 94.454 99.787,93.881 99.605,93.779 98.550 C 93.654 97.271,88.051 96.584,83.912 97.339 M125.585 97.323 C 124.766 97.602,124.577 97.818,124.506 98.557 L 124.419 99.453 121.671 99.649 C 118.382 99.883,117.647 100.246,117.647 101.637 C 117.647 102.567,117.594 102.622,116.689 102.622 C 115.435 102.622,113.911 103.282,113.463 104.019 C 113.218 104.422,112.814 104.607,112.173 104.607 C 111.003 104.607,110.560 105.040,110.560 106.184 C 110.560 106.678,110.322 107.386,110.032 107.758 C 108.689 109.477,108.414 123.317,109.723 123.317 C 109.871 123.317,109.997 123.795,110.003 124.380 C 110.008 124.965,110.195 125.762,110.418 126.152 C 110.641 126.541,110.828 127.275,110.833 127.782 C 110.843 128.660,110.895 128.703,111.933 128.703 C 113.254 128.703,113.962 129.377,113.962 130.633 C 113.962 131.623,115.487 132.672,116.927 132.672 C 117.323 132.672,117.647 132.796,117.647 132.947 C 117.647 133.098,118.253 133.398,118.994 133.614 C 120.234 133.976,120.354 134.091,120.513 135.070 C 120.721 136.351,121.105 136.631,122.660 136.636 C 124.508 136.643,125.301 137.051,125.301 137.994 C 125.301 139.074,125.775 139.476,127.045 139.476 C 128.632 139.476,129.554 139.989,129.554 140.873 C 129.554 142.086,130.846 143.728,131.801 143.728 C 132.842 143.728,132.955 144.065,132.955 147.153 L 132.955 149.681 131.856 149.681 C 130.535 149.681,130.192 150.036,130.071 151.527 L 129.979 152.658 126.481 152.851 C 124.557 152.957,121.242 152.957,119.115 152.851 L 115.246 152.658 115.069 151.565 C 114.855 150.248,114.481 149.975,112.880 149.969 C 111.145 149.963,110.560 149.575,110.560 148.430 C 110.560 147.245,109.951 146.639,109.412 147.288 C 109.139 147.618,109.006 149.391,108.912 153.951 L 108.785 160.165 110.027 161.372 L 111.269 162.580 122.797 162.580 C 134.145 162.580,134.336 162.570,134.987 161.979 C 135.408 161.596,136.200 161.317,137.167 161.209 C 139.013 161.004,139.476 160.658,139.476 159.483 C 139.476 158.340,139.917 157.902,141.071 157.902 C 142.267 157.902,142.877 157.255,142.877 155.987 C 142.877 155.315,143.097 154.728,143.515 154.282 C 144.146 153.610,144.153 153.516,144.153 145.408 L 144.153 137.213 143.373 136.490 C 142.778 135.938,142.594 135.504,142.594 134.655 C 142.594 133.439,142.078 132.955,140.784 132.955 C 140.392 132.955,139.958 132.755,139.821 132.509 C 139.684 132.264,139.265 131.910,138.889 131.723 C 138.430 131.494,138.154 131.058,138.046 130.388 C 137.814 128.965,137.577 128.703,136.518 128.703 C 134.396 128.703,133.806 128.425,133.806 127.427 C 133.806 126.158,133.185 125.750,130.999 125.585 L 129.128 125.443 128.964 124.214 C 128.768 122.745,128.415 122.476,126.670 122.471 C 125.674 122.467,125.135 122.290,124.502 121.758 C 124.027 121.358,123.302 121.049,122.836 121.049 C 121.774 121.049,121.332 120.587,121.332 119.477 C 121.332 118.931,121.101 118.376,120.736 118.046 C 119.963 117.346,120.106 115.238,121.004 114.096 C 121.382 113.615,121.616 112.915,121.616 112.262 L 121.616 111.206 123.104 111.027 C 124.955 110.805,133.359 110.841,136.782 111.086 L 139.334 111.269 139.476 112.403 C 139.613 113.500,139.655 113.539,140.776 113.621 C 142.669 113.760,142.716 113.600,142.837 106.641 C 142.958 99.632,143.012 99.787,140.456 99.787 C 139.652 99.787,138.025 99.705,136.840 99.605 L 134.686 99.423 134.600 98.542 C 134.483 97.337,133.340 96.985,129.554 96.985 C 127.916 96.985,126.130 97.137,125.585 97.323 M94.685 100.074 C 97.101 100.260,99.238 100.460,99.433 100.517 C 99.850 100.638,99.945 110.156,99.536 110.802 C 99.349 111.096,99.157 111.113,98.708 110.873 C 98.387 110.701,97.358 110.560,96.423 110.560 C 94.027 110.560,93.267 110.220,93.267 109.149 L 93.267 108.292 89.015 108.292 L 84.763 108.292 84.763 109.137 C 84.763 110.049,84.628 110.116,82.271 110.375 C 80.727 110.545,80.227 110.967,80.227 112.097 C 80.227 113.197,79.789 113.678,78.787 113.678 C 77.800 113.678,77.489 114.093,77.244 115.737 C 76.949 117.720,77.457 118.781,78.702 118.781 C 79.603 118.781,79.660 118.838,79.660 119.749 C 79.660 121.063,82.015 123.031,83.595 123.037 C 85.541 123.045,85.897 123.267,85.897 124.474 C 85.897 125.784,86.416 126.152,88.264 126.152 C 90.104 126.152,90.432 126.348,90.432 127.448 C 90.432 128.521,91.015 128.987,92.356 128.987 C 94.053 128.987,94.968 129.522,94.968 130.517 C 94.968 131.687,95.409 132.105,96.643 132.105 C 98.008 132.105,99.787 133.800,99.787 135.101 C 99.787 135.594,100.033 136.310,100.334 136.692 C 101.686 138.412,101.781 151.524,100.457 153.817 C 100.088 154.454,99.787 155.439,99.787 156.006 C 99.787 156.855,99.643 157.112,98.971 157.459 C 98.104 157.907,97.803 158.413,97.803 159.420 C 97.803 159.955,97.564 160.086,96.070 160.370 C 94.991 160.575,94.072 160.947,93.637 161.356 L 92.939 162.013 81.929 162.013 L 70.919 162.013 70.239 161.375 C 69.797 160.960,69.207 160.737,68.549 160.737 C 66.917 160.737,66.850 160.489,67.003 155.016 C 67.190 148.308,67.302 147.697,68.350 147.697 C 69.102 147.697,69.171 147.782,69.171 148.705 C 69.171 149.627,69.279 149.761,70.446 150.277 C 71.589 150.783,71.722 150.940,71.722 151.784 C 71.722 152.850,71.225 152.701,77.534 153.526 C 81.282 154.017,81.087 154.012,83.203 153.680 C 84.139 153.534,85.710 153.403,86.695 153.390 C 89.028 153.359,89.582 153.053,89.582 151.795 C 89.582 151.099,89.789 150.631,90.291 150.195 C 90.960 149.613,90.999 149.419,90.999 146.675 C 90.999 143.991,90.946 143.708,90.291 142.929 C 89.875 142.436,89.582 141.731,89.582 141.227 C 89.582 140.154,88.931 139.476,87.903 139.476 C 86.321 139.476,85.330 138.925,85.330 138.046 C 85.330 136.960,84.405 136.357,82.738 136.357 C 80.846 136.357,80.510 136.166,80.510 135.086 C 80.510 133.885,80.159 133.640,78.105 133.409 C 76.901 133.274,76.203 133.026,75.696 132.555 C 75.303 132.189,74.695 131.743,74.344 131.563 C 73.900 131.334,73.707 130.979,73.707 130.394 C 73.707 129.670,73.600 129.554,72.943 129.554 C 71.953 129.554,70.591 128.258,70.578 127.303 C 70.573 126.904,70.386 126.258,70.163 125.868 C 69.940 125.478,69.753 124.697,69.748 124.131 C 69.736 122.949,69.376 122.556,68.180 122.421 C 66.971 122.284,66.581 118.656,67.149 112.828 L 67.328 110.985 68.320 110.843 C 69.217 110.715,69.321 110.606,69.397 109.709 C 69.443 109.164,69.666 108.315,69.893 107.824 C 70.119 107.333,70.305 106.609,70.305 106.216 C 70.305 105.313,71.822 103.756,72.701 103.756 C 74.666 103.756,76.246 102.718,76.254 101.423 C 76.259 100.488,76.405 100.448,80.652 100.207 C 82.367 100.110,84.217 99.921,84.763 99.787 C 85.884 99.511,88.318 99.582,94.685 100.074 M137.208 100.069 C 139.624 100.258,141.761 100.460,141.956 100.517 C 142.407 100.648,142.463 110.029,142.017 110.862 C 141.665 111.519,140.430 111.578,139.634 110.976 C 139.284 110.711,138.427 110.560,137.277 110.560 C 135.024 110.560,134.373 110.240,134.373 109.132 L 134.373 108.292 130.120 108.292 L 125.868 108.292 125.868 109.109 C 125.868 109.977,124.532 110.560,122.539 110.560 C 121.480 110.560,121.049 111.027,121.049 112.176 C 121.049 112.762,120.816 113.344,120.425 113.735 C 119.490 114.670,119.340 117.398,120.163 118.510 C 120.494 118.958,120.765 119.706,120.765 120.171 C 120.765 121.200,121.642 121.899,122.931 121.899 C 123.429 121.899,123.881 122.032,123.934 122.193 C 124.070 122.601,126.103 123.289,127.215 123.304 C 128.075 123.316,128.136 123.382,128.136 124.302 C 128.136 125.584,128.903 126.092,131.203 126.333 C 132.952 126.516,132.955 126.518,132.955 127.433 C 132.955 128.621,133.403 128.960,135.492 129.357 C 137.091 129.661,137.208 129.736,137.208 130.456 C 137.208 130.967,137.456 131.400,137.942 131.737 C 138.346 132.017,138.943 132.534,139.269 132.884 C 139.639 133.283,140.193 133.522,140.746 133.522 C 141.908 133.522,142.310 133.971,142.310 135.269 C 142.310 136.006,142.505 136.517,142.941 136.923 C 143.556 137.496,143.574 137.692,143.683 145.040 L 143.795 152.569 143.128 153.464 C 142.723 154.008,142.404 154.914,142.315 155.776 L 142.169 157.193 140.988 157.351 C 139.457 157.555,138.909 158.039,138.909 159.185 C 138.909 160.218,138.007 160.737,136.211 160.737 C 135.695 160.737,134.947 161.014,134.488 161.375 C 133.254 162.345,112.150 162.383,111.079 161.417 C 110.715 161.090,110.195 160.743,109.922 160.646 C 109.473 160.488,109.428 159.989,109.451 155.431 C 109.473 150.824,109.851 145.716,109.955 148.608 C 109.998 149.800,110.551 150.248,111.977 150.248 C 113.319 150.248,113.962 150.708,113.962 151.668 C 113.962 152.825,115.095 153.366,117.516 153.366 C 118.550 153.366,120.203 153.581,121.187 153.844 C 122.866 154.291,123.071 154.291,124.456 153.844 C 125.268 153.581,126.786 153.366,127.828 153.366 C 129.959 153.366,130.404 153.097,130.404 151.807 C 130.404 150.694,130.850 150.248,131.963 150.248 C 133.333 150.248,133.522 149.847,133.522 146.950 C 133.522 143.557,133.271 142.877,132.018 142.877 C 130.968 142.877,130.487 142.268,130.343 140.753 C 130.249 139.762,129.293 139.189,127.375 138.973 C 126.234 138.844,126.152 138.777,126.152 137.982 C 126.152 136.817,125.453 136.377,123.586 136.366 C 121.824 136.356,121.332 136.036,121.332 134.899 C 121.332 134.035,120.442 133.239,119.476 133.239 C 119.148 133.239,118.580 132.920,118.214 132.530 C 117.750 132.036,117.241 131.819,116.535 131.812 C 115.198 131.800,114.529 131.256,114.529 130.181 C 114.529 129.591,114.301 129.132,113.820 128.754 C 113.388 128.414,113.111 127.908,113.111 127.457 C 113.111 126.838,112.983 126.719,112.322 126.719 C 111.376 126.719,110.560 125.544,110.560 124.183 C 110.560 123.694,110.288 122.926,109.955 122.475 C 109.254 121.527,109.245 111.478,109.945 110.778 C 110.127 110.596,110.276 109.987,110.276 109.426 C 110.276 108.865,110.407 108.275,110.566 108.116 C 110.725 107.956,110.952 107.263,111.069 106.574 C 111.271 105.394,111.345 105.313,112.367 105.146 C 113.058 105.034,113.673 104.696,114.061 104.213 C 114.542 103.617,115.000 103.420,116.230 103.284 C 118.101 103.077,118.498 102.808,118.498 101.747 C 118.498 100.647,119.025 100.433,122.337 100.190 C 123.889 100.076,125.478 99.883,125.868 99.760 C 126.738 99.485,131.360 99.611,137.208 100.069 M153.423 100.128 C 152.725 100.826,152.955 162.066,153.658 162.442 C 154.693 162.996,178.411 162.692,179.063 162.116 C 179.634 161.612,180.773 161.376,183.841 161.123 C 186.112 160.936,186.813 160.486,186.828 159.205 C 186.837 158.456,187.014 158.244,188.033 157.760 C 188.990 157.306,189.247 157.024,189.323 156.343 C 189.456 155.170,189.851 154.784,190.920 154.784 C 191.592 154.784,192.123 154.503,192.929 153.721 C 194.036 152.647,194.119 152.408,194.658 148.760 C 194.803 147.775,194.885 147.697,195.761 147.697 C 196.929 147.697,197.027 147.540,197.315 145.225 C 197.442 144.201,197.664 143.286,197.809 143.192 C 198.583 142.685,198.730 141.433,198.904 133.897 C 199.126 124.261,198.696 116.412,197.899 115.521 C 197.412 114.977,196.839 113.184,196.676 111.694 C 196.615 111.139,196.414 110.964,195.748 110.889 C 194.564 110.756,194.189 110.361,194.189 109.252 C 194.189 108.551,193.965 108.098,193.353 107.552 C 192.774 107.036,192.491 106.492,192.432 105.778 C 192.360 104.916,192.230 104.736,191.637 104.674 C 190.184 104.521,188.697 103.972,188.253 103.424 C 187.902 102.990,187.301 102.815,185.676 102.670 L 183.558 102.481 183.416 101.496 C 183.318 100.813,183.057 100.401,182.566 100.153 C 181.566 99.649,153.926 99.624,153.423 100.128 M181.942 100.695 C 182.129 100.882,182.282 101.384,182.282 101.812 C 182.282 102.840,182.543 102.963,185.212 103.198 C 186.688 103.327,187.586 103.542,187.786 103.814 C 188.256 104.451,189.389 104.984,190.645 105.158 C 191.719 105.307,191.784 105.372,191.867 106.383 C 191.930 107.142,192.155 107.582,192.647 107.904 C 193.138 108.226,193.338 108.616,193.338 109.254 C 193.338 109.747,193.520 110.409,193.741 110.726 C 193.963 111.043,194.186 111.741,194.237 112.277 C 194.321 113.153,194.427 113.262,195.274 113.344 C 196.341 113.446,196.947 114.465,197.326 116.797 C 197.440 117.498,197.738 119.337,197.987 120.882 C 198.839 126.161,198.435 140.907,197.395 142.495 C 197.170 142.837,196.914 143.860,196.825 144.769 C 196.634 146.719,196.372 147.130,195.322 147.130 C 194.345 147.130,194.012 147.534,193.806 148.972 C 193.377 151.961,193.237 152.383,192.419 153.147 C 191.955 153.581,191.253 153.933,190.854 153.933 C 189.713 153.933,188.235 155.220,188.235 156.213 C 188.235 156.899,188.047 157.136,187.172 157.546 C 186.275 157.967,186.096 158.201,186.025 159.047 L 185.940 160.049 183.755 160.393 C 182.552 160.582,181.162 160.737,180.665 160.737 C 180.167 160.737,179.161 161.056,178.428 161.446 L 177.095 162.155 166.010 162.151 C 159.914 162.149,154.639 162.070,154.288 161.976 L 153.650 161.805 153.650 131.245 C 153.650 107.062,153.724 100.655,154.004 100.542 C 154.834 100.207,181.601 100.353,181.942 100.695 M163.912 110.900 C 163.230 111.583,163.443 152.312,164.133 152.936 C 164.644 153.398,165.204 153.432,170.441 153.311 C 177.356 153.151,177.463 153.115,177.463 150.947 L 177.463 149.398 176.045 149.398 L 174.628 149.398 174.628 150.926 C 174.628 152.059,174.512 152.500,174.180 152.627 C 173.513 152.883,164.905 152.827,164.491 152.565 C 164.210 152.386,164.150 148.044,164.208 131.804 L 164.281 111.269 165.131 111.326 C 165.935 111.380,165.951 111.360,165.431 110.971 C 164.762 110.471,164.360 110.452,163.912 110.900 M174.250 110.914 C 173.840 111.213,174.021 111.269,175.401 111.269 L 177.038 111.269 177.179 112.828 C 177.335 114.545,177.293 114.522,179.521 114.133 C 181.069 113.862,181.715 114.197,181.715 115.272 C 181.715 115.643,181.843 115.946,181.999 115.946 C 182.397 115.946,182.353 114.429,181.942 114.018 C 181.755 113.831,181.149 113.677,180.595 113.674 C 178.739 113.667,178.313 113.427,178.313 112.386 C 178.313 110.812,175.692 109.863,174.250 110.914 M185.684 122.472 C 185.684 123.234,185.758 123.309,186.365 123.157 C 187.083 122.976,187.670 126.351,187.326 128.690 C 187.226 129.371,187.276 129.478,187.577 129.228 C 188.029 128.853,188.106 123.477,187.675 122.343 C 187.237 121.189,185.684 121.290,185.684 122.472 M187.342 133.963 C 187.562 136.737,187.136 138.909,186.370 138.909 C 185.949 138.909,185.684 139.073,185.684 139.334 C 185.684 139.988,187.296 139.888,187.658 139.211 C 188.082 138.419,188.033 133.742,187.595 133.142 C 187.292 132.729,187.254 132.855,187.342 133.963 M185.684 142.736 C 185.684 143.387,185.580 143.444,184.408 143.444 L 183.133 143.444 183.133 144.805 C 183.133 146.228,182.781 146.846,181.972 146.846 C 181.415 146.846,181.148 147.404,181.148 148.570 C 181.148 149.374,181.108 149.398,179.731 149.398 C 177.961 149.398,177.877 149.864,179.600 150.123 C 181.187 150.361,181.999 149.780,181.999 148.407 C 181.999 147.719,182.167 147.427,182.707 147.181 C 183.240 146.938,183.416 146.642,183.416 145.983 C 183.416 144.596,183.871 144.011,184.950 144.011 C 186.104 144.011,186.557 143.534,186.227 142.665 C 185.910 141.826,185.684 141.855,185.684 142.736 " stroke="none" fill="#64c9f5" fill-rule="evenodd"></path><path id="path4" d="M77.732 97.293 C 76.732 98.293,77.322 99.504,78.809 99.504 C 80.142 99.504,80.227 99.460,80.227 98.777 C 80.227 97.191,78.726 96.299,77.732 97.293 M119.975 97.573 C 119.300 98.248,119.549 99.504,120.357 99.504 C 121.020 99.504,121.076 99.414,120.995 98.463 C 120.901 97.345,120.528 97.020,119.975 97.573 M71.439 100.636 C 70.781 101.866,71.165 102.472,72.661 102.568 L 74.024 102.655 73.936 101.434 C 73.830 99.963,72.096 99.409,71.439 100.636 M113.979 100.475 C 113.436 101.129,113.711 102.481,114.387 102.481 C 114.813 102.481,114.975 102.263,115.039 101.606 C 115.144 100.534,114.500 99.848,113.979 100.475 M150.318 100.398 C 149.602 101.114,149.826 161.777,150.546 162.162 C 150.866 162.334,151.408 162.434,151.751 162.385 L 152.374 162.296 152.374 131.254 L 152.374 100.213 151.522 100.129 C 151.054 100.083,150.512 100.204,150.318 100.398 M70.021 103.614 C 69.727 103.969,69.766 104.040,70.261 104.040 C 70.672 104.040,70.804 103.909,70.691 103.614 C 70.601 103.381,70.493 103.189,70.451 103.189 C 70.409 103.189,70.215 103.381,70.021 103.614 M110.843 103.614 C 110.538 103.982,110.668 104.040,111.801 104.040 C 112.777 104.040,113.111 103.931,113.111 103.614 C 113.111 103.320,112.816 103.189,112.154 103.189 C 111.627 103.189,111.037 103.381,110.843 103.614 M66.913 105.155 C 66.206 106.476,66.852 107.442,68.443 107.442 C 69.127 107.442,69.171 107.357,69.171 106.024 L 69.171 104.607 68.189 104.607 C 67.508 104.607,67.116 104.775,66.913 105.155 M109.483 104.947 C 108.993 105.436,109.053 107.063,109.568 107.261 C 109.911 107.392,109.993 107.151,109.993 106.015 C 109.993 104.477,109.980 104.450,109.483 104.947 M65.397 107.908 C 65.062 108.243,65.166 122.410,65.504 122.620 C 65.988 122.919,65.986 122.949,66.092 115.261 C 66.190 108.247,66.092 107.213,65.397 107.908 M106.364 108.065 C 105.881 108.549,105.881 121.926,106.364 122.410 C 106.551 122.597,107.125 122.750,107.640 122.750 L 108.575 122.750 108.575 115.237 L 108.575 107.725 107.640 107.725 C 107.125 107.725,106.551 107.878,106.364 108.065 M66.960 126.492 C 66.051 127.401,66.832 128.987,68.189 128.987 L 69.171 128.987 69.171 127.569 C 69.171 126.082,67.959 125.492,66.960 126.492 M109.331 126.341 C 108.976 126.696,109.142 128.349,109.568 128.703 C 109.936 129.009,109.993 128.862,109.993 127.604 C 109.993 126.255,109.795 125.877,109.331 126.341 M69.792 130.614 C 69.924 132.217,70.872 132.299,70.872 130.708 C 70.872 129.731,70.782 129.554,70.288 129.554 C 69.786 129.554,69.716 129.704,69.792 130.614 M110.560 130.536 C 110.560 131.617,111.128 132.105,112.384 132.105 C 113.057 132.105,113.111 132.010,113.111 130.829 L 113.111 129.554 111.836 129.554 C 110.569 129.554,110.560 129.561,110.560 130.536 M71.575 132.681 C 71.251 133.204,71.861 133.571,72.891 133.472 C 74.247 133.342,74.187 132.558,72.812 132.444 C 72.241 132.396,71.685 132.503,71.575 132.681 M113.840 132.640 C 113.547 133.113,114.419 133.571,114.782 133.134 C 115.037 132.826,115.009 132.699,114.654 132.563 C 114.065 132.337,114.025 132.341,113.840 132.640 M75.691 134.905 C 75.691 135.778,76.326 136.524,76.813 136.223 C 77.487 135.806,77.155 134.089,76.400 134.089 C 75.808 134.089,75.691 134.224,75.691 134.905 M118.268 135.152 C 118.338 135.997,118.472 136.215,118.923 136.215 C 119.373 136.215,119.508 135.997,119.578 135.152 C 119.659 134.172,119.608 134.089,118.923 134.089 C 118.238 134.089,118.187 134.172,118.268 135.152 M80.227 138.023 C 80.227 138.896,80.862 139.642,81.348 139.341 C 82.023 138.924,81.691 137.208,80.936 137.208 C 80.344 137.208,80.227 137.342,80.227 138.023 M121.386 138.271 C 121.547 140.211,124.152 139.945,124.163 137.987 C 124.167 137.239,124.110 137.208,122.733 137.208 L 121.298 137.208 121.386 138.271 M84.860 140.480 C 84.606 141.142,85.111 142.452,85.620 142.452 C 86.272 142.452,86.198 140.223,85.541 140.096 C 85.268 140.044,84.962 140.216,84.860 140.480 M126.071 140.218 C 125.173 141.116,126.215 142.677,127.621 142.542 C 129.234 142.388,129.053 140.220,127.417 140.100 C 126.788 140.054,126.182 140.107,126.071 140.218 M86.777 142.853 C 86.073 143.298,86.650 144.011,87.714 144.011 C 88.790 144.011,89.110 143.738,88.844 143.045 C 88.656 142.556,87.426 142.442,86.777 142.853 M128.894 143.064 C 128.680 143.279,129.216 144.011,129.588 144.011 C 129.725 144.011,129.837 143.756,129.837 143.444 C 129.837 142.900,129.283 142.676,128.894 143.064 M65.391 147.319 C 65.048 147.661,65.172 161.727,65.520 162.076 C 65.752 162.307,66.023 162.310,66.516 162.086 C 67.192 161.777,67.192 161.777,66.623 161.246 C 66.082 160.743,66.052 160.362,66.052 153.922 C 66.052 147.721,65.956 146.754,65.391 147.319 M106.152 147.489 C 106.076 147.687,106.048 151.033,106.090 154.924 L 106.166 161.999 106.919 162.264 C 108.079 162.672,109.609 161.977,109.010 161.314 C 108.645 160.911,108.575 159.740,108.575 153.982 L 108.575 147.130 107.433 147.130 C 106.771 147.130,106.232 147.281,106.152 147.489 " stroke="none" fill="#fcf2f4" fill-rule="evenodd"></path></g></svg>